<svg aria-hidden="true" style="position:absolute;width:0;height:0" xmlns="http://www.w3.org/2000/svg" overflow="hidden"><defs><symbol id="icon-arrow-left" viewBox="0 0 92 92"><path d="M84 46c0 2.2-1.8 4-4 4H21.6l18.1 18.2c1.6 1.6 1.6 4.1 0 5.7-.7.7-1.7 1.1-2.8 1.1-1 0-2.1-.4-2.8-1.2l-24.9-25c-1.6-1.6-1.6-4.1 0-5.6l24.9-25c1.6-1.6 4.1-1.6 5.7 0 1.6 1.6 1.6 4.1 0 5.7L21.6 42H80c2.2 0 4 1.8 4 4z"/></symbol><symbol id="icon-arrow-right" viewBox="0 0 92 92"><path d="M82.8 48.8l-24.9 25c-.8.8-1.8 1.2-2.8 1.2-1 0-2-.4-2.8-1.2-1.6-1.6-1.6-4.1 0-5.7L70.4 50H12c-2.2 0-4-1.8-4-4s1.8-4 4-4h58.4L52.2 23.8c-1.6-1.6-1.6-4.1 0-5.7 1.6-1.6 4.1-1.6 5.7 0l24.9 25c1.6 1.6 1.6 4.2 0 5.7z"/></symbol><symbol id="icon-check" viewBox="0 0 92 92"><path d="M34.4 72c-1.2 0-2.3-.4-3.2-1.3L11.3 50.8c-1.8-1.8-1.8-4.6 0-6.4 1.8-1.8 4.6-1.8 6.4 0l16.8 16.7 39.9-39.8c1.8-1.8 4.6-1.8 6.4 0 1.8 1.8 1.8 4.6 0 6.4l-43.1 43c-1 .9-2.1 1.3-3.3 1.3z"/></symbol><symbol id="icon-chevron-down" viewBox="0 0 92 92"><path d="M46 63c-1.1 0-2.1-.4-2.9-1.2l-25-26c-1.5-1.6-1.5-4.1.1-5.7 1.6-1.5 4.1-1.5 5.7.1l22.1 23 22.1-23c1.5-1.6 4.1-1.6 5.7-.1 1.6 1.5 1.6 4.1.1 5.7l-25 26c-.8.8-1.8 1.2-2.9 1.2z"/></symbol><symbol id="icon-close" viewBox="0 0 92 92"><path d="M70.7 64.3c1.8 1.8 1.8 4.6 0 6.4-.9.9-2 1.3-3.2 1.3-1.2 0-2.3-.4-3.2-1.3L46 52.4 27.7 70.7c-.9.9-2 1.3-3.2 1.3s-2.3-.4-3.2-1.3c-1.8-1.8-1.8-4.6 0-6.4L39.6 46 21.3 27.7c-1.8-1.8-1.8-4.6 0-6.4 1.8-1.8 4.6-1.8 6.4 0L46 39.6l18.3-18.3c1.8-1.8 4.6-1.8 6.4 0 1.8 1.8 1.8 4.6 0 6.4L52.4 46l18.3 18.3z"/></symbol><symbol id="icon-mail" viewBox="0 0 24 18"><path transform="matrix(.993 0 0 .993 1.683 .401)" d="M19 0H3C1.95 0 1.023.544.487 1.365l1.086.816L11 8.779l9.445-6.611 1.109-.74A3.003 3.003 0 0019 0zm3 3.535l-.427.284-10 7a1 1 0 01-1.146 0L.4 3.8 0 3.5V15c0 1.652 1.348 3 3 3h16c1.652 0 3-1.348 3-3V3.535z" fill-rule="evenodd"/></symbol><symbol id="icon-phone" viewBox="0 0 21 21"><path transform="matrix(-.96 0 0 .96 20.963 .76)" d="M20.888 18.418a2.5 2.5 0 01-2.734 2.5 20.285 20.285 0 01-8.844-3.146 19.994 19.994 0 01-6.152-6.15A20.297 20.297 0 01.01 2.725 2.5 2.5 0 012.498 0h2.995a2.501 2.501 0 012.5 2.155c.123.922.348 1.828.673 2.7a2.501 2.501 0 01-.564 2.639l-.997.997a15.5 15.5 0 005.292 5.293l1-1a2.5 2.5 0 012.636-.562c.872.325 1.778.55 2.705.673a2.5 2.5 0 012.15 2.531v2.992z"/></symbol><symbol id="icon-web" viewBox="0 0 92 92"><path d="M46 0C20.6 0 0 20.6 0 46s20.6 46 46 46 46-20.6 46-46S71.4 0 46 0zm3.7 83.8c-.2 0-.4 0-.7.1V62.2c5.2-.1 9.9-.2 14.2-.5-3.8 11.7-10.9 19.5-13.5 22.1zm-7.4 0c-2.7-2.7-9.7-10.5-13.5-22.1 4.2.3 9 .5 14.2.5v21.7c-.2 0-.4-.1-.7-.1zM8 46c0-2.5.3-5 .7-7.4 2.2-.4 6.4-1 12.3-1.6-.5 2.9-.8 5.9-.8 9.1 0 3.2.3 6.2.7 9-5.8-.6-10.1-1.2-12.3-1.6-.3-2.5-.6-5-.6-7.5zm18.3 0c0-3.4.4-6.6 1-9.6 4.6-.3 9.8-.6 15.7-.6v20.4c-5.8-.1-11.1-.3-15.8-.7-.5-2.9-.9-6.1-.9-9.5zM49.6 8.2c2.7 2.7 9.6 10.7 13.5 22.1-4.2-.3-8.9-.5-14.1-.5V8.1c.2 0 .4.1.6.1zM43 8.1v21.7c-5.2.1-9.9.2-14.1.5 3.8-11.4 10.8-19.4 13.4-22.1.3 0 .5-.1.7-.1zm6 48.1V35.8c5.8.1 11.1.3 15.7.6.6 3 1 6.2 1 9.6 0 3.4-.3 6.6-.9 9.6-4.6.3-9.9.5-15.8.6zM70.9 37c5.9.6 10.1 1.2 12.3 1.6.5 2.4.8 4.9.8 7.4s-.3 5-.7 7.4c-2.2.4-6.4 1-12.3 1.6.5-2.9.7-5.9.7-9.1 0-3-.3-6.1-.8-8.9zm10.5-4.8c-2.8-.4-6.8-.9-11.9-1.4-2.4-8.6-6.6-15.5-10.1-20.4 10.1 3.8 18.1 11.8 22 21.8zM32.6 10.4c-3.6 4.8-7.7 11.7-10.1 20.3-5 .4-9 1-11.9 1.4 3.9-9.9 12-17.9 22-21.7zm-22 49.4c2.8.4 6.8.9 11.8 1.4 2.4 8.6 6.4 15.5 10 20.3-10-3.9-17.9-11.8-21.8-21.7zm49 21.7c3.6-4.8 7.6-11.6 10-20.2 5-.4 9-1 11.8-1.4-3.9 9.8-11.8 17.7-21.8 21.6z"/></symbol></defs></svg>