<svg width="810" height="486" viewBox="0 0 810 486" xmlns="http://www.w3.org/2000/svg"><path d="M-125.237 523h-5.769c-39.198-1.33-71.414-16.7-88.425-42.208-24.909-37.331-16.448-98.781 58.724-151.57l.414.59-.414-.59c24.998-17.558 49.375-32.839 72.953-47.618 78.485-49.183 146.29-91.628 194.422-190.468 15.827-32.72 28.578-72.593 41.98-114.683 35.973-113.116 76.502-241.16 197.262-280.796 117.18-38.424 272.937 44.07 368.048 137.029 72.924 71.263 107.566 143.087 92.626 192.123-9.585 31.627-38.873 52.14-86.916 61.007-46.417 8.867-90.348 5.32-132.712 1.98-73.958-5.911-143.687-11.261-215.25 47.735-51.534 42.474-98.571 94.584-144.041 145.187-63.427 70.405-129.043 143.205-210.043 194.37C-32.285 506.506-81.631 523-125.237 523zm534.692-835.536a202.028 202.028 0 00-63.16 9.612c-119.961 39.37-160.49 167.059-196.228 279.702-13.43 42.267-26.092 82.2-42.067 114.95C59.66 190.921-8.293 233.602-86.985 282.845c-23.667 14.778-47.896 30.03-72.864 47.558-74.373 52.198-82.834 112.673-58.369 149.472 33.193 49.715 124.547 63.607 234.923-6.09 80.822-51.015 146.35-123.727 209.717-194.073 45.5-50.514 92.597-102.772 144.19-145.305 72.036-59.38 142.001-53.913 216.315-48.09 42.393 3.34 86.236 6.769 132.475-1.832 47.333-8.868 76.325-29.055 85.792-60.12C819.749-23.4 784.485-96.465 712.952-166.25c-78.485-76.702-198.327-146.286-303.497-146.286z" fill="#FFF" fill-rule="nonzero"/></svg>