<?xml version="1.0" encoding="utf-8"?><svg xmlns="http://www.w3.org/2000/svg" xmlns:xlink="http://www.w3.org/1999/xlink"><symbol preserveAspectRatio="xMinYMid" viewBox="0 0 175.69 120.91" id="about1" xmlns="http://www.w3.org/2000/svg"><path fill="#f0f1f8" d="M87.83 0c33.39 0 60.46 27.06 60.46 60.45s-27.07 60.46-60.46 60.46-60.46-27.07-60.46-60.46S54.44 0 87.83 0"/><path fill="#fff" d="M104.19 7.51H69.3c-6.89 0-16.18-1.66-22.31 1.6-2.11 1.12-1.03 3.77-1.03 5.92v93.78h83.64V31.05S109.08 7.51 104.19 7.51"/><path fill="#6f36ff" d="M106.57 48.53c-5.65-11.32-19.4-15.92-30.72-10.27-1.36.68-2.64 1.49-3.84 2.42-6.1 7.67-8.09 16.09-4.43 25.29 3.65 9.27 10.9 14.16 20.85 15.37-.3.12-.39.21-.51.21-1.09.03-2.2.06-3.29.06-.21 0-.42.02-.63.06 12.6 1.17 23.76-8.1 24.93-20.7.4-4.29-.42-8.6-2.36-12.44"/><path fill="#fff" d="M88.52 81.46c.12 0 .24-.09.52-.21-9.96-1.21-17.2-6.1-20.86-15.36-3.62-9.21-1.66-17.6 4.44-25.3-8.65 6.72-11.35 18.61-6.46 28.4 2.45 4.94 6.61 8.81 11.7 10.9.24.03.46.12.64.27 1.94.74 3.97 1.2 6.03 1.39.21-.04.43-.06.64-.06 1.15 0 2.27-.03 3.35-.03"/><path fill="#2b265e" d="M20.13 73.28c.88-.36 1.3-1.38.93-2.26L21 70.9c-.4-.9-1.45-1.3-2.35-.89-.03.01-.06.03-.09.04a1.65 1.65 0 0 0-.95 2.14c.03.1.08.19.13.28.31.84 1.24 1.27 2.08.96.11-.04.21-.09.31-.15"/><path fill="#e7e6e6" d="M156.2 75.39a1.72 1.72 0 1 1 0 3.44 1.72 1.72 0 0 1 0-3.44"/><path fill="#8c94c9" d="M173.97 54.6a1.72 1.72 0 1 1 0 3.44 1.72 1.72 0 0 1 0-3.44M159.64 29a1.72 1.72 0 1 1 0 3.44 1.72 1.72 0 0 1 0-3.44"/><path fill="#e7e6e6" d="M21.06 27.55a1.72 1.72 0 1 1 0 3.44 1.72 1.72 0 0 1 0-3.44"/><path fill="#97d3f1" d="M1.72 54.6a1.72 1.72 0 1 1 0 3.44 1.72 1.72 0 0 1 0-3.44"/><path fill="#fff" d="M40.2 69.69c.24.09.45.18.69.27-.21-.13-.44-.22-.69-.27"/><path fill="#2b265e" d="M43.89 107.06v-5.16c0-.76-.12-1.51-.12-2.27V41.98c-.02-.75.04-1.5.18-2.23.08-.95.88-1.67 1.84-1.66.99.06 1.79.84 1.87 1.84.04.5.05 1 .03 1.51v65.13c1.21.3 78.39.39 80.41.09V32.93c-.52-.03-1.06-.06-1.57-.06h-15.7c-.65.01-1.3-.05-1.93-.19a4.077 4.077 0 0 1-3.29-3.5c-.17-.83-.26-1.68-.25-2.53-.03-5.28 0-10.56 0-15.85V9.08c-.66-.03-1.14-.09-1.66-.09H51.79c-2.12 0-3.35.76-3.9 2.42-.13.53-.19 1.08-.18 1.63v13.13c.03.45.01.9-.06 1.35-.15.82-.83 1.44-1.66 1.51-.88.16-1.74-.39-1.96-1.27-.17-.63-.25-1.28-.24-1.93.03-4.53.15-9.05.15-13.58.15-3.89 3.29-7.01 7.18-7.12 4.14-.06 8.24-.03 12.38-.03 14.28 0 28.56-.01 42.86-.03 1.06-.06 2.08.38 2.78 1.17 7.27 7.79 14.61 15.55 21.91 23.3.62.66.95 1.54.91 2.45-.03 4.38 0 8.75 0 13.13v61.85c.38.06.78.1 1.17.12h7.7c.41-.02.81-.01 1.21.03.82.12 1.46.77 1.57 1.6.1.83-.4 1.62-1.21 1.87-.48.13-.98.2-1.48.18H32.56c-.35.02-.7 0-1.05-.06a1.903 1.903 0 0 1-1.54-1.96c.06-.9.76-1.62 1.66-1.69.35-.04.7-.05 1.05-.03h9.51c.46.03.97.03 1.7.03"/><path fill="#29275c" d="M109.02 58.79c.01-6.02-2.43-11.78-6.76-15.97a21.605 21.605 0 0 0-14.1-6.34c-12.06-.94-22.67 7.9-23.93 19.93-.45 4.12.23 8.28 1.96 12.04.23.49.33 1.03.3 1.57-.13.83-.8 1.46-1.63 1.54-.84.11-1.65-.38-1.93-1.18-.78-1.85-1.45-3.74-2-5.67-3.26-13.92 5.27-27.88 19.14-31.33 8.33-2.29 17.25-.17 23.66 5.61 4.7 3.9 7.81 9.39 8.73 15.43 1.43 7.85-.87 15.92-6.22 21.85-3.8 4.44-9.01 7.43-14.76 8.48-6.08 1.2-12.38.19-17.78-2.84-.83-.3-1.39-1.08-1.42-1.96a1.828 1.828 0 0 1 2.48-1.78c.32.13.63.28.93.45 3.26 1.71 6.88 2.62 10.57 2.66 10.88.19 20.31-7.52 22.27-18.23.25-1.45.34-2.87.49-4.26M47.87 33.83c.03 1.06-.81 1.94-1.87 1.97a1.92 1.92 0 0 1-1.97-1.79c.02-1.04.79-1.91 1.82-2.05 1.05 0 1.93.82 2.02 1.87"/><path fill="#29275c" d="M70.41 75.18c.04 1.04-.78 1.9-1.81 1.93h-.06c-.98-.05-1.78-.8-1.9-1.78-.02-1.04.77-1.92 1.81-2.02 1.05 0 1.92.82 1.96 1.87M149.37 108.81a2.007 2.007 0 0 1-1.96 1.9 1.953 1.953 0 0 1-1.78-2.09c.08-.96.85-1.72 1.81-1.78 1.05.07 1.89.91 1.93 1.97"/><path fill="#fff" d="M86.59 49.83h-6.52a.866.866 0 0 0-.81.39c-.88 1.12-1.72 2.26-2.63 3.32-.47.57-.63 1.34-.42 2.05.06.52.5.92 1.02.94.61.13 1.24-.14 1.57-.67.25-.5.86-.71 1.36-.46.2.09.35.24.45.43.06.06.1.19.16.22.18.17.39.32.63.42.74.27 1.57.01 2.02-.64.2-.44.73-.64 1.18-.45.26.12.48.29.66.51a1.666 1.666 0 0 0 2.72 0c.27-.51.91-.71 1.42-.44.19.1.35.25.45.44a1.687 1.687 0 0 0 2.78-.03c.29-.5.93-.67 1.43-.38.18.1.32.24.41.41.06.06.09.16.15.22.36.57.94.51 1.48.42.5-.07.87-.5.87-1 .03-.27 0-.58.03-.85.04-.33-.07-.66-.3-.9-.9-1.15-1.81-2.33-2.71-3.5-.2-.28-.53-.45-.88-.43-2.2-.02-4.34-.02-6.52-.02zm6.85 8.06c-1.34.98-3.18.95-4.5-.06a3.931 3.931 0 0 1-4.64 0 3.81 3.81 0 0 1-4.56.03c-.18.09-.33.21-.52.3a3.479 3.479 0 0 1-5.13-2.93v-.18c.03-1.9-.21-1.3.97-2.84.97-1.24 1.99-2.48 2.96-3.74.34-.49.91-.76 1.51-.73 4.64.03 9.26.03 13.91 0 .81-.05 1.58.33 2.02 1 1 1.39 2.09 2.75 3.14 4.08.32.37.48.84.46 1.32-.03.37 0 .76 0 1.12-.12 1.94-1.78 3.43-3.72 3.32a4.52 4.52 0 0 1-1.24-.36c-.23-.09-.45-.2-.66-.33M84.54 62.38v5.2h4.13v-5.2zm6.22 5.23h4.16c.03-.17.04-.35.03-.52v-6.91c.07-.56.57-.96 1.13-.89.48.05.85.44.89.92v.39c0 2.6-.03 5.19 0 7.76.07.68-.42 1.29-1.1 1.36h-.25c-6.07-.03-12.14-.03-18.2 0-.66.07-1.26-.4-1.34-1.06-.01-.1-.01-.2.01-.3.03-2.63 0-5.22 0-7.85v-.33c.04-.49.44-.88.93-.91.53-.03.99.34 1.09.85.03.17.04.34.03.51v6.97h4.17c0-.18.03-.36.03-.54 0-1.81.03-3.62 0-5.43-.08-.66.4-1.25 1.06-1.33.08-.01.16-.01.24 0 1.9.03 3.83 0 5.73.03.97 0 1.3.33 1.3 1.3v5.22c.08.24.11.5.09.76"/><path fill="#fff" d="M86.59 55.05h-8.15c-.23.01-.47-.03-.69-.12a1 1 0 0 1-.54-1.09c.08-.42.42-.74.84-.81.17-.02.34-.02.51 0h16.51c.53.05.93.5.91 1.02 0 .52-.39.96-.91 1.03-.17.01-.34.01-.51 0-2.65-.03-5.31-.03-7.97-.03z"/><path fill="#2b265e" d="M66.76 96.7c.12.58.21 1.18.3 1.75l.06.37-.24-.12c-.54-.28-1.09-.58-1.63-.88a.92.92 0 0 0-1.03 0l-1.35.72-.49.25c-.02 0-.04.01-.06.03 0-.06.03-.16.03-.22l.06-.42c.09-.45.15-.93.28-1.42.11-.38-.02-.8-.34-1.05-.39-.37-.78-.76-1.17-1.15l-.34-.33c.37-.06.73-.12 1.06-.18.33-.06.66-.09 1.03-.15.36-.02.69-.26.81-.6.21-.49.48-1 .73-1.48l.21-.43v-.03l.09.18c.09.16.15.3.24.46.21.42.42.84.6 1.27.15.37.5.63.9.66.6.09 1.18.15 1.82.27l.24.03-.28.24c-.42.43-.87.85-1.32 1.27-.22.27-.29.63-.21.96m3.77-3.77c-.15-.03-.33-.06-.48-.09-.24-.03-.51-.09-.75-.12-.64-.09-1.33-.21-2-.27a.566.566 0 0 1-.51-.4c-.33-.72-.69-1.41-1.02-2.11l-.37-.75a.73.73 0 0 0-.69-.52.86.86 0 0 0-.69.58l-.46.93c-.33.64-.63 1.3-.96 1.96-.07.17-.22.27-.4.28-.93.12-1.93.27-3.2.48a.99.99 0 0 0-.66.39c-.27.42.09.76.24.91l.09.09c.1.1.2.19.3.27l.52.51c.45.46.93.91 1.41 1.36.16.12.22.33.16.51-.13.58-.22 1.15-.3 1.69l-.03.25c-.06.33-.13.66-.16 1l-.06.45v.03c-.02.23.09.46.28.6.19.12.42.14.63.06.12-.03.23-.08.33-.15l.06-.03c.24-.12.46-.24.7-.36.6-.34 1.26-.67 1.87-1 .19-.16.47-.16.66 0 .6.36 1.27.66 1.87 1 .24.12.49.24.7.36l.09.03c.1.07.21.12.33.15.11.03.22.05.33.06.33.01.61-.26.61-.59.01-.04 0-.09-.01-.14 0-.09-.03-.18-.03-.24v-.06c-.06-.27-.09-.57-.15-.84-.12-.7-.21-1.42-.36-2.12a.69.69 0 0 1 .27-.75c.76-.69 1.45-1.39 2.23-2.2.3-.33.34-.57.28-.76a.935.935 0 0 0-.67-.45M81.68 96.86c.12.57.21 1.17.3 1.75l.06.36-.24-.12c-.55-.27-1.09-.58-1.63-.88a.92.92 0 0 0-1.03 0l-1.36.73-.45.24c-.03 0-.05.01-.06.03 0-.06.03-.15.03-.21l.06-.43c.09-.45.15-.93.27-1.42a1 1 0 0 0-.33-1.05c-.4-.36-.79-.76-1.18-1.15l-.3-.3c.36-.06.72-.12 1.05-.18.37-.06.7-.09 1.03-.15a.92.92 0 0 0 .82-.6c.21-.51.48-1 .72-1.48l.21-.42v-.03l.09.18c.06.15.15.3.21.45.21.42.43.85.6 1.27.15.37.5.63.91.66.6.09 1.18.15 1.81.28l.24.03-.27.27c-.42.42-.85.84-1.3 1.24-.24.24-.34.59-.27.93zm3.8-3.75c-.15-.03-.33-.06-.48-.09-.25-.03-.52-.09-.76-.12-.63-.09-1.33-.21-1.99-.27a.537.537 0 0 1-.51-.39c-.34-.73-.7-1.42-1.03-2.12l-.36-.75c-.09-.3-.36-.5-.67-.51h-.03c-.32.04-.58.26-.69.57l-.48.97c-.34.63-.64 1.3-.97 1.93-.06.16-.22.27-.39.27-.94.12-1.93.27-3.2.48-.27.04-.51.18-.67.39-.27.43.1.76.25.91l.06.06.3.3.51.51c.45.46.93.94 1.42 1.36.15.12.21.33.15.51-.12.55-.21 1.12-.3 1.66l-.06.28c-.06.33-.12.66-.15 1l-.06.45v.03c-.02.23.08.46.27.6.19.12.42.14.63.06.12-.03.23-.08.34-.15l.09-.03c.24-.12.45-.24.69-.36.6-.34 1.27-.67 1.87-1 .2-.16.47-.16.67 0 .6.36 1.26.66 1.87 1 .24.12.48.24.69.36l.09.03c.1.07.22.12.33.15.11.03.22.05.34.06.33.01.6-.26.61-.59 0-.04-.01-.09-.01-.14 0-.09-.03-.18-.03-.24v-.06c-.06-.27-.1-.57-.16-.84-.12-.7-.21-1.42-.39-2.14-.07-.29.04-.59.27-.76.76-.69 1.51-1.45 2.24-2.2.3-.33.33-.57.27-.75.03-.13-.12-.34-.57-.43M96.49 96.7c.12.58.21 1.18.3 1.75l.06.4-.24-.12c-.54-.28-1.09-.58-1.63-.88a.904.904 0 0 0-1.02 0l-1.36.72-.49.25c-.02 0-.04.01-.06.03 0-.06.03-.16.03-.22l.06-.42c.1-.45.16-.93.25-1.42.11-.38-.02-.8-.34-1.05-.39-.37-.78-.76-1.17-1.15l-.34-.33c.37-.06.73-.12 1.06-.18.33-.06.66-.09 1.03-.15.36-.02.69-.26.81-.6.21-.49.48-1 .73-1.48l.21-.43v-.03l.09.18c.09.16.15.3.24.46.21.42.42.81.6 1.24.15.37.5.63.9.66.6.09 1.18.15 1.82.27l.24.03-.28.24c-.42.43-.87.85-1.32 1.27-.2.28-.26.63-.18.96m3.78-3.77c-.16-.03-.34-.06-.49-.09-.24-.03-.51-.09-.75-.12-.64-.09-1.33-.21-1.99-.27a.568.568 0 0 1-.52-.4c-.33-.72-.69-1.41-1.02-2.11l-.37-.72a.708.708 0 0 0-.69-.52.86.86 0 0 0-.69.58l-.46.93c-.33.64-.66 1.3-.96 1.97a.45.45 0 0 1-.39.27c-.94.12-1.94.27-3.2.48a.99.99 0 0 0-.67.39c-.27.43.09.76.24.91l.09.09c.1.11.2.21.3.3l.52.51c.45.46.93.91 1.42 1.36.15.12.21.33.15.51-.12.58-.21 1.15-.3 1.69l-.03.24c-.06.34-.12.67-.15 1l-.06.46v.03c-.03.23.08.46.27.6.19.12.42.14.63.06.12-.03.23-.08.33-.15l.06-.03c.24-.12.46-.24.7-.37.63-.33 1.27-.66 1.87-1a.54.54 0 0 1 .66 0c.6.34 1.24.67 1.87 1l.73.37.09.03c.1.07.21.12.33.15.11.03.22.05.33.06.33 0 .61-.26.62-.59 0-.05-.01-.09-.02-.14 0-.09-.03-.18-.03-.24v-.06c-.06-.27-.09-.57-.15-.84-.12-.7-.21-1.42-.36-2.12a.69.69 0 0 1 .27-.75c.76-.69 1.45-1.39 2.24-2.2.3-.33.33-.57.27-.76a.953.953 0 0 0-.69-.51M111.07 96.7c.12.57.21 1.18.3 1.75l.06.39-.21-.12a43 43 0 0 1-1.63-.87.886.886 0 0 0-1.03 0l-1.35.72-.49.24c-.02 0-.04.02-.06.03 0-.06.03-.15.03-.21l.06-.42c.09-.46.15-.94.24-1.42.12-.39-.02-.8-.33-1.06-.39-.36-.78-.75-1.18-1.14l-.33-.34c.36-.06.73-.12 1.06-.18.33-.06.66-.09 1.02-.15a.92.92 0 0 0 .82-.6c.21-.48.48-1 .72-1.48l.21-.42v-.03l.1.18c.06.16.14.31.24.45.21.43.42.85.6 1.27.15.38.5.63.9.66.6.1 1.18.16 1.81.28l.24.03-.24.24c-.42.42-.87.84-1.32 1.27-.22.26-.31.6-.24.93zm4.44-3.26a.785.785 0 0 0-.64-.48c-.15-.03-.33-.06-.48-.09-.24-.03-.51-.1-.75-.13-.64-.09-1.33-.21-2-.27-.24 0-.44-.16-.51-.39-.33-.72-.69-1.42-1.03-2.11l-.36-.73a.697.697 0 0 0-.69-.51c-.32.05-.59.27-.7.57l-.45.94c-.33.63-.63 1.3-.96 1.96-.07.16-.22.27-.4.27-.93.12-1.93.28-3.2.49-.26.03-.5.17-.66.39-.27.42.09.75.24.9l.09.09.27.28.52.51c.45.45.93.93 1.45 1.39.15.12.21.33.15.51-.12.57-.21 1.15-.3 1.69l-.03.27c-.06.33-.12.67-.15 1l-.06.46v.03c-.02.23.08.46.27.6.19.12.42.14.63.05.12-.03.23-.08.33-.15l.06-.03c.24-.12.46-.24.7-.36.63-.33 1.27-.66 1.87-1a.54.54 0 0 1 .66 0c.6.33 1.24.67 1.87 1l.73.36.09.03c.1.07.21.12.33.15.11.04.22.06.33.07.33 0 .61-.26.61-.59.01-.05 0-.09-.01-.14 0-.09-.03-.18-.03-.24v-.06c-.06-.27-.09-.57-.15-.84-.12-.7-.21-1.42-.36-2.12a.69.69 0 0 1 .27-.75c.76-.7 1.45-1.39 2.24-2.2.2-.22.28-.53.21-.82"/></symbol><symbol preserveAspectRatio="xMinYMid" viewBox="0 0 126.01 126.5" id="about2" xmlns="http://www.w3.org/2000/svg"><path fill="#f0f1f8" d="M63.29 0c34.64 0 62.72 28.08 62.72 62.71 0 34.64-28.08 62.72-62.72 62.72S.57 97.35.57 62.71C.57 28.08 28.65 0 63.29 0"/><path fill="#fff" d="M74.43 86.57c-3.63 1.54-7.26 1.22-11.42 1.22H18.82c-2.41 0-5.57.57-7.8-.4-2.35-1.2-4.47-2.82-6.26-4.76-3.63-4.04-2.25-11.08-2.25-16.07V21.69c0-5.82-3.5-20.2 5.45-20.2h56.52c2.31 0 6.95-1.06 8.58.85 2.82 3.32 1.91 8.14 1.91 12.31v43.84c0 5.48-.82 11.68.44 17 1.17-.45 2.47-.47 3.66-.07.22.07 3.07 1.48 3.13 1.04-.52 3.59-2.51 6.81-5.48 8.89-.72.48-1.49.89-2.29 1.22"/><path fill="#2b265e" d="M115.08 87.07a20.86 20.86 0 0 0-17.48-2.15c-1.15.34-1.97 1.03-1.69 2.41.25 1.16 1.29 1.63 2.76 1.28.63-.15 1.25-.31 2.35-.59-.07.03-.1.06-.16.09 1.02-.19 2.06-.28 3.1-.28 9.62-.07 17.47 7.66 17.54 17.28.07 9.61-7.66 17.47-17.28 17.54h-.26c-1.18 0-2.35-.12-3.51-.35h-.22a16.994 16.994 0 0 1-11.71-8.98 17.46 17.46 0 0 1-.9-14.06c.03-.06.03-.16.06-.22.56-1.6.25-2.63-.88-3.07-1.13-.44-2.1.13-2.69 1.66-1.4 3.57-1.79 7.46-1.13 11.24 2.02 11.58 13.05 19.33 24.62 17.31 11.58-2.02 19.33-13.05 17.31-24.62a21.268 21.268 0 0 0-9.83-14.48zM75.47 83.5a10.273 10.273 0 0 1-5.83 1.41c-13.93-.03-44.68.1-46.09-.06.66-.73 1.22-1.56 1.66-2.44.84-1.37 1.5-2.83 1.98-4.35 0-.03-.04-.66.47-.69 5.2-.19 35.7.25 49.75.25h2.19a8.736 8.736 0 0 1-4.13 5.88zm5.82-9.61c-1.66-.03-3.32 0-5.13 0V28.18c0-2.2-.47-3.07-1.76-3.1-1.34-.07-1.91.87-1.91 3.1v45.71H25.71c-2.31 0-2.63.35-2.91 2.66-.78 6.23-5.98 9.62-11.96 8.27-4.01-.91-6.54-4.32-7.01-8.96-.13-1.28-.63-2.16-1.98-2.1-1.37.07-1.75 1.1-1.72 2.32a13.13 13.13 0 0 0 10.68 12.56c2.17.19 4.35.21 6.52.06h51.66c.87 0 1.78 0 2.66-.06 6.42-.44 11.9-6.14 11.93-12.37.03-1.72-.53-2.35-2.29-2.38M.26 58.83c0 2.35.47 3.19 1.78 3.22 1.41.07 1.97-.84 1.97-3.22V7.01c0-2.48.41-2.98 2.5-2.98h63.1c2.16 0 2.85.72 2.88 2.95.03 2.19 0 4.38 0 6.57 0 1.29.5 2.16 1.91 2.13 1.32-.03 1.76-.94 1.76-2.13V6.82C76.12 2.59 73.84.34 69.52.34H38.05C27.47.34 16.85.31 6.27.4 4.94.4 3.63.79 2.51 1.5.73 2.66.26 4.63.26 6.73c.03 17.37.03 34.74 0 52.1"/><path fill="#2b265e" d="M59.59 55.35c.57 0 1.29.1 1.66-.18.57-.41 1.29-1.19 1.23-1.73-.07-.62-.85-1.25-1.44-1.72-.25-.22-.82-.06-1.23-.06H17.76c-.41 0-.97-.13-1.22.09-.57.44-1.32 1.07-1.35 1.63.12.72.54 1.36 1.16 1.75.58.24 1.2.32 1.82.22h41.42zM17.6 61.49c-1.66 0-2.6.75-2.47 1.94.16 1.47 1.16 1.79 2.47 1.79 3.92-.03 7.83 0 11.74 0h11.75c1.31.06 2.31-.38 2.41-1.82.09-1.13-.85-1.88-2.38-1.88-7.89-.03-15.69-.03-23.52-.03M1.85 69.91c.98.07 1.84-.67 1.91-1.65v-.16c.05-1-.71-1.86-1.72-1.91h-.16a1.735 1.735 0 0 0-1.87 1.85c-.1.93.57 1.77 1.5 1.87.11.01.23.02.34 0M74.22 18.56c-.95-.1-1.8.57-1.91 1.52-.01.1-.01.2 0 .3-.04 1.03.77 1.89 1.8 1.93a1.87 1.87 0 0 0 1.92-1.8c.13-.94-.53-1.81-1.47-1.93-.11-.02-.23-.02-.34-.02M92.88 90.99c-.1-1.16-.69-1.91-1.85-1.91a1.85 1.85 0 0 0-1.89 1.83 1.85 1.85 0 0 0 1.83 1.89c.47.03.94-.13 1.31-.43l.03-.03c.31-.4.5-.86.57-1.35"/><path fill="#fff" d="M96.7 108.05c1.41 1.29 2.88 2.57 4.38 3.76a1.85 1.85 0 0 0 2.79-.22c2.91-3.6 5.79-7.23 8.64-10.9.67-.73.62-1.86-.11-2.53-.09-.09-.19-.16-.3-.22-.82-.66-2.02-.53-2.69.28-.29.3-.55.63-.78.97-2.13 2.69-4.29 5.38-6.52 8.2-1.03-.85-1.87-1.6-2.78-2.32-.8-.76-2.05-.73-2.81.06-.76.8-.73 2.05.06 2.81.04.04.08.07.12.11z"/><path fill="#fff" d="M88.52 113.28c2.42 4.65 6.8 7.95 11.94 8.99h.31c-9.43-5.01-13.02-16.72-8.01-26.15 1.83-3.43 4.64-6.23 8.07-8.04-3.18.57-6.15 2.03-8.55 4.2l-.03.03a17.436 17.436 0 0 0-4.63 6.85c-1.58 4.64-1.26 9.72.9 14.12"/><path fill="#6f36ff" d="M99.36 105.08c.88.72 1.75 1.47 2.79 2.32 2.25-2.82 4.38-5.52 6.51-8.2.25-.32.5-.66.78-.98.67-.81 1.87-.93 2.7-.28.85.51 1.13 1.61.63 2.46-.07.1-.14.21-.23.3-2.85 3.66-5.73 7.3-8.64 10.9-.61.82-1.77.99-2.59.38-.07-.05-.14-.1-.2-.16-1.5-1.19-2.97-2.48-4.38-3.76-.84-.71-.95-1.96-.24-2.8.71-.84 1.96-.95 2.8-.24.02.02.05.04.07.06zm1.44 17.19h-.31c1.15.23 2.33.34 3.5.34 9.62-.07 17.35-7.92 17.28-17.54-.07-9.51-7.76-17.2-17.28-17.28-1.04 0-2.07.1-3.1.29-9.45 4.94-13.11 16.61-8.17 26.07a19.35 19.35 0 0 0 8.08 8.12"/><path d="M88.52 113.28a18.162 18.162 0 0 1-.9-14.09c-1.69 4.62-1.36 9.73.9 14.09M92.28 92.3l-.03.03z"/><path fill="#2b265e" d="M21.92 37.73v6.04h-4.94v-4.39c0-.18.03-.4.03-.65v-.07zm7.39-1.6v7.7h-4.76c-.09-.82-.09-6.04 0-6.7zm7.49-1.72v9.39h-4.76c-.1-.78-.1-7.48 0-8.27zm7.45-2.07V43.8h-4.88V33.72l.81-.22c1.35-.38 2.72-.78 4.07-1.16zm7.39-2.56v14h-4.76c-.18-1.98-.18-10.34-.03-12.25zm7.61-4.45v18.41c-1.65.16-3.3.18-4.95.03V28.58a23.25 23.25 0 0 0 4.95-3.25zm2.38-1.1v-.81c.09-.81-.41-1.56-1.19-1.79-.76-.24-1.58.1-1.94.81a10.01 10.01 0 0 1-3.45 2.95 47.637 47.637 0 0 1-8.3 3.57c-8.54 2.88-17.31 4.76-27.05 6.73-1.04.22-2.04.41-3.1.63l-1.85.37-.03.35c-.03.18-.03.34-.06.5-.04.25-.06.5-.07.75v6.07c0 1.6.32 1.88 1.94 1.88h43.38c1.41 0 1.72-.34 1.75-1.78v-.41zM32.04 23.45c1.03-.88 2.03-1.76 3.03-2.63 0-.38-.03-.75 0-1.13.05-1.12.85-2.08 1.95-2.32.99-.27 2.04.15 2.56 1.04.33.79 1.12 1.28 1.98 1.22.4.04.8.11 1.19.22 1.53-1.5 1.91-1.6 3.88-.94 1.1-.85 2.22-1.72 3.48-2.69-.13-1.38.03-2.79 1.6-3.32 1.1-.47 2.38-.07 3.03.94.49-.17.99-.31 1.5-.41.77-.05 1.42-.6 1.6-1.35.39-1 1.41-1.62 2.48-1.5 1 .11 1.87.77 2.22 1.72a2.69 2.69 0 0 1-.85 2.82c-.85.63-1.99.69-2.91.16-.32-.22-.63-.47-.91-.75-.47.12-.93.31-1.44.41-.71.06-1.3.56-1.5 1.25a2.365 2.365 0 0 1-3 1.47c-.03-.01-.06-.02-.1-.03-.24-.09-.49-.16-.75-.22-1.16.91-2.31 1.81-3.44 2.69 0 2.19-.53 3.13-1.88 3.41-1.44.32-2.38-.31-3.26-2.12-.78-.16-1.6-.32-2.47-.47a2.841 2.841 0 0 1-3.81 1.21c-.07-.04-.13-.08-.2-.11-1 .84-1.91 1.66-2.88 2.47v1.24c.02 1.29-1 2.35-2.28 2.38a2.44 2.44 0 0 1-2.73-2.1c-.06-.31-.03-.66-.06-.94-.12-.11-.24-.2-.38-.28-.84-.5-1.69-1-2.63-1.54-.92.63-2.09.76-3.13.35-.88.78-1.66 1.53-2.47 2.22-.71.48-1.07 1.32-.94 2.16.15 1.27-.76 2.41-2.02 2.56-.22.03-.44.02-.65-.01a2.52 2.52 0 0 1-2.37-2.67c.08-1.4 1.28-2.46 2.67-2.38.1.01.2.02.29.04.31.06.61.15.91.25 1-.94 2-1.94 3.04-2.88.34-.34.46-.83.31-1.29-.12-.86.23-1.72.91-2.25 1.07-.88 2.64-.72 3.52.34.15.18.27.38.36.6.19.55.33 1.11.41 1.69.94.53 1.91 1.13 2.85 1.66 1-.59 2.22-.66 3.29-.19"/><path fill="#e7e6e6" d="M11.25 114.69a1.786 1.786 0 0 1 0 3.57 1.786 1.786 0 1 1 0-3.57"/><path fill="#8c94c9" d="M45.57 100.26a1.786 1.786 0 1 1-1.79 1.78c0-.98.8-1.78 1.79-1.78"/><path fill="#97d3f1" d="M62.76 108.84a1.786 1.786 0 1 1-1.79 1.78c0-.99.8-1.78 1.79-1.78"/><path fill="#8c94c9" d="M105.47 50.03a1.786 1.786 0 0 1 0 3.57 1.786 1.786 0 1 1 0-3.57"/><path fill="#97d3f1" d="M94.04 33.62a1.786 1.786 0 0 1 0 3.57 1.786 1.786 0 1 1 0-3.57"/><path fill="#e7e6e6" d="M118.05 12.71a1.786 1.786 0 1 1 0 3.57 1.786 1.786 0 0 1 0-3.57"/></symbol><symbol preserveAspectRatio="xMinYMid" viewBox="0 0 132.78 126.58" id="about3" xmlns="http://www.w3.org/2000/svg"><path fill="#f0f1f8" d="M69.48 0c34.96 0 63.3 28.33 63.3 63.29s-28.34 63.29-63.3 63.29c-34.95 0-63.29-28.33-63.29-63.29S34.53 0 69.48 0"/><path fill="#2b265e" d="M87.12 42.56c.99.07 1.85-.68 1.92-1.67 0-.05.01-.11 0-.16.06-1.01-.72-1.88-1.73-1.93h-.17c-.96-.09-1.81.63-1.89 1.59-.01.09-.01.18-.01.27-.1.95.59 1.8 1.53 1.9.12.01.23.01.35 0"/><path fill="#e7e6e6" d="M1.8 92.43a1.799 1.799 0 1 1 0 3.6c-1 0-1.8-.81-1.8-1.8 0-1 .8-1.8 1.8-1.8"/><path fill="#8c94c9" d="M51.6 101.18a1.799 1.799 0 1 1 0 3.6c-1 0-1.8-.81-1.8-1.8 0-1 .8-1.8 1.8-1.8M49.8 73.84a1.805 1.805 0 0 1 0 3.61c-1 0-1.8-.81-1.8-1.8 0-1 .8-1.81 1.8-1.81"/><path fill="#e7e6e6" d="M124.75 12.82c1 0 1.8.81 1.8 1.81a1.799 1.799 0 1 1-3.6 0c0-1 .81-1.81 1.8-1.81"/><path fill="#97d3f1" d="M74.67 58.99a1.799 1.799 0 1 1 0 3.6c-1 0-1.81-.8-1.81-1.8 0-.99.81-1.8 1.81-1.8"/><path fill="#fff" d="M91.26 118.18c.12.06.28.03.63.03-9.48-6.29-14.32-14.88-13.3-26.1.98-11.15 7.23-18.64 17.31-23.32-14.06 2.78-23.2 16.44-20.42 30.5.87 4.42 2.88 8.53 5.82 11.94.22.16.41.36.54.6 1.59 1.73 3.41 3.24 5.4 4.49.23.06.46.16.67.28 1.1.54 2.24 1.04 3.35 1.58"/><path fill="#13ce66" d="M126.87 94.26c-.01-14.33-11.62-25.94-25.94-25.95-1.69-.01-3.38.16-5.03.51-10.08 4.68-16.34 12.17-17.32 23.32-.97 11.22 3.86 19.85 13.3 26.1-.34-.03-.5 0-.63-.03-1.14-.54-2.24-1.07-3.35-1.61-.21-.12-.43-.22-.66-.29 12.15 7.57 28.14 3.86 35.71-8.3 2.57-4.12 3.93-8.89 3.92-13.75z"/><path d="M34.98 3.31C21.25 5.6 10.99 17.16 10.36 31.06c-.24 4.79.7 9.56 2.75 13.9.15.36.35.7.6 1.01.52.58 1.33.78 2.05.51.77-.3 1.24-1.09 1.14-1.9-.09-.44-.22-.86-.41-1.27a24.518 24.518 0 0 1-1.99-14.97c1.96-10.68 8.28-17.54 18.61-20.79.73-.22 1.52-.32 2.28-.48-.07.04-.16.07-.22.1 1.65-.33 3.33-.5 5.02-.51 14.33-.09 26.02 11.46 26.1 25.78.09 14.33-11.45 26.02-25.78 26.11h-.32c-4.84.01-9.58-1.35-13.68-3.92-.87-.39-1.89-.03-2.31.82-.57 1.05-.16 2.03 1.2 2.78 12.32 6.98 27.87 4.2 37-6.63a28.593 28.593 0 0 0 6.35-25.34C65.56 10.73 50.59.56 34.98 3.31M128.45 83.93c-.33-1-.74-1.96-1.23-2.88-.5-.86-1.57-1.19-2.47-.76-.85.39-1.26 1.36-.95 2.25.19.51.4 1.02.64 1.51 5.67 13.03-.29 28.2-13.32 33.87-13.03 5.68-28.19-.28-33.87-13.31a25.73 25.73 0 0 1-2.14-10.38c0-.98-.03-1.99 0-2.97.05-.6.14-1.19.28-1.77 2.32-12.79 13.86-21.8 26.83-20.95 3.08.11 6.11.83 8.91 2.11.95.45 1.84.98 2.82 1.39.88.49 1.99.17 2.47-.71.2-.35.27-.75.21-1.15-.08-.76-.59-1.4-1.3-1.68-14.21-8.05-32.25-3.06-40.31 11.15-8.05 14.2-3.07 32.25 11.14 40.31a29.6 29.6 0 0 0 18.43 3.59c6.75-.72 13-3.89 17.57-8.91 8.09-8.91 10.14-19.24 6.29-30.71M54.88 102.41c-.44-.22-.91-.38-1.39-.57A41.584 41.584 0 0 1 29.73 78.3c-.11-.33-.26-.65-.44-.95-.35-.62-1.07-.95-1.77-.82-.71.09-1.31.56-1.55 1.23-.18.57-.11 1.19.19 1.71 2.86 7.36 7.6 13.84 13.75 18.8 3.77 3.09 8.03 5.53 12.6 7.23.48.16.95.32 1.24.38.93.06 1.77-.55 2.02-1.45.22-.8-.15-1.64-.89-2.02M82.91 23.66c.34.21.7.36 1.08.48 4.71 1.89 9.03 4.62 12.76 8.05.29.27.61.51.95.7.74.37 1.63.21 2.18-.41.58-.58.66-1.5.19-2.18a5.46 5.46 0 0 0-.88-.98 45.988 45.988 0 0 0-13.9-8.72c-.41-.16-.86-.25-1.11-.35-.81-.04-1.57.43-1.9 1.17-.35.81-.08 1.74.63 2.24M103.96 40.25c.07.54.26 1.06.54 1.52.66 1.33 1.39 2.62 2.05 3.95.38.79.66 1.68 1.04 2.47.41.94 1.5 1.38 2.44.97l.06-.03c.92-.38 1.35-1.43.96-2.35 0 0-.01-.01-.01-.02a37.48 37.48 0 0 0-3.63-7.45c-.31-.59-.92-.94-1.58-.92a1.715 1.715 0 0 0-1.87 1.86M102 37.53c1.04.03 1.92-.76 1.99-1.8.07-1.03-.72-1.93-1.76-1.99-1.03-.07-1.93.72-2 1.75v.15c.05.98.8 1.78 1.77 1.89"/><path d="M19.4 49.23c-1.05.07-1.84.97-1.77 2.02.08.98.88 1.73 1.86 1.77 1.03-.08 1.84-.93 1.87-1.96-.01-.3-.09-.6-.26-.85-.19-.19-.35-.38-.53-.6-.32-.28-.75-.42-1.17-.38M121.09 77.54c1.05.03 1.93-.81 1.96-1.86.02-1.06-.81-1.94-1.87-1.96-1.04-.03-1.91.79-1.96 1.83.07 1.02.85 1.85 1.87 1.99"/><path fill="#fff" d="M30.52 56.56c.13.06.28.03.63.03-9.48-6.29-14.31-14.88-13.3-26.1.98-11.15 7.24-18.64 17.32-23.32-14.06 2.78-23.21 16.44-20.43 30.5.88 4.42 2.89 8.53 5.83 11.94.22.16.4.36.54.6 1.59 1.73 3.4 3.24 5.4 4.49.23.06.45.16.66.28 1.11.5 2.25 1.04 3.35 1.58"/><path fill="#6f36ff" d="M66.13 32.61C66.12 18.28 54.52 6.67 40.19 6.66a23.5 23.5 0 0 0-5.02.51c-10.08 4.67-16.34 12.16-17.32 23.32-.98 11.22 3.85 19.84 13.3 26.1-.35-.03-.51 0-.63-.03-1.14-.54-2.25-1.08-3.35-1.62-.21-.12-.43-.21-.67-.28 12.16 7.57 28.14 3.85 35.71-8.3 2.57-4.13 3.93-8.89 3.92-13.76z"/><path fill="#fff" d="M20.57 49.57c.16.19.35.42.53.6-.13-.23-.31-.44-.53-.6M35.49 27.08c-.04-1.3 1.07-2.31 2.81-2.47v4.52h-.03c-.46 0-.91-.09-1.33-.25-.8-.27-1.36-.97-1.46-1.8zm8.18 9.44c.03 1.3-1.07 2.31-2.81 2.47v-4.52h.03c.45 0 .9.09 1.33.25.79.26 1.36.97 1.45 1.8zm.85-5.02c-.66-.35-1.36-.6-2.05-.89-.21-.08-.42-.16-.64-.22-.34-.13-.66-.28-.95-.41v-5.53c.62.11 1.22.28 1.81.51.72.31 1.35.79 2.08 1.16.19.1.39.17.6.23.64.13 1.3-.15 1.64-.7.53-.6.46-1.51-.14-2.03-.03-.03-.07-.06-.11-.09a7.003 7.003 0 0 0-2.09-1.39c-1.16-.48-2.43-.76-3.88-1.2v-.28c0-.38.03-.76 0-1.14 0-.68-.55-1.23-1.23-1.23-.67.02-1.2.58-1.17 1.25v.01c-.07.54-.07 1.05-.1 1.55-.79.19-1.42.29-2.05.48-1.4.37-2.62 1.24-3.45 2.43-1.41 2-1.36 4.69.13 6.64.45.61 1.03 1.1 1.71 1.45.66.35 1.36.6 2.05.88.21.09.42.17.63.23.35.12.67.28.95.41v5.53c-.61-.12-1.22-.29-1.8-.51-.73-.32-1.36-.79-2.09-1.17-.19-.09-.39-.17-.6-.22-.64-.13-1.29.15-1.64.7-.52.6-.46 1.51.14 2.03.04.03.08.06.11.09.61.58 1.32 1.05 2.09 1.39 1.17.47 2.43.76 3.89 1.2v.28c0 .38-.03.76 0 1.14 0 .68.55 1.23 1.23 1.23.67-.02 1.19-.58 1.17-1.25v-.01c.06-.54.06-1.05.09-1.55.79-.19 1.43-.28 2.06-.47 1.4-.38 2.62-1.24 3.44-2.44 1.42-2 1.37-4.69-.13-6.64a5.06 5.06 0 0 0-1.7-1.45M97.3 90.47h7.11c.47-.04.93.15 1.23.5.37.4.46.97.22 1.46-.19.54-.72.9-1.3.88h-8.05v1.11c.19 0 .37.03.56.03h7.15c.33 0 .66.07.98.19.59.28.91.94.75 1.58-.17.64-.75 1.09-1.42 1.11H97.3a7.637 7.637 0 0 0 7.58 4.23 6.82 6.82 0 0 0 2.5-.7c.26-.14.53-.24.82-.28.67-.12 1.33.29 1.52.94.22.69-.11 1.43-.76 1.74-1.08.55-2.24.91-3.44 1.08-2.02.29-4.07-.02-5.91-.89a10.492 10.492 0 0 1-5.34-5.66c-.07-.15-.14-.31-.19-.47h-1.14c-.47 0-.91-.03-1.39 0-.75 0-1.38-.56-1.48-1.3-.08-.77.48-1.46 1.25-1.54.03 0 .05-.01.07-.01.49-.04.97-.05 1.46-.03h.66v-1.11h-2.15c-.71-.07-1.26-.64-1.3-1.35a1.4 1.4 0 0 1 1.27-1.46c.75-.03 1.51 0 2.27-.03h.44c.07-.16.13-.28.19-.41 2.12-5.43 8.25-8.11 13.68-5.99.35.13.69.29 1.02.46.71.34 1.02 1.18.7 1.9-.34.71-1.18 1.02-1.9.73-.48-.19-.95-.42-1.46-.57a7.62 7.62 0 0 0-8.18 2.5c-.32.41-.59.87-.79 1.36"/></symbol><symbol preserveAspectRatio="xMinYMid" viewBox="0 0 9 16" id="facebook" xmlns="http://www.w3.org/2000/svg"><path d="M8.661 0H6.5a3.711 3.711 0 0 0-3.992 3.93v1.82H.337a.33.33 0 0 0-.339.33v2.63a.328.328 0 0 0 .339.32h2.171v6.64a.336.336 0 0 0 .339.33h2.832a.336.336 0 0 0 .339-.33V9.03h2.538a.328.328 0 0 0 .339-.32V6.08a.353.353 0 0 0-.1-.24.348.348 0 0 0-.24-.09H6.02V4.21a.95.95 0 0 1 1.186-1.12H8.66A.328.328 0 0 0 9 2.77V.33A.336.336 0 0 0 8.661 0z"/></symbol><symbol preserveAspectRatio="xMinYMid" viewBox="0 0 16 16" id="github" xmlns="http://www.w3.org/2000/svg"><path class="ecls-1" d="M14.928 4.08a8.111 8.111 0 0 0-2.912-2.99 7.943 7.943 0 0 0-8.032 0 8.1 8.1 0 0 0-2.912 2.99A8.188 8.188 0 0 0 0 8.2a8.1 8.1 0 0 0 1.527 4.82 7.84 7.84 0 0 0 3.943 2.96.461.461 0 0 0 .417-.07.427.427 0 0 0 .135-.32v-.58-.95l-.24.04a3.131 3.131 0 0 1-.578.04 4.624 4.624 0 0 1-.724-.07 1.632 1.632 0 0 1-.7-.33 1.312 1.312 0 0 1-.459-.65l-.1-.25a2.732 2.732 0 0 0-.328-.54 1.262 1.262 0 0 0-.453-.41l-.073-.05a.98.98 0 0 1-.136-.13.613.613 0 0 1-.093-.15.087.087 0 0 1 .052-.12.681.681 0 0 1 .3-.05l.209.03a1.612 1.612 0 0 1 .515.26 1.743 1.743 0 0 1 .5.55 1.788 1.788 0 0 0 .579.67 1.228 1.228 0 0 0 .682.23 3.363 3.363 0 0 0 .594-.05 2.377 2.377 0 0 0 .469-.16 1.721 1.721 0 0 1 .51-1.1 7.338 7.338 0 0 1-1.068-.19 4.532 4.532 0 0 1-.979-.42 2.73 2.73 0 0 1-.839-.72 3.441 3.441 0 0 1-.547-1.12 5.467 5.467 0 0 1-.213-1.6 3.168 3.168 0 0 1 .823-2.2 2.945 2.945 0 0 1 .072-2.18 1.449 1.449 0 0 1 .9.14 6.454 6.454 0 0 1 .871.42c.184.11.331.2.442.28a7.546 7.546 0 0 1 4 0l.4-.25a5.424 5.424 0 0 1 .959-.47 1.387 1.387 0 0 1 .844-.12 2.916 2.916 0 0 1 .083 2.18 3.173 3.173 0 0 1 .823 2.2 5.584 5.584 0 0 1-.214 1.61 3.365 3.365 0 0 1-.552 1.12 2.9 2.9 0 0 1-.844.71 4.532 4.532 0 0 1-.979.42 7.338 7.338 0 0 1-1.068.19 1.911 1.911 0 0 1 .541 1.51v2.26a.434.434 0 0 0 .131.32.447.447 0 0 0 .411.07 7.842 7.842 0 0 0 3.944-2.96A8.1 8.1 0 0 0 16 8.2a8.2 8.2 0 0 0-1.072-4.12z"/></symbol><symbol preserveAspectRatio="xMinYMid" viewBox="0 0 17 16" id="linkedin" xmlns="http://www.w3.org/2000/svg"><path class="fcls-1" d="M17 9.81V16h-3.644v-5.78c0-1.45-.527-2.44-1.846-2.44a2 2 0 0 0-1.869 1.31 2.46 2.46 0 0 0-.121.88V16H5.875s.049-9.79 0-10.8H9.52v1.53a.12.12 0 0 0-.024.04h.024v-.04a3.634 3.634 0 0 1 3.284-1.78C15.2 4.95 17 6.49 17 9.81zM2.062 0a1.872 1.872 0 1 0-.048 3.73h.024A1.873 1.873 0 1 0 2.062 0zM.217 16H3.86V5.2H.217V16z"/></symbol><symbol preserveAspectRatio="xMinYMid" viewBox="0 0 152 46" id="logo" xmlns="http://www.w3.org/2000/svg"><path class="gcls-1" d="M129.662 13.6a2.119 2.119 0 0 0-2.158 2.07v6.95a5.022 5.022 0 0 1-10.038 0v-6.94a2.116 2.116 0 0 0-2.148-2.08h-.009a2.119 2.119 0 0 0-2.158 2.07v6.95a9.346 9.346 0 0 0 18.667 0v-6.94a2.117 2.117 0 0 0-2.149-2.08h-.009M82.5 27.47a4.857 4.857 0 1 1 5.018-4.85 4.934 4.934 0 0 1-5.018 4.85m0-13.87a9.019 9.019 0 1 0 9.333 9.02A9.191 9.191 0 0 0 82.5 13.6m60.176 13.87a4.857 4.857 0 1 1 5.018-4.85 4.935 4.935 0 0 1-5.018 4.85m0-13.87a9.651 9.651 0 0 0-4.667 1.22l-.351.21v-8.6a2.16 2.16 0 0 0-4.316 0v16.21a9.337 9.337 0 1 0 9.6-9.03 2.278 2.278 0 0 0-.261-.01M62.642 27.47a4.857 4.857 0 1 1 5.018-4.85 4.934 4.934 0 0 1-5.018 4.85m7.175-13.87a2.2 2.2 0 0 0-1.969 1.24l-.117.24-.234-.14a9.73 9.73 0 0 0-4.878-1.34 9.02 9.02 0 1 0-.6 18.03q.3.015.6 0a9.641 9.641 0 0 0 4.667-1.21l.351-.21v1.63a4.934 4.934 0 0 1-5.018 4.85 5.01 5.01 0 0 1-4.666-3.03l-.07-.21a2.127 2.127 0 0 0-2.017-1.38 2.263 2.263 0 0 0-.728.12 2.051 2.051 0 0 0-1.336 2.59l.023.09.024.05a9.332 9.332 0 0 0 8.747 5.93 9.191 9.191 0 0 0 9.333-9.02V15.68a2.049 2.049 0 0 0-2.018-2.08h-.092m32.666 0a9.651 9.651 0 0 0-4.667 1.22l-.351.21v-8.6a2.16 2.16 0 0 0-4.316 0v23.14a2.11 2.11 0 0 0 2.149 2.08h.009a2.114 2.114 0 0 0 2.158-2.07v-6.94a5.021 5.021 0 0 1 10.037 0v6.93a2.11 2.11 0 0 0 2.149 2.08h.009a2.112 2.112 0 0 0 2.157-2.07.016.016 0 0 0 0-.01v-6.93a9.205 9.205 0 0 0-9.334-9.04m-79.36 32.41A22.966 22.966 0 0 1 6.779 6.76a7.254 7.254 0 0 1 10.224 0 7.175 7.175 0 0 1 0 10.18 8.557 8.557 0 0 0 0 12.14 8.609 8.609 0 0 0 13.424-10.6l-5.934 5.91a1.965 1.965 0 0 1-2.767-.07 1.938 1.938 0 0 1 0-2.68l7.475-7.45a2.042 2.042 0 0 1 2.767 0 12.485 12.485 0 0 1 0 17.66 12.62 12.62 0 0 1-17.729 0 12.485 12.485 0 0 1 0-17.66 3.279 3.279 0 0 0 .989-2.34 3.241 3.241 0 0 0-.985-2.33 3.412 3.412 0 0 0-4.714 0 19.045 19.045 0 0 0 .014 27.02 19.257 19.257 0 0 0 27.143-.01A19.112 19.112 0 0 0 23.108 3.91a1.932 1.932 0 0 1-1.946-1.93A1.986 1.986 0 0 1 23.129.01a23 23 0 1 1-.006 46z"/></symbol><symbol preserveAspectRatio="xMinYMid" viewBox="0 0 80 80" id="service1" xmlns="http://www.w3.org/2000/svg"><path fill="#e0edff" d="M78.92 22.77C77.5 11.43 68.56 2.5 57.22 1.08a137.788 137.788 0 0 0-34.45 0C11.43 2.5 2.5 11.43 1.07 22.77.35 28.51 0 34.26 0 40c0 2.03.06 4.06.15 6.09l14.11-14.11H3.32a2.5 2.5 0 0 1 0-5h16.97a2.5 2.5 0 0 1 2.5 2.5v16.97a2.5 2.5 0 0 1-5 0V35.52L.59 52.72c.14 1.5.3 3 .49 4.5.59 4.74 2.51 9.05 5.36 12.58l37.82-37.82H33.32a2.5 2.5 0 0 1 0-5h16.97a2.5 2.5 0 0 1 2.5 2.5v16.97a2.5 2.5 0 0 1-5 0V35.52L9.95 73.36c3.57 2.96 7.97 4.95 12.82 5.56 1.37.17 2.73.32 4.1.45l17.39-17.39H33.32a2.5 2.5 0 0 1 0-5h16.97a2.5 2.5 0 0 1 2.5 2.5v16.97a2.5 2.5 0 0 1-5 0V65.52L33.48 79.83c2.17.1 4.34.17 6.52.17 5.75 0 11.51-.36 17.22-1.08 11.34-1.42 20.28-10.36 21.7-21.7 1.43-11.44 1.43-23.01 0-34.45"/><path fill="#6363b7" d="M50.29 26.98H33.32a2.5 2.5 0 0 0 0 5h10.94L6.44 69.8c1.05 1.3 2.22 2.49 3.51 3.56l37.84-37.84v10.93a2.5 2.5 0 0 0 5 0V29.48a2.5 2.5 0 0 0-2.5-2.5"/><path fill="#6363b7" d="M50.29 56.98H33.32a2.5 2.5 0 0 0 0 5h10.94L26.87 79.37c2.2.21 4.41.35 6.61.46l14.31-14.31v10.93a2.5 2.5 0 0 0 5 0V59.48a2.5 2.5 0 0 0-2.5-2.5M17.79 46.45a2.5 2.5 0 0 0 5 0V29.48a2.5 2.5 0 0 0-2.5-2.5H3.32a2.5 2.5 0 0 0 0 5h10.94L.15 46.09c.1 2.21.23 4.42.44 6.63l17.2-17.2z"/></symbol><symbol preserveAspectRatio="xMinYMid" viewBox="0 0 80 80" id="service10" xmlns="http://www.w3.org/2000/svg"><path fill="#eceff1" d="M22.77 1.07C28.48.36 34.24 0 40 0c5.74 0 11.48.35 17.22 1.07 11.34 1.43 20.28 10.36 21.7 21.7 1.43 11.44 1.43 23.01 0 34.45-1.42 11.34-10.36 20.28-21.7 21.7a137.748 137.748 0 0 1-34.45 0C11.43 77.49 2.5 68.56 1.08 57.22.36 51.51 0 45.76 0 40c0-5.74.35-11.49 1.07-17.23C2.5 11.43 11.43 2.5 22.77 1.08z"/><path stroke="#78909c" fill="none" stroke-width="6" d="M46.35 47.05l7.61 7.61M40.24 23.55v10.63"/><path stroke="#cfd8dc" fill="none" stroke-width="6" d="M34.12 47.05l-7.6 7.61"/><path fill="#78909c" d="M59.32 54.95c2.8 0 5.07 2.27 5.07 5.07 0 2.8-2.27 5.08-5.07 5.08-2.8 0-5.07-2.28-5.07-5.08 0-2.8 2.27-5.07 5.07-5.07"/><path fill="#cfd8dc" d="M21.15 54.95c2.81 0 5.08 2.27 5.08 5.07 0 2.8-2.27 5.08-5.08 5.08-2.8 0-5.07-2.28-5.07-5.08 0-2.8 2.27-5.07 5.07-5.07"/><path fill="#78909c" d="M40 10.51a5.07 5.07 0 0 1 0 10.14c-2.81 0-5.08-2.27-5.08-5.07 0-2.8 2.27-5.07 5.08-5.07M40 36.59c2.8 0 5.07 2.27 5.07 5.08 0 2.8-2.27 5.07-5.07 5.07-2.81 0-5.08-2.27-5.08-5.07 0-2.81 2.27-5.08 5.08-5.08"/></symbol><symbol preserveAspectRatio="xMinYMid" viewBox="0 0 80 80" id="service11" xmlns="http://www.w3.org/2000/svg"><path fill="#fce4ec" d="M22.77 1.08a137.788 137.788 0 0 1 34.45 0C68.56 2.5 77.5 11.43 78.92 22.77c1.43 11.44 1.43 23.01 0 34.45-1.42 11.34-10.36 20.28-21.7 21.7a137.748 137.748 0 0 1-34.45 0C11.43 77.5 2.5 68.56 1.08 57.22.36 51.51 0 45.76 0 40c0-5.74.35-11.49 1.07-17.23C2.5 11.43 11.43 2.5 22.77 1.08z"/><path fill="#f8bbd0" d="M54.25 19.07c0-2.2-1.8-3.99-4.01-3.99H30.23c-2.21 0-4 1.79-4 3.99v39.85c0 2.2 1.79 3.99 4 3.99h20.01c2.21 0 4.01-1.79 4.01-3.99z"/><path fill="#ec407a" d="M37.23 19.07h6.01c.55 0 1 .45 1 1s-.45.99-1 .99h-6.01c-.55 0-1-.44-1-.99s.45-1 1-1M40.24 58.92a1.99 1.99 0 1 1 0-3.98c1.1 0 2 .89 2 1.99s-.9 1.99-2 1.99M50.24 25H30.23v27.95h20.01z"/></symbol><symbol preserveAspectRatio="xMinYMid" viewBox="0 0 80 80" id="service12" xmlns="http://www.w3.org/2000/svg"><path fill="#b2dfdb" d="M22.77 1.07C28.48.36 34.24 0 40 0c5.74 0 11.48.35 17.22 1.07 11.34 1.43 20.28 10.36 21.7 21.7 1.43 11.44 1.43 23.01 0 34.45-1.42 11.34-10.36 20.28-21.7 21.7a137.748 137.748 0 0 1-34.45 0C11.43 77.49 2.5 68.56 1.08 57.22.36 51.51 0 45.76 0 40c0-5.74.36-11.49 1.08-17.23A24.987 24.987 0 0 1 22.77 1.08z"/><path fill="#26a69a" d="M26.51 43.22l10.87-5.39-11.14-9.51 3.44-1.71 18.05 6.1 8.62-4.27c2.27-1.14 6.02-.83 6.88.89.13.27.19.58.19.91 0 1.76-1.77 4.15-3.66 5.1l-8.62 4.27-6.09 18.04-3.45 1.7-.8-14.63-10.88 5.39-2.24 5.41-2.42 1.19-.84-8.17-5.99-5.62 2.42-1.2z"/></symbol><symbol preserveAspectRatio="xMinYMid" viewBox="0 0 80 80" id="service2" xmlns="http://www.w3.org/2000/svg"><path fill="#e8faf0" d="M22.77 1.08a137.788 137.788 0 0 1 34.45 0C68.56 2.5 77.5 11.43 78.92 22.77c1.43 11.44 1.43 23.01 0 34.45-1.42 11.34-10.36 20.28-21.7 21.7a137.748 137.748 0 0 1-34.45 0C11.43 77.5 2.5 68.56 1.08 57.22.36 51.51 0 45.76 0 40c0-5.74.35-11.49 1.07-17.23C2.5 11.43 11.43 2.5 22.77 1.08z"/><path fill="#27cf68" d="M41.64 56.07v3.43h-3.29v-3.25c-3.4-.06-6.92-.86-9.86-2.36l1.5-5.34c3.14 1.2 7.32 2.48 10.6 1.75 3.77-.84 4.54-4.68.37-6.53-3.06-1.41-12.41-2.62-12.41-10.54 0-4.43 3.41-8.4 9.8-9.27V20.5h3.29v3.3c2.38.07 5.04.48 8.02 1.37l-1.19 5.35c-2.52-.88-5.31-1.67-8.02-1.51-4.9.28-5.33 4.47-1.91 6.23 5.62 2.62 12.95 4.55 12.95 11.53.01 5.58-4.41 8.55-9.85 9.3"/></symbol><symbol preserveAspectRatio="xMinYMid" viewBox="0 0 80 80" id="service3" xmlns="http://www.w3.org/2000/svg"><path fill="#cceafd" d="M22.77 1.08a137.788 137.788 0 0 1 34.45 0C68.56 2.5 77.5 11.43 78.92 22.77c1.43 11.44 1.43 23.01 0 34.45-1.42 11.34-10.36 20.28-21.7 21.7a137.748 137.748 0 0 1-34.45 0C11.43 77.5 2.5 68.56 1.08 57.22.36 51.51 0 45.76 0 40c0-5.74.35-11.49 1.07-17.23C2.5 11.43 11.43 2.5 22.77 1.08z"/><path fill="#0095f7" d="M33.87 59.39L15.5 41.57l7.58-7.58 10.79 10.23L56.91 20.6l7.59 7.58z"/></symbol><symbol preserveAspectRatio="xMinYMid" viewBox="0 0 80 80" id="service4" xmlns="http://www.w3.org/2000/svg"><path fill="#fbe9e7" d="M22.77 1.08a137.788 137.788 0 0 1 34.45 0C68.56 2.5 77.5 11.43 78.92 22.77c1.43 11.44 1.43 23.01 0 34.45-1.42 11.34-10.36 20.28-21.7 21.7a137.748 137.748 0 0 1-34.45 0C11.43 77.5 2.5 68.56 1.08 57.22.36 51.51 0 45.76 0 40c0-5.74.35-11.49 1.07-17.23C2.5 11.43 11.43 2.5 22.77 1.08z"/><path fill="#ff7043" d="M40 18.78c4.72 0 8.56 3.83 8.56 8.56 0 4.72-3.84 8.56-8.56 8.56-4.73 0-8.57-3.84-8.57-8.56 0-4.73 3.84-8.56 8.57-8.56"/><path fill="#ff7043" d="M32.15 39.1h15.69c2.76 0 5 2.24 5 5v12.12c0 2.76-2.24 5-5 5H32.15c-2.76 0-4.99-2.24-4.99-5V44.1c0-2.76 2.23-5 4.99-5"/></symbol><symbol preserveAspectRatio="xMinYMid" viewBox="0 0 80 80" id="service5" xmlns="http://www.w3.org/2000/svg"><path fill="#cceafd" d="M22.77 1.08a137.788 137.788 0 0 1 34.45 0C68.56 2.5 77.5 11.43 78.92 22.77c1.43 11.44 1.43 23.01 0 34.45-1.42 11.34-10.36 20.28-21.7 21.7a137.748 137.748 0 0 1-34.45 0C11.43 77.5 2.5 68.56 1.08 57.22.36 51.51 0 45.76 0 40c0-5.74.35-11.49 1.07-17.23C2.5 11.43 11.43 2.5 22.77 1.08z"/><path fill="#0095f7" d="M18.5 31.78c4.8 0 8.69 3.9 8.69 8.7 0 4.8-3.89 8.7-8.69 8.7a8.7 8.7 0 0 1-8.7-8.7 8.7 8.7 0 0 1 8.7-8.7"/></symbol><symbol preserveAspectRatio="xMinYMid" viewBox="0 0 80 80" id="service6" xmlns="http://www.w3.org/2000/svg"><path fill="#f3e5f5" d="M22.77 1.08a137.788 137.788 0 0 1 34.45 0C68.56 2.5 77.5 11.43 78.92 22.77c1.43 11.44 1.43 23.01 0 34.45-1.42 11.34-10.36 20.28-21.7 21.7a137.748 137.748 0 0 1-34.45 0C11.43 77.5 2.5 68.56 1.08 57.22.36 51.51 0 45.76 0 40c0-5.74.35-11.49 1.07-17.23C2.5 11.43 11.43 2.5 22.77 1.08z"/><path fill="#e1bee7" d="M15.13 59.54l12.56 5.14v-40.8l-12.56-5.14zM40.25 59.54l12.56 5.14v-40.8l-12.56-5.14z"/><path fill="#ce93d8" d="M40.25 59.54l-12.56 5.14v-40.8l12.56-5.14zM65.37 59.54l-12.56 5.14v-40.8l12.56-5.14z"/><path fill="#ab47bc" d="M43.79 41.27l-1.87.14.27 2.59 1.83-.31zm-1.04 6.7l1.81.04-.09-2.62-1.85.22zm6.42-11.68l-.44-1.61-2.74.92.71 1.56zm1.73-.28l2.72-.58-.35-1.63-2.71.58zm-7.16 13.96l-1.51-.87-1.55 2.04 1.45 1.05zM45.55 38l-1.44-.98-1.5 2.28 1.58.78zM34.99 54.22l.61-1.58-2.47-.92-.81 1.53zm-7.32-9.95l1.36-1.14-2.17-1.76-1.13 1.35zm-3.19-2.05l.31-1.68-2.86-.08-.01 1.71zm6.14 9.69l1.6-.94-1.29-2.02-1.74.71zm-1.81-4.05l1.81-.38-.52-2.45-1.81.39zm11.32 5.61l-.62-1.57-2.59.72.35 1.63zm16.33-15.49l2.12-3.26 3.27 2.11.9-1.38-3.27-2.12 2.12-3.26-1.38-.9-2.12 3.26-3.26-2.12-.9 1.39 3.26 2.12-2.12 3.26z"/></symbol><symbol preserveAspectRatio="xMinYMid" viewBox="0 0 80 80" id="service7" xmlns="http://www.w3.org/2000/svg"><path fill="#f3efff" d="M22.77 1.08a137.788 137.788 0 0 1 34.45 0C68.56 2.5 77.5 11.43 78.92 22.77c1.43 11.44 1.43 23.01 0 34.45-1.42 11.34-10.36 20.28-21.7 21.7a137.748 137.748 0 0 1-34.45 0C11.43 77.5 2.5 68.56 1.08 57.22.36 51.51 0 45.76 0 40c0-5.74.35-11.49 1.07-17.23C2.5 11.43 11.43 2.5 22.77 1.08z"/><path fill="#c8b7ff" d="M62.75 43.27c.73.13.73 1.2 0 1.34-6.88 1.3-21.81 4.01-23.62 4.01-2.59 0-4.69-2.1-4.69-4.7 0-1.84 2.78-19.65 4.06-26.85.12-.7 1.12-.66 1.23.05l3.56 22.5z"/></symbol><symbol preserveAspectRatio="xMinYMid" viewBox="0 0 80 80" id="service8" xmlns="http://www.w3.org/2000/svg"><path fill="#fff5d6" d="M22.77 1.08a137.788 137.788 0 0 1 34.45 0C68.56 2.5 77.5 11.43 78.92 22.77c1.43 11.44 1.43 23.01 0 34.45-1.42 11.34-10.36 20.28-21.7 21.7a137.748 137.748 0 0 1-34.45 0C11.43 77.5 2.5 68.56 1.08 57.22.36 51.51 0 45.76 0 40c0-5.74.35-11.49 1.07-17.23C2.5 11.43 11.43 2.5 22.77 1.08z"/><path fill="#ffca28" d="M42.81 12.98c1.71-2.78 5.56-.63 4.62 2.6l-5.68 18.37h10.43c2.17 0 3.39 2.78 2.08 4.71L34.83 67.28c-1.82 2.69-5.57.37-4.52-2.79l6.2-19.18h-8.7c-2.11 0-3.35-2.67-2.15-4.61l17.16-27.72z"/><path fill="#ffca28" d="M45.74 16.64l-15.62 26.9h11.46l-6.94 22.45 17.69-27.77H39.84"/></symbol><symbol preserveAspectRatio="xMinYMid" viewBox="0 0 80 80" id="service9" xmlns="http://www.w3.org/2000/svg"><path fill="#e8f5e9" d="M22.77 1.08a137.788 137.788 0 0 1 34.45 0C68.56 2.5 77.5 11.43 78.92 22.77c1.43 11.44 1.43 23.01 0 34.45-1.42 11.34-10.36 20.28-21.7 21.7a137.748 137.748 0 0 1-34.45 0C11.43 77.5 2.5 68.56 1.08 57.22.36 51.51 0 45.76 0 40c0-5.74.35-11.49 1.07-17.23C2.5 11.43 11.43 2.5 22.77 1.08z"/><path fill="#a5d6a7" d="M40 18.78c4.72 0 8.56 3.83 8.56 8.56 0 4.72-3.84 8.56-8.56 8.56-4.73 0-8.57-3.84-8.57-8.56 0-4.73 3.84-8.56 8.57-8.56"/><path fill="#66bb6a" d="M32.15 39.1h15.69c2.76 0 5 2.24 5 5v12.12c0 2.76-2.24 5-5 5H32.15c-2.76 0-4.99-2.24-4.99-5V44.1c0-2.76 2.23-5 4.99-5"/></symbol><symbol preserveAspectRatio="xMinYMid" viewBox="0 0 17 14" id="twitter" xmlns="http://www.w3.org/2000/svg"><path class="tcls-1" d="M16.531.25a6.864 6.864 0 0 1-2.216.86A3.442 3.442 0 0 0 11.77 0a3.509 3.509 0 0 0-3.488 3.53 3.649 3.649 0 0 0 .09.81A9.869 9.869 0 0 1 1.184.64a3.572 3.572 0 0 0 1.079 4.72 3.515 3.515 0 0 1-1.579-.44v.04a3.536 3.536 0 0 0 2.8 3.47 3.47 3.47 0 0 1-.918.12 3.544 3.544 0 0 1-.657-.06 3.5 3.5 0 0 0 3.257 2.45 6.933 6.933 0 0 1-4.331 1.52 7.6 7.6 0 0 1-.832-.05A9.8 9.8 0 0 0 5.349 14a9.93 9.93 0 0 0 9.923-10.06l-.012-.46a6.951 6.951 0 0 0 1.743-1.83 7.088 7.088 0 0 1-2 .56A3.539 3.539 0 0 0 16.531.25z"/></symbol></svg>