<svg xmlns="http://www.w3.org/2000/svg" width="198" height="188"><defs><clipPath id="a"><path clip-rule="evenodd" d="M-154-1098h1440v6794H-154z"/></clipPath></defs><g clip-path="url(#a)"><path fill="#FFF" d="M140.054 57.86l-.49 84.65-72.385 14.042.488-84.656 72.387-14.036z"/></g><defs><clipPath id="b"><path d="M139.565 142.51l.489-84.65-72.387 14.036-.488 84.656 72.386-14.042z" clip-rule="evenodd"/></clipPath></defs><g clip-path="url(#b)"><path fill="none" stroke="#000" stroke-width="2" d="M140.054 57.86l-.49 84.65-72.385 14.042.488-84.656 72.387-14.036z"/></g><defs><clipPath id="c"><path clip-rule="evenodd" d="M-154-1098h1440v6794H-154z"/></clipPath></defs><g clip-path="url(#c)"><path fill="#FFF" d="M95.466 34.198L23.084 48.232l.557.306-.486 84.354 44.59 23.668.486-84.483 71.83-14.213-44.595-23.666z" fill-rule="evenodd"/></g><defs><linearGradient id="e" gradientUnits="userSpaceOnUse" x1="-28.081" y1="5.43" x2="27.123" y2="5.43"><stop offset="0" stop-color="#FB3C2A"/><stop offset=".507" stop-color="#D72583"/><stop offset="1" stop-color="#6130C9"/></linearGradient><clipPath id="d"><path clip-rule="evenodd" d="M-154-1098h1440v6794H-154z"/></clipPath></defs><g clip-path="url(#d)"><path fill="url(#e)" transform="translate(81.37 36.65)" d="M0 0v5.84c0 2.798 6.12 5.02 13.562 5.02 7.525 0 13.561-2.222 13.561-5.02V0H0z"/></g><defs><clipPath id="f"><path clip-rule="evenodd" d="M-154-1098h1440v6794H-154z"/></clipPath></defs><g clip-path="url(#f)"><path fill="#FFF" d="M94.931 41.4c7.49 0 13.562-2.278 13.562-5.09 0-2.81-6.072-5.09-13.562-5.09-7.49 0-13.561 2.28-13.561 5.09 0 2.812 6.072 5.09 13.561 5.09z"/></g><defs><linearGradient id="h" gradientUnits="userSpaceOnUse" x1="-28.081" y1="5.43" x2="27.123" y2="5.43"><stop offset="0" stop-color="#FB3C2A"/><stop offset=".507" stop-color="#D72583"/><stop offset="1" stop-color="#6130C9"/></linearGradient><clipPath id="g"><path clip-rule="evenodd" d="M-154-1098h1440v6794H-154z"/></clipPath></defs><g clip-path="url(#g)"><path fill="url(#h)" transform="translate(54.247 48.867)" d="M0 0v5.84c0 2.798 6.12 5.02 13.562 5.02 7.525 0 13.561-2.222 13.561-5.02V0H0z"/></g><defs><clipPath id="i"><path clip-rule="evenodd" d="M-154-1098h1440v6794H-154z"/></clipPath></defs><g clip-path="url(#i)"><path fill="#FFF" d="M67.808 53.617c7.49 0 13.562-2.279 13.562-5.09s-6.072-5.09-13.562-5.09c-7.49 0-13.561 2.279-13.561 5.09s6.071 5.09 13.561 5.09z"/></g><defs><linearGradient id="k" gradientUnits="userSpaceOnUse" x1="-28.081" y1="5.43" x2="27.123" y2="5.43"><stop offset="0" stop-color="#FB3C2A"/><stop offset=".507" stop-color="#D72583"/><stop offset="1" stop-color="#6130C9"/></linearGradient><clipPath id="j"><path clip-rule="evenodd" d="M-154-1098h1440v6794H-154z"/></clipPath></defs><g clip-path="url(#j)"><path fill="url(#k)" transform="translate(95.61 57.011)" d="M0 0v5.84c0 2.798 6.12 5.02 13.562 5.02 7.525 0 13.561-2.222 13.561-5.02V0H0z"/></g><defs><clipPath id="l"><path clip-rule="evenodd" d="M-154-1098h1440v6794H-154z"/></clipPath></defs><g clip-path="url(#l)"><path fill="#FFF" d="M109.171 61.762c7.49 0 13.562-2.28 13.562-5.09 0-2.812-6.072-5.09-13.562-5.09-7.49 0-13.561 2.278-13.561 5.09 0 2.81 6.071 5.09 13.561 5.09z"/></g><defs><linearGradient id="n" gradientUnits="userSpaceOnUse" x1="-28.081" y1="5.43" x2="27.123" y2="5.43"><stop offset="0" stop-color="#FB3C2A"/><stop offset=".507" stop-color="#D72583"/><stop offset="1" stop-color="#6130C9"/></linearGradient><clipPath id="m"><path clip-rule="evenodd" d="M-154-1098h1440v6794H-154z"/></clipPath></defs><g clip-path="url(#m)"><path fill="url(#n)" transform="translate(121.377 43.437)" d="M0 0v5.84c0 2.798 6.12 5.02 13.562 5.02 7.525 0 13.561-2.222 13.561-5.02V0H0z"/></g><defs><clipPath id="o"><path clip-rule="evenodd" d="M-154-1098h1440v6794H-154z"/></clipPath></defs><g clip-path="url(#o)"><path fill="#FFF" d="M134.939 48.188c7.49 0 13.561-2.28 13.561-5.09 0-2.812-6.071-5.09-13.561-5.09s-13.562 2.278-13.562 5.09c0 2.81 6.072 5.09 13.562 5.09z"/></g></svg>