<svg width="448" height="446" viewBox="0 0 448 446" xmlns="http://www.w3.org/2000/svg"><defs><linearGradient x1="0%" y1="50%" x2="100%" y2="50%" id="B"><stop stop-color="#5452A3" offset="0%"/><stop stop-color="#8456A3" offset="100%"/></linearGradient><linearGradient x1="-11.045%" y1="19.605%" x2="-91.723%" y2="-19.435%" id="a"><stop stop-color="#342873" offset="0%"/><stop stop-color="#5952A3" offset="100%"/></linearGradient><linearGradient x1="50%" y1=".146%" x2="50%" y2="97.596%" id="e"><stop stop-color="#FF8617" offset="0%"/><stop stop-color="#8D55F7" offset="100%"/></linearGradient><linearGradient x1="50%" y1="0%" x2="50%" y2="98.897%" id="f"><stop stop-color="#8D55F7" offset="0%"/><stop stop-color="#FE8517" offset="100%"/></linearGradient><linearGradient x1="96.935%" y1="46.916%" x2="-55.517%" y2="56.269%" id="g"><stop stop-color="#5A64AD" offset="0%"/><stop stop-color="#5F68AF" offset="18%"/><stop stop-color="#6D75B7" offset="39%"/><stop stop-color="#858AC2" offset="62%"/><stop stop-color="#A6A8D3" offset="85%"/><stop stop-color="#BEBDDF" offset="100%"/></linearGradient><linearGradient x1="50.938%" y1="52.784%" x2="-21.007%" y2="-4.701%" id="h"><stop stop-color="#5A64AD" offset="0%"/><stop stop-color="#5F68AF" offset="18%"/><stop stop-color="#6D75B7" offset="39%"/><stop stop-color="#858AC2" offset="62%"/><stop stop-color="#A6A8D3" offset="85%"/><stop stop-color="#BEBDDF" offset="100%"/></linearGradient><linearGradient x1="76.55%" y1="57.974%" x2="-17.614%" y2="30.292%" id="n"><stop stop-color="#342873" offset="0%"/><stop stop-color="#5952A3" offset="100%"/></linearGradient><linearGradient x1="62.592%" y1="56.274%" x2="9.345%" y2="25.761%" id="o"><stop stop-color="#342873" offset="0%"/><stop stop-color="#5952A3" offset="100%"/></linearGradient><linearGradient x1="0%" y1="50.004%" x2="100.005%" y2="50.004%" id="t"><stop stop-color="#6DCACE" offset="0%"/><stop stop-color="#6CC5CC" offset="18%"/><stop stop-color="#69B7C8" offset="39%"/><stop stop-color="#659FC0" offset="61%"/><stop stop-color="#5F7EB5" offset="84%"/><stop stop-color="#5A64AD" offset="100%"/></linearGradient><linearGradient x1="1402.799%" y1="23.675%" x2="1325.548%" y2="-49.145%" id="b"><stop stop-color="#342873" offset="0%"/><stop stop-color="#5952A3" offset="100%"/></linearGradient><linearGradient x1="-.118%" y1="49.958%" x2="100.02%" y2="49.958%" id="z"><stop stop-color="#E49B66" offset="0%"/><stop stop-color="#8456A3" offset="25%"/><stop stop-color="#47429A" offset="56%"/></linearGradient><linearGradient x1="-.016%" y1="50.015%" x2="100.032%" y2="50.015%" id="A"><stop stop-color="#5452A3" offset="0%"/><stop stop-color="#8456A3" offset="100%"/></linearGradient><linearGradient x1="460.071%" y1="62.018%" x2="414.244%" y2="37.358%" id="c"><stop stop-color="#342873" offset="0%"/><stop stop-color="#5952A3" offset="100%"/></linearGradient><linearGradient x1="-.008%" y1="49.904%" x2="126.068%" y2="49.904%" id="C"><stop stop-color="#241F5C" offset="0%"/><stop stop-color="#26215E" offset="23%"/><stop stop-color="#2E2666" offset="35%"/><stop stop-color="#3A3074" offset="45%"/><stop stop-color="#4C3E86" offset="53%"/><stop stop-color="#63509F" offset="60%"/><stop stop-color="#6652A2" offset="61%"/><stop stop-color="#826193" offset="65%"/><stop stop-color="#A7747F" offset="72%"/><stop stop-color="#C48370" offset="79%"/><stop stop-color="#D88E65" offset="86%"/><stop stop-color="#E5955E" offset="93%"/><stop stop-color="#E9975C" offset="100%"/></linearGradient><linearGradient x1="-8.89%" y1="51%" x2="122.024%" y2="51%" id="E"><stop stop-color="#241F5C" offset="0%"/><stop stop-color="#26215E" offset="23%"/><stop stop-color="#2E2666" offset="35%"/><stop stop-color="#3A3074" offset="45%"/><stop stop-color="#4C3E86" offset="53%"/><stop stop-color="#63509F" offset="60%"/><stop stop-color="#6652A2" offset="61%"/><stop stop-color="#826193" offset="65%"/><stop stop-color="#A7747F" offset="72%"/><stop stop-color="#C48370" offset="79%"/><stop stop-color="#D88E65" offset="86%"/><stop stop-color="#E5955E" offset="93%"/><stop stop-color="#E9975C" offset="100%"/></linearGradient><linearGradient x1="-59.837%" y1="49.853%" x2="-777.367%" y2="49.853%" id="F"><stop stop-color="#342873" offset="0%"/><stop stop-color="#5952A3" offset="100%"/></linearGradient><linearGradient x1="-18.246%" y1="50.031%" x2="-118.248%" y2="50.031%" id="G"><stop stop-color="#342873" offset="0%"/><stop stop-color="#5952A3" offset="100%"/></linearGradient><linearGradient x1="203.185%" y1="50.003%" x2="-180.197%" y2="50.003%" id="H"><stop stop-color="#342873" offset="0%"/><stop stop-color="#5952A3" offset="100%"/></linearGradient><linearGradient x1="8.574%" y1="69.267%" x2="113.78%" y2="28.617%" id="K"><stop stop-color="#8E55EF" offset="0%"/><stop stop-color="#8A55F4" offset="100%"/></linearGradient><linearGradient x1="-.118%" y1="49.803%" x2="99.999%" y2="49.803%" id="M"><stop stop-color="#E49B66" offset="0%"/><stop stop-color="#8456A3" offset="25%"/><stop stop-color="#47429A" offset="56%"/></linearGradient><linearGradient x1=".032%" y1="49.985%" x2="99.968%" y2="49.985%" id="N"><stop stop-color="#5452A3" offset="0%"/><stop stop-color="#8456A3" offset="100%"/></linearGradient><linearGradient x1="0%" y1="50%" x2="99.936%" y2="50%" id="O"><stop stop-color="#5452A3" offset="0%"/><stop stop-color="#8456A3" offset="100%"/></linearGradient><linearGradient x1="-.136%" y1="49.978%" x2="125.998%" y2="49.978%" id="P"><stop stop-color="#241F5C" offset="0%"/><stop stop-color="#26215E" offset="23%"/><stop stop-color="#2E2666" offset="35%"/><stop stop-color="#3A3074" offset="45%"/><stop stop-color="#4C3E86" offset="53%"/><stop stop-color="#63509F" offset="60%"/><stop stop-color="#6652A2" offset="61%"/><stop stop-color="#826193" offset="65%"/><stop stop-color="#A7747F" offset="72%"/><stop stop-color="#C48370" offset="79%"/><stop stop-color="#D88E65" offset="86%"/><stop stop-color="#E5955E" offset="93%"/><stop stop-color="#E9975C" offset="100%"/></linearGradient><linearGradient x1="-8.484%" y1="51.5%" x2="122.561%" y2="51.5%" id="R"><stop stop-color="#241F5C" offset="0%"/><stop stop-color="#26215E" offset="23%"/><stop stop-color="#2E2666" offset="35%"/><stop stop-color="#3A3074" offset="45%"/><stop stop-color="#4C3E86" offset="53%"/><stop stop-color="#63509F" offset="60%"/><stop stop-color="#6652A2" offset="61%"/><stop stop-color="#826193" offset="65%"/><stop stop-color="#A7747F" offset="72%"/><stop stop-color="#C48370" offset="79%"/><stop stop-color="#D88E65" offset="86%"/><stop stop-color="#E5955E" offset="93%"/><stop stop-color="#E9975C" offset="100%"/></linearGradient><linearGradient x1="100.037%" y1="49.988%" x2="-.182%" y2="49.988%" id="V"><stop stop-color="#5A64AD" offset="0%"/><stop stop-color="#5F68AF" offset="18%"/><stop stop-color="#6D75B7" offset="39%"/><stop stop-color="#858AC2" offset="62%"/><stop stop-color="#A6A8D3" offset="85%"/><stop stop-color="#BEBDDF" offset="100%"/></linearGradient><radialGradient cx="-38.069%" cy="-43.569%" fx="-38.069%" fy="-43.569%" r="294.009%" gradientTransform="matrix(.57485 0 0 1 -.162 0)" id="k"><stop stop-color="#E49B66" offset="0%"/><stop stop-color="#8456A3" offset="40%"/><stop stop-color="#8256A3" offset="42%"/><stop stop-color="#5E52A3" offset="73%"/><stop stop-color="#47429A" offset="100%"/></radialGradient><radialGradient cx="-2.336%" cy="-3.387%" fx="-2.336%" fy="-3.387%" r="163.744%" gradientTransform="matrix(1 0 0 .59216 0 -.014)" id="l"><stop stop-color="#E49B66" offset="0%"/><stop stop-color="#8456A3" offset="40%"/><stop stop-color="#8256A3" offset="42%"/><stop stop-color="#5E52A3" offset="73%"/><stop stop-color="#47429A" offset="100%"/></radialGradient><radialGradient cx="-179.652%" cy="1.886%" fx="-179.652%" fy="1.886%" r="518.176%" gradientTransform="matrix(1 0 0 .40484 0 .011)" id="m"><stop stop-color="#E49B66" offset="0%"/><stop stop-color="#8456A3" offset="28%"/><stop stop-color="#8256A3" offset="29%"/><stop stop-color="#5E52A3" offset="40%"/><stop stop-color="#262668" offset="54%"/></radialGradient><radialGradient cx="-6.132%" cy="-6.07%" fx="-6.132%" fy="-6.07%" r="164.421%" gradientTransform="matrix(1 0 0 .85127 0 -.009)" id="W"><stop stop-color="#FE8517" offset="0%"/><stop stop-color="#8D55F7" offset="100%"/></radialGradient><radialGradient cx="-13.282%" cy="9.123%" fx="-13.282%" fy="9.123%" r="322.071%" gradientTransform="matrix(.57454 0 0 1 -.057 0)" id="D"><stop stop-color="#E49B66" offset="0%"/><stop stop-color="#8456A3" offset="25%"/><stop stop-color="#47429A" offset="74%"/></radialGradient><radialGradient cx="1.411%" cy="-.564%" fx="1.411%" fy="-.564%" r="257.338%" gradientTransform="matrix(1 0 0 .62467 0 -.002)" id="d"><stop stop-color="#FF8617" offset="0%"/><stop stop-color="#8D55F7" offset="100%"/></radialGradient><radialGradient cx="-46.215%" cy="50.264%" fx="-46.215%" fy="50.264%" r="115.695%" gradientTransform="matrix(.91244 0 0 1 -.04 0)" id="p"><stop stop-color="#E49B66" offset="0%"/><stop stop-color="#8456A3" offset="47%"/><stop stop-color="#8256A3" offset="49%"/><stop stop-color="#5E52A3" offset="73%"/><stop stop-color="#47429A" offset="100%"/></radialGradient><radialGradient cx="64.671%" cy="87.599%" fx="64.671%" fy="87.599%" r="108.291%" gradientTransform="matrix(-.22535 -.96656 .97957 -.29579 -.066 1.76)" id="q"><stop stop-color="#8B54F5" offset="0%"/><stop stop-color="#FE8517" offset="100%"/></radialGradient><radialGradient cx="18.452%" cy="-19.665%" fx="18.452%" fy="-19.665%" r="186.655%" gradientTransform="matrix(.67426 0 0 1 .06 0)" id="r"><stop stop-color="#E49B66" offset="0%"/><stop stop-color="#8456A3" offset="28%"/><stop stop-color="#8256A3" offset="29%"/><stop stop-color="#5E52A3" offset="40%"/><stop stop-color="#262668" offset="54%"/></radialGradient><radialGradient cx="50%" cy="100%" fx="50%" fy="100%" r="333.295%" gradientTransform="matrix(.07712 -.23616 2.10315 .03853 -1.642 1.08)" id="I"><stop stop-color="#8B54F5" offset="0%"/><stop stop-color="#FE8517" offset="100%"/></radialGradient><radialGradient cx="3.651%" cy=".333%" fx="3.651%" fy=".333%" r="189.284%" gradientTransform="scale(1 .55762) rotate(70.783 .035 .005)" id="J"><stop stop-color="#FE8517" offset="0%"/><stop stop-color="#8B54F5" offset="100%"/></radialGradient><radialGradient cx="-.369%" cy="-35.351%" fx="-.369%" fy="-35.351%" r="143.718%" gradientTransform="matrix(.57484 0 0 1 -.002 0)" id="s"><stop stop-color="#E49B66" offset="0%"/><stop stop-color="#8456A3" offset="40%"/><stop stop-color="#8256A3" offset="42%"/><stop stop-color="#5E52A3" offset="73%"/><stop stop-color="#47429A" offset="100%"/></radialGradient><radialGradient cx="-8.251%" cy="24.194%" fx="-8.251%" fy="24.194%" r="134.471%" gradientTransform="matrix(.9678 .19191 -.2517 .7379 .058 .08)" id="L"><stop stop-color="#FE8517" offset="0%"/><stop stop-color="#8D55F7" offset="100%"/></radialGradient><radialGradient cx="-15.744%" cy="24.683%" fx="-15.744%" fy="24.683%" r="228.902%" gradientTransform="matrix(.57532 0 0 1 -.067 0)" id="i"><stop stop-color="#E49B66" offset="0%"/><stop stop-color="#8456A3" offset="40%"/><stop stop-color="#8256A3" offset="42%"/><stop stop-color="#5E52A3" offset="73%"/><stop stop-color="#47429A" offset="100%"/></radialGradient><radialGradient cx="-1.11%" cy="2.694%" fx="-1.11%" fy="2.694%" r="198.477%" gradientTransform="matrix(.40528 0 0 1 -.007 0)" id="u"><stop stop-color="#E49B66" offset="0%"/><stop stop-color="#8456A3" offset="40%"/><stop stop-color="#8256A3" offset="42%"/><stop stop-color="#5E52A3" offset="73%"/><stop stop-color="#47429A" offset="100%"/></radialGradient><radialGradient cx="-5.456%" cy="23.237%" fx="-5.456%" fy="23.237%" r="193.999%" gradientTransform="matrix(.57526 0 0 1 -.023 0)" id="v"><stop stop-color="#FE8517" offset="0%"/><stop stop-color="#8D55F7" offset="100%"/></radialGradient><radialGradient cx="-164.875%" cy="-14.243%" fx="-164.875%" fy="-14.243%" r="385.975%" gradientTransform="matrix(1 0 0 .7644 0 -.034)" id="w"><stop stop-color="#E49B66" offset="0%"/><stop stop-color="#8456A3" offset="47%"/><stop stop-color="#8256A3" offset="49%"/><stop stop-color="#5E52A3" offset="73%"/><stop stop-color="#544CA0" offset="86%"/><stop stop-color="#423996" offset="100%"/></radialGradient><radialGradient cx="-13.449%" cy="9.148%" fx="-13.449%" fy="9.148%" r="322.031%" gradientTransform="matrix(.57525 0 0 1 -.057 0)" id="Q"><stop stop-color="#E49B66" offset="0%"/><stop stop-color="#8456A3" offset="25%"/><stop stop-color="#47429A" offset="74%"/></radialGradient><radialGradient cx="19.885%" cy="130.098%" fx="19.885%" fy="130.098%" r="146.945%" gradientTransform="matrix(.37627 -.92398 .9091 .38244 -1.059 .987)" id="x"><stop stop-color="#8B54F5" offset="0%"/><stop stop-color="#FE8517" offset="100%"/></radialGradient><radialGradient cx="-1.73%" cy="36.673%" fx="-1.73%" fy="36.673%" r="139.53%" gradientTransform="matrix(-.56137 0 0 -1 -.027 .733)" id="S"><stop stop-color="#E49B66" offset="0%"/><stop stop-color="#8456A3" offset="40%"/><stop stop-color="#8256A3" offset="42%"/><stop stop-color="#5E52A3" offset="73%"/><stop stop-color="#47429A" offset="100%"/></radialGradient><radialGradient cx="-17.623%" cy="53.627%" fx="-17.623%" fy="53.627%" r="212.147%" gradientTransform="matrix(-.57542 0 0 -1 -.278 1.073)" id="T"><stop stop-color="#E49B66" offset="0%"/><stop stop-color="#8456A3" offset="40%"/><stop stop-color="#8256A3" offset="42%"/><stop stop-color="#5E52A3" offset="73%"/><stop stop-color="#47429A" offset="100%"/></radialGradient><radialGradient cx="1.919%" cy="-7.529%" fx="1.919%" fy="-7.529%" r="139.582%" gradientTransform="matrix(-1 0 0 -.847 .038 -.14)" id="U"><stop stop-color="#E49B66" offset="0%"/><stop stop-color="#8456A3" offset="40%"/><stop stop-color="#8256A3" offset="42%"/><stop stop-color="#5E52A3" offset="73%"/><stop stop-color="#47429A" offset="100%"/></radialGradient><radialGradient cx="-20.485%" cy="-29.755%" fx="-20.485%" fy="-29.755%" r="114.452%" gradientTransform="matrix(.67426 0 0 1 -.067 0)" id="j"><stop stop-color="#E49B66" offset="0%"/><stop stop-color="#8456A3" offset="40%"/><stop stop-color="#8256A3" offset="42%"/><stop stop-color="#5E52A3" offset="73%"/><stop stop-color="#47429A" offset="100%"/></radialGradient><radialGradient cx="-8.251%" cy="24.152%" fx="-8.251%" fy="24.152%" r="134.479%" gradientTransform="scale(1 .76245) rotate(14.602 -.376 .28)" id="y"><stop stop-color="#FE8517" offset="0%"/><stop stop-color="#8D55F7" offset="100%"/></radialGradient></defs><g fill="none" fill-rule="evenodd"><ellipse fill="#0F1026" fill-rule="nonzero" opacity=".4" cx="208.456" cy="337.963" rx="60.019" ry="34.518"/><path d="M188.51 312.617s-1.298 1.294-2.661 2.95c-1.364 1.656-5.195 3.882-6.766 4.826-1.571.944-8.947 6.469-10.48 11.98-1.531 5.512 3.715 6.185 9.09 5.176 5.377-1.01 10.39-5.874 11.83-7.647 1.442-1.772 6.493-5.822 13.116-9.224 6.622-3.403 2.597-7.957 2.597-7.957l-16.725-.104z" fill="url(#a)" fill-rule="nonzero"/><path d="M237.869 324.468a20.355 20.355 0 011.389 5.603c.312 3.156.753 10 .909 12.006a16.852 16.852 0 01-3.298 11.58c-3.532 4.696-5.363 6.546-10.064 4.696-4.7-1.85-4.584-9.704-3.753-13.74a109.892 109.892 0 001.506-14.038c.024-1.02.15-2.033.377-3.027l12.934-3.08z" fill="url(#b)" fill-rule="nonzero"/><path d="M172.292 219.905s1 36.032 9.427 55.167a139.026 139.026 0 016.83 36.847 7.132 7.132 0 00.585 6.249c1.974 2.807 14.349 5.369 16.388-3.882 2.038-9.25 1.298-26.458-.987-33.638-2.286-7.18.805-27.014.805-27.014s3.376 2.16 7.791 16.392c4.415 14.232 7.688 19.665 9.22 23.599 1.298 3.299 2.467 20.7 2.246 33.224a6.33 6.33 0 002.381 5.074 6.38 6.38 0 005.489 1.214 7.43 7.43 0 004.765-3.028c2.896-4.774 3.896-29.46 3.13-37.325-.766-7.867-4.039-33.095-3.584-40.897.454-7.801 2.077-14.128.285-21.994-1.792-7.867-54.656-24.957-54.656-24.957l-10.115 14.969z" fill="url(#c)" fill-rule="nonzero"/><path d="M236.804 251.965c.454-7.763 2.077-14.128.285-21.995-.675-2.924-8.557-7.206-18.18-11.398-16.18-1.475-36.696-3.183-38.112-2.963-2.527.683-5 1.548-7.402 2.588l-1.13 1.669s0 2.2.286 5.77c3.766 1.126 11.038 0 11.038 0 1.013 2.523 7.324 11.515 15.167 15.383 7.843 3.869 30.789 2.588 32.1 4.024 1.312 1.436 1.572 21.205 1.429 23.715-.143 2.51 2.168 18.294 4.298 32.254 2.104 13.74-1.09 30.43-1.195 30.973a5.86 5.86 0 001.844-1.811c2.896-4.774 3.896-29.46 3.13-37.326s-4.013-33.082-3.558-40.883z" fill="#10122E" fill-rule="nonzero" opacity=".6"/><path d="M189.991 102.054s-11.687 2.665-15.674 3.597a2.01 2.01 0 00-1.428 1.293c-1.143 2.872-4 11.8-1.844 24.841a122.764 122.764 0 011.805 26.807l-5.428 28.127s-6.817 26.807-6.233 27.532c.584.724 15.713 12.2 20.44 10.583 4.726-1.617 3.168-4.282 3.168-4.282s3.895 19.406 20.777 19.24c16.88-.17 30.788-.131 33.671-6.962 2.883-6.832-.792-35.502-3.779-46.861-2.986-11.36-10.09-33.988-10.09-33.988l24.816-27.364-21.219-16.21s-5.064-9.38-7.155-10.571c-2.09-1.19-3.168-.181-3.168-.181l-28.659 4.399z" fill="url(#d)" fill-rule="nonzero"/><path d="M221.364 97.603s4.324 5.175-1.909 12.278a169.176 169.176 0 00-16.063 23.405c-3.506 6.068-6.752 9.302-8.596 14.516 0 0-.26-6.184-.507-15.758-.234-9.057-.35-18.41 0-20.766.883-4.864 22.283-16.042 27.075-13.675z" fill="#F1F6FC" fill-rule="nonzero"/><path d="M205.158 113.31s-2.22 1.384-2.987 1.294a14.51 14.51 0 01-3.22-2.498s-6.155-.116-6.817-2.73a56.835 56.835 0 00-1.74-6.637c-.624-1.37-3.273-7.917-3.299-10.57-.026-2.652.078-7.413-1.065-9.923-1.142-2.51-2.714-27.661 21.66-26.95 24.374.712 16.803 25.876 16.803 25.876s1.78.75.702 3.998c-1.078 3.247-1.299 3.584-1.87 5.175a7.15 7.15 0 01-2.364 3.959l-.402 2.989a11.984 11.984 0 01-1.87 9.056c-3.039 4.425-13.531 6.96-13.531 6.96z" fill="#F6EDE1"/><path d="M173.642 105.935s-2.597.388-11.024 21.516c-4.701 11.8-11.973 24.012-13.505 32.771-1.533 8.76-.689 18.113 1.051 18.8 1.74.685 31.97 11.928 41.463 15.524a.886.886 0 001.182-.685l2.597-14.568-18.803-7.245s-3.584-4.36-6.947-5.99c0 0 3.765-6.922 3.532-8.811-.234-1.89.324-21.438-1.87-29.395-2.195-7.957 2.324-21.917 2.324-21.917z" fill="url(#e)"/><path d="M184.654 161.84a37.825 37.825 0 00-3.22-1.98c-.65-.246-4.104-1.423-4.766-1.72a13.033 13.033 0 00-3.52 0 1.09 1.09 0 00-.856.569c-.805 1.487-3.039 5.783-2.78 7.426 0 0 6.26 3.946 6.961 5.706l1 .207s4.181-8.915 7.18-10.208z" fill="#F6EDE1"/><path d="M235.453 185.904c-.714-2.73-1.675-6.12-2.714-9.678l-38.086 16.25a40.25 40.25 0 0031.386 13.08 26.195 26.195 0 0012.362-3.88 148.295 148.295 0 00-2.948-15.772z" fill="#10122E" fill-rule="nonzero" opacity=".6"/><path d="M250.179 124.553s-10.038 1.371-18.18 14.231a193.405 193.405 0 00-14.024 27.649l-.286 1.656a6.755 6.755 0 01-3.475 4.835 6.8 6.8 0 01-5.965.223c-8.558-3.816-21.245-9.574-23.621-11.307a21.735 21.735 0 00-9.648 14.05c-1.65 7.88-1.299 7.905-1.299 7.905s33.762 15.72 46.865 15.526c13.102-.195 29.633-42.928 31.45-51.752 1.819-8.823 3.935-20.52-1.817-23.016z" fill="url(#f)"/><path d="M207.976 172.966s1.182-1.087 2.688-2.367c1.506-1.281 3.96-6.547 4.376-7.013.416-.466 5.519-4.373 7.973-4.437 2.454-.065.636 2.678.065 3.066-.571.388-2.96 1.578-2.96 1.578s-2.48 2.057-2.754 2.368c-.272.31 6.87-.492 8 .207a1.913 1.913 0 01.064 3.001c-.41.292-.898.459-1.402.48a2.48 2.48 0 01-1.299 3.143c-2.142.996-2.597.44-2.597.44s-.181 3.7-3.727 2.963l-8.427-3.429z" fill="#FCD1C6" fill-rule="nonzero"/><path d="M185.472 69.36s-3.181 10.091 5.194 7.22c8.376-2.873 15.96-7.673 18.582-5.849 2 1.398 1.91 5.667 1.754 7.634a2.864 2.864 0 00.506 1.876l2.48 3.596c.282.406.448.88.48 1.372l.182 2.497c.06.621.558 1.11 1.182 1.164h.571a1.298 1.298 0 001.299-1.035l.65-3.674s1.96-4.943 6.128-3.002c0 0 2.792-3.739 1.87-11.644-.922-7.905-4.519-16.263-20.231-17.595-15.713-1.333-20.647 17.44-20.647 17.44z" fill="#AB8483" fill-rule="nonzero"/><path d="M209.482 122.198l-2.402-1.76a12.947 12.947 0 00-3.026 3.714c-.844 1.914 0 7.97 0 7.97l-.727 1.228-.87-1.604-.753-7.167s.805-5.305.883-5.434c.078-.13 4.532.465 4.532.465a9.224 9.224 0 012.363 2.588zM198.185 115.056a8.073 8.073 0 00-3.65 1.1s2.598.13 3.052.181c.455.052.598-1.28.598-1.28z" fill="#C4CBD5" fill-rule="nonzero"/><path d="M207.184 119.546l-4.22-3.882s-6.597-1.41-6.052.44c.546 1.85.117 6.016.533 7.672.019.078.05.152.09.22a20.726 20.726 0 01-1.558 4.542c-.857 1.423-1.74 3.014-1.74 3.014l.104 20.144s7.44-15.28 9.09-18.371c0 0-.247-7.35-.948-8.746a9.575 9.575 0 014.7-5.033z" fill="#6D489F" fill-rule="nonzero"/><path d="M217.585 93.864c-4.882 14.05-18.634 18.217-18.634 18.217.95.979 2.034 1.82 3.22 2.497.767.116 2.987-1.294 2.987-1.294s10.492-2.588 13.53-6.974a11.984 11.984 0 001.87-9.056l.403-2.989a3.334 3.334 0 01-3.376-.4z" fill="#FF8617"/><path d="M228.766 110.308s-1.922 6.624-2.182 6.883a30.21 30.21 0 01-4.843-.285l2.233 4.218s-23.14 24.724-27.932 38.025a282.083 282.083 0 0130.217-36.99l-2.726-4.114 4.726.919.507-8.656zM190.757 104.46l-1.234 1.398 1.442 1.293-4.272 3.882s-1.299 27.04 3.895 44.959c0 0-7.09-16.431-5.48-45.697l4.636-3.13-1.52-1.489 2.533-1.216zM205.34 253.698l.156.13-5.987-6.353c2.766 3.882-.428 21.684-.753 25.76-.324 4.075 3.195 12.497 4.52 22.356 1.324 9.859-1.39 23.922-1.39 23.961a7.53 7.53 0 003.636-5.175c2.051-9.212 1.298-26.458-.987-33.639-2.286-7.18.805-27.04.805-27.04z" fill="#10122E" fill-rule="nonzero" opacity=".6"/><path d="M216.403 88.909a1.298 1.298 0 001.299-1.035l.65-3.674s1.96-4.943 6.128-3.002c0 0 2.598-3.545 1.922-11.088-4.636 6.935-14.907 10.13-14.907 10.13l2.48 3.597c.282.406.448.88.48 1.372l.182 2.497c.06.621.558 1.11 1.182 1.164l.584.039z" fill="#946E6D" fill-rule="nonzero"/><path d="M218.234 399.896c0 3.158-2.57 5.719-5.74 5.719-3.169 0-5.739-2.56-5.739-5.719 0-3.158 2.57-5.718 5.74-5.718 3.17 0 5.74 2.56 5.74 5.718z" fill="#282567" fill-rule="nonzero"/><ellipse fill="#282567" fill-rule="nonzero" cx="269.021" cy="336.022" rx="5.74" ry="5.719"/><path d="M287.11 379.687c0 3.158-2.57 5.719-5.74 5.719-3.17 0-5.74-2.56-5.74-5.719 0-3.158 2.57-5.718 5.74-5.718 3.17 0 5.74 2.56 5.74 5.718zM163.085 368.91c0 3.158-2.57 5.718-5.74 5.718-3.17 0-5.74-2.56-5.74-5.718s2.57-5.719 5.74-5.719c3.17 0 5.74 2.56 5.74 5.719zM198.574 330.278c0 3.158-2.57 5.718-5.74 5.718-3.17 0-5.739-2.56-5.739-5.718 0-3.159 2.57-5.719 5.74-5.719 3.17 0 5.74 2.56 5.74 5.719z" fill="#282567" fill-rule="nonzero"/><path d="M220.637 351.457l-63.097 12.11a7.036 7.036 0 00-.779.116v-.414l-2.922-.763v3.57c-.02.138-.02.277 0 .415.39 1.397 2.662 2.354 5.09 2.134l63.097-12.11-1.39-5.058z" fill="url(#g)" fill-rule="nonzero"/><path d="M273.488 329.89l-1.91 1.617a7.23 7.23 0 00-5.92.44l-44.943 19.484 6.298 3.623 44.994-19.485a2.51 2.51 0 001.52-2.122l-.04-3.558z" fill="#252464" fill-rule="nonzero"/><path d="M197.094 325.542c-1.117-1.294-3.805-1.76-5.986-1.125a5.31 5.31 0 00-.727.271 2.77 2.77 0 00-.39-.504 8.335 8.335 0 00-1.299-.945v3.558c.022.406.188.791.468 1.087l29.01 26.38 7.92-2.329-28.996-26.393z" fill="url(#h)" fill-rule="nonzero"/><path d="M285.512 373.645l-1.064.375-.61 1.294a8.349 8.349 0 00-.754-.284l-56.928-23.004-4.039 4.567 56.929 23.042c2.194.634 4.87.143 5.986-1.125.301-.318.469-.74.467-1.178l.013-3.687zM218.182 354.303l-9.35 39.9-.7-.349v3.662c.13 1.177 1.649 2.186 3.74 2.367 2.428.22 4.713-.724 5.09-2.122l9.999-42.695-8.779-.763z" fill="#252464" fill-rule="nonzero"/><path d="M283.084 371.433l-52.799-21.348 41.67-18.113c1.857-1.073 2.065-2.704.455-3.622l-.442-.259a7.035 7.035 0 00-6.31.259l-41.697 18.113-26.906-24.479c-1.117-1.293-3.805-1.76-5.986-1.112-2.195.634-3.065 2.186-1.948 3.441l26.906 24.466-58.526 11.243c-2.428.22-4.09 1.526-3.7 2.924.389 1.397 2.661 2.341 5.09 2.121l58.577-11.23-9.284 39.59c-.377 1.397 1.298 2.717 3.7 2.937 2.403.22 4.714-.737 5.09-2.135l9.272-39.615 52.8 21.373c2.194.647 4.87.142 5.986-1.113 1.117-1.255.247-2.781-1.948-3.441zM224.65 350.11l-.974 1.113-2.142-.194-.338-1.294 1.922-.556 1.532.931z" fill="url(#i)" fill-rule="nonzero"/><path d="M222.805 353.41a4.605 4.605 0 01-3.255-1.346 4.572 4.572 0 01-1.342-3.247v-53.045h9.207v53.045c0 2.537-2.064 4.593-4.61 4.593z" fill="#282567" fill-rule="nonzero"/><path d="M198.315 232.623a4.271 4.271 0 00-2.39-3.196l-.974-.556c-3.57-2.057-9.817-1.799-13.946.569l-29.114 16.754c-2.194 1.294-3.337 2.873-3.402 4.4v5.045a4.114 4.114 0 002.403 3.493l.96.557c3.585 2.057 9.83 1.798 13.947-.583l29.1-16.728c2.13-1.23 3.273-2.769 3.403-4.257l.013-5.498z" fill="url(#j)" fill-rule="nonzero"/><path d="M151.853 254.772l-.961-.556c-3.571-2.057-3.13-5.641 1-8.022l29.1-16.741c4.13-2.368 10.388-2.588 13.946-.57l.974.557c3.571 2.057 3.117 5.64-1.013 8.021l-29.1 16.742c-4.168 2.368-10.362 2.626-13.946.57z" fill="url(#k)" fill-rule="nonzero"/><path d="M213.469 278.138l-60.928 35.074c-3.026 1.747-5.467-.103-5.467-4.114 0-4.01 2.441-8.668 5.467-10.35l69.823-40.107v2.742c-.026 6.379-4 13.935-8.895 16.755z" fill="#525252" fill-rule="nonzero"/><path d="M217.962 128.486c-2.117-1.139-4.844-.983-7.792.724l-1.818 1.048c-6.739 3.882-12.206 14.232-12.206 23.288v120.115l16.193-9.315v3.817l-19.413 15.758-44.151 29.486 62.019 34.932 35.645-27.364 20.296-17.272 12.661-140.57-61.434-34.647z" fill="url(#l)" fill-rule="nonzero"/><path d="M172.525 326.733a7.522 7.522 0 011.61-7.608c3.26-3.247 20.4-10.428 21.647-11.204 1.247-.776 7.402-5.292 7.402-5.292l1.883-4.192s-34.814 3.377-35.269 3.882c-.454.504-16.296 14.775-15.829 15.344.468.57 10.908 3.144 10.908 3.144l2.013 2.743 5.635 3.183z" fill="#2D2E2D" fill-rule="nonzero"/><path d="M271.878 163.974l-1.818 1.048c-6.74 3.882-12.207 14.232-12.207 23.288V308.4l-43.592 24.996c-3.026 1.746-5.48 6.404-5.48 10.35 0 4.01 2.454 5.86 5.48 4.114l60.954-35.023c4.895-2.82 8.869-10.35 8.869-16.884v-122.91c0-8.836-5.467-12.95-12.206-9.069z" fill="url(#m)" fill-rule="nonzero"/><path d="M156.034 352.738s-8.986 5.744-12.012 9.134c-3.025 3.39-9.09 10.35-6.583 13.597 2.506 3.248 10.83 5.176 19.815-3.092 8.986-8.267 6.493-8.733 14.077-12.821 7.583-4.088 9.752-8.526 8.843-11.062-.91-2.536-4.7-7.038-6.766-6.068-2.064.97-17.374 10.312-17.374 10.312z" fill="url(#n)" fill-rule="nonzero"/><path d="M199.704 376.854a91.903 91.903 0 01-4.882 9.419c-1.663 2.341-9.714 15.861-5.506 18.98 4.207 3.117 12.18 2.238 18.478-4.58 6.298-6.819 7.7-15.112 9.259-17.842 1.558-2.73 5.428-10 3.584-14.232-1.844-4.23-2.234-4.916-2.234-4.916l-18.699 13.17z" fill="url(#o)" fill-rule="nonzero"/><path d="M167.098 276.197s-26.686 26.238-31.062 39.409a14.556 14.556 0 003.311 12.692c5.195 5.59 16.115 23.832 16.115 23.832s8.181 9.858 18.726 1.979c0 0 4.778-7.594 1.844-12.653-2.935-5.059-10.74-21.18-10.74-21.18s17.115-11.734 25.556-14.697c4.43-1.49 8.767-3.244 12.986-5.253a40.41 40.41 0 01-7.714 15.681c-6.181 7.763-16.53 20.196-13.09 28.851a72.04 72.04 0 008.688 16.328c3.233 4.981 6.298 15.383 9.09 16.47 2.792 1.087 15.518 2.329 17.595-5.951 2.078-8.28-4.363-24.362-7.246-29.758 0 0 34.503-39.667 37.788-43.988 3.285-4.321-71.16-28.49-81.847-21.762z" fill="url(#p)" fill-rule="nonzero"/><path d="M176.032 341.456c-2.935-5.046-10.74-21.18-10.74-21.18s17.115-11.734 25.556-14.697c4.43-1.49 8.767-3.244 12.986-5.253a87.774 87.774 0 009.206-17.517c-19.478-5.68-40.592-9.963-45.917-6.612 1.883 4.645 11.804 4.606 11.804 4.606s3.714 8.992 6.168 10.13c2.455 1.139 8.337-.103 8.337-.103s-.948 1.475-5.194 4.502c-4.246 3.028-30.451 24.44-30.451 24.44s1.493.854 8.48 13.442c6.986 12.589 7.895 20.895 7.895 20.895s4.804-7.594 1.87-12.653z" fill="#211B58" fill-rule="nonzero"/><path d="M235.025 290.118c-15.427-1.462-33.399-1.59-29.36 6.47 3.961 7.976 11.77 13.355 20.66 14.231-.079 5.033-21.258 29.33-21.258 29.33l4.935 9.561c4.934 9.548 4.31 26.963 4.31 26.963a7.768 7.768 0 004.026-5.046c2.065-8.28-4.363-24.362-7.246-29.757 0 0 34.503-39.668 37.788-43.989.974-1.307-4.87-4.321-13.855-7.763z" fill="#10122E" fill-rule="nonzero" opacity=".6"/><path d="M140.114 206.268l4.103-3.17s22.075-12.239 29.49-16.198a50.112 50.112 0 0011.077-9.056 15.363 15.363 0 0111.037-4.684l38.762-.194s4.52 7.207 6.038 8.617c1.117 1.048 11.687 9.833 19.18 17.065a32.465 32.465 0 018.791 14.568c4.324 15.163 4.26 45.735 4.909 67.587a69.391 69.391 0 01-9.31 2.445c-6.585 1.41-5.78.505-5.78.505s-9.881 22.175-23.308 24.323c-13.427 2.148-31.49-4.114-34.71-25.1 0 0-26.153-3.88-33.257-6.818a1.062 1.062 0 01-.454-1.63c3.168-4.179 14.96-20.39 16.076-30.96 1.299-12.213.909-29.938 0-34.777 0 0-19.725 7.4-25.971 8.707 0 0-24.01 26.303-34.035 33.458 0 0 3.428-5.383-3.467-9.057l20.829-35.63z" fill="url(#q)" fill-rule="nonzero"/><path d="M264.216 283.248a88.562 88.562 0 002.74-.608l-1.441-2.73-36.36-3.88-21.257 1.086-7.31 6.973a35.67 35.67 0 001.726 6.223s9.09 1.294 13.22.402c4.129-.893 36.567 3.88 36.632 3.88a75.126 75.126 0 006.22-10.763c-.026.168.363.582 5.83-.583z" fill="#10122E" fill-rule="nonzero" opacity=".6"/><path d="M215.079 270.582a.324.324 0 00-.286-.233c-1.753 0-13.128-.375-17.426-1.85-4.662-1.604-9.61-1.294-9.856-1.035-.247.259-8.012 3.545-8.48 4.878-.467 1.332-1.156 5.291-.13 6.805.57.824 1.078 1.689 1.52 2.588l.818.077c.477.963 1.02 1.892 1.623 2.782.259.314.473.663.636 1.035.494 1.06 1.299 2.795 1.714 2.833 1.164.232 2.346.358 3.532.376.494-.13.948-1.656.74-2.316a.284.284 0 01.221-.388 34.029 34.029 0 018.272-.182c5.051.466 12.206-2.833 12.856-3.13a.143.143 0 01.104 0l7.129-.647a.325.325 0 00.285-.414l-3.272-11.179z" fill="#FCD1C6" fill-rule="nonzero"/><path d="M206.496 195.698s-6.065 22.292.35 45.205c0 0 23.374-43.407 25.88-50.458 2.506-7.05 3.454-12.045 1.091-14.568-2.363-2.523-23.465 10.545-23.465 10.545l-3.856 9.276z" fill="#F1F6FC" fill-rule="nonzero"/><path d="M212.508 230.656s4.454-13.559 3.675-17.945a52.808 52.808 0 00-1.883-7.504l4.012-3.687 1.766 3.648s8.83-6.468 9.428-7.659c0 0-7.116 4.865-9.35 5.59a6.56 6.56 0 00-2.454-2.33c-1.402-.595-4.883 4.154-4.883 4.154l-.649 8.228-3.493 19.2 1.22 2.846 2.61-4.541z" fill="#C4CBD5" fill-rule="nonzero"/><path d="M217.702 200.77s-3.896-6.948-9.09-4.813c0 0-.818 8.552-.13 9.34a22.278 22.278 0 00-4.532 10.183c-1.415 12.73 2.91 25.423 2.91 25.423l3.466-6.47c.68-5.468 1.734-10.885 3.156-16.21a26.068 26.068 0 00.26-13.3 44.058 44.058 0 003.96-4.153z" fill="#6D489F" fill-rule="nonzero"/><path d="M195.588 160.158s-1.065 5.42-.689 6.469c.377 1.048 1.767 1.72 1.429 3.881-.338 2.16.896 8.435 1.52 10.544 0 0-.455 2.239.168 2.937.623.699 1.454.673 2.052 1.734.597 1.06.792 6.533 3.012 8.358a8.267 8.267 0 006.623 1.811c1.084-.35 2.105-.87 3.026-1.54l3.337 1.398s17.374-4.904 16.881-17.065v-1.294c.64-.885 1.176-1.84 1.597-2.846.35-1.126 3.234-6.185 1.78-8.358 0 0 6.726-26.458-14.025-28.05-20.75-1.59-23.945 12.822-26.711 22.02z" fill="#F6EDE1"/><path d="M232.895 178.659v-.143a3.906 3.906 0 00-2.39-.724c-2.376.414-1.83-4.49-1.83-4.49a45.232 45.232 0 00-1.65 7.168c-1.207 6.262-14.283 13.857-14.283 13.857l3.337 1.397s17.361-4.955 16.816-17.065z" fill="#FF8617"/><path d="M195.679 148.669c-2.026 4.295-3 9.457 1.298 12.938 0 0 3.571.97 10.389-2.174a15.857 15.857 0 0111.687-.336 2.73 2.73 0 011.87 2.678l-.091 3.778a2.38 2.38 0 001.454 2.251l3.142 1.294.624 3.674c.092.51.404.955.854 1.216.45.262.992.314 1.483.143l.805-.285s.468-8.15 7.22-7.763c0 0 5.467-11.773-.143-22.538-5.61-10.764-20.945-10-24.218-8.771-4.298 1.604-3.7 1.358-6.168 2.885a26.223 26.223 0 00-10.206 11.01z" fill="#AB8483" fill-rule="nonzero"/><path d="M250.906 231.704s-3.143 23.081-4.428 29.615l-10.168 5.317 18.037-1.1-3.441-33.832z" fill="#10122E" fill-rule="nonzero" opacity=".6"/><path d="M236.258 166.122a30.622 30.622 0 002.286-9.445 24.529 24.529 0 01-17.777 5.072l-.091 3.778a2.38 2.38 0 001.454 2.251l3.143 1.294.623 3.674c.092.51.405.955.854 1.216.45.262.992.314 1.483.143l.805-.285s.468-8.099 7.22-7.698z" fill="#946E6D" fill-rule="nonzero"/><path d="M240.738 186.422s-5.363 18.397-6.492 21.994l-4.325-.453.78 5.81-23.283 30.597 25.854-29.576-1.026-5.175 3.895.414 4.597-23.611z" fill="#10122E" fill-rule="nonzero" opacity=".6"/><path d="M217.87 286.366s54.63-1.772 56.033-2.755c1.403-.984 1.636-14.995 1.507-23.107-.091-5.693 0-27.972-4.896-43.588 3.83 13.223 1.805 60.006.078 62.386-1.727 2.38-53.708 3.765-53.708 3.765.584 1.941.987 3.3.987 3.3z" fill="#273649" fill-rule="nonzero"/><path d="M110.533 242.83s-.195 1.372-2.597 2.718c-2.403 1.345-8.454 4.334-9.44 5.175-.988.84-5.377 4.696-5.494 5.175-.117.478-1.454 4.851-1.441 5.11.013.259.428 2.277.428 2.277l-1.298 6.405s-1.714 2.497.143 3.17a2.391 2.391 0 002.96-1.54 30.85 30.85 0 004.883-2.937c2.065-1.592 10.388-8.242 11.765-7.828 1.376.414.117 2.782-.572 3.196-.688.414-5.064 4.697-3.22 7.66 1.844 2.962 3.039-1.683 4.26-2.588 1.22-.906 3.895-4.67 5.453-5.175 1.558-.505 4.532-6.47 4.922-9.135a10.457 10.457 0 012.986-5.265c.689-.867-1.48-7.517-1.48-7.517l-8.207-2.588-2.883 1.863-1.168 1.825z" fill="#FCD1C6" fill-rule="nonzero"/><g fill-rule="nonzero"><path d="M266.476 207.743c-1.714-2.704-2.507-.711-4.805 1.527a35.364 35.364 0 00-9.09 13.559c-3.675 10.725-2.363 37.52-1.13 41.4 0 0-34.203 5.59-36.58 5.486-2.376-.103 2.935 16.677 2.935 16.677s54.63-1.772 56.032-2.755c1.403-.984 1.637-14.995 1.507-23.107-.04-6.987.09-38.71-8.87-52.787z" fill="#344659"/><path d="M217.87 286.366s54.63-1.772 56.033-2.755c1.403-.984 1.636-14.995 1.507-23.107-.091-5.693 0-27.972-4.896-43.588 3.83 13.223 1.805 60.006.078 62.386-1.727 2.38-53.708 3.765-53.708 3.765.584 1.941.987 3.3.987 3.3z" fill="#273649"/></g><path d="M281.811 280.39a4.258 4.258 0 00-2.389-3.196l-.974-.557c-3.57-2.057-9.817-1.798-13.946.57l-29.114 16.754c-2.194 1.294-3.337 2.86-3.402 4.399v5.046a4.114 4.114 0 002.402 3.493l.961.556c3.584 2.057 9.83 1.799 13.947-.582l29.113-16.729c2.117-1.229 3.26-2.768 3.39-4.256l.012-5.499z" fill="url(#r)" fill-rule="nonzero"/><path d="M235.35 302.539l-.962-.557c-3.57-2.057-3.13-5.64 1-8.021l29.1-16.742c4.13-2.367 10.39-2.587 13.947-.569l.974.556c3.571 2.058 3.117 5.641-1 8.022l-29.113 16.741c-4.117 2.368-10.363 2.627-13.947.57z" fill="url(#s)" fill-rule="nonzero"/><path d="M182.732 445.308a6.514 6.514 0 01-3.26-.841c-2.285-1.294-3.557-3.959-3.557-7.44v-78.183h3.402v78.184c0 2.186.675 3.881 1.857 4.502 1.181.621 2.948.44 4.843-.647L251.36 403.3a18.811 18.811 0 008.415-14.517v-78.157h3.39v78.17a21.979 21.979 0 01-10.103 17.454l-65.344 37.636a10.185 10.185 0 01-4.986 1.423zM15.803 352.764a6.512 6.512 0 01-3.259-.854c-2.298-1.294-3.558-3.96-3.558-7.44V266.3h3.402v78.17c0 2.187.675 3.882 1.857 4.516 1.182.634 2.948.44 4.857-.647l65.33-37.52a18.823 18.823 0 008.375-14.581v-78.183h3.403v78.183a21.979 21.979 0 01-10.116 17.44L20.75 351.263a10.078 10.078 0 01-4.948 1.5z" fill="#4A3594" fill-rule="nonzero"/><path fill="#4A3594" fill-rule="nonzero" d="M9.85 297.218l1.678-2.948 166.922 94.323-1.678 2.949z"/><path fill="url(#t)" fill-rule="nonzero" opacity=".5" d="M178.083 376.065L0 273.635l95.625-55.011L273.71 321.066z"/><path fill="url(#u)" fill-rule="nonzero" d="M0 265.135v8.5l178.083 102.43 95.626-55v-8.5l-95.626 55.012z"/><path fill="url(#v)" fill-rule="nonzero" d="M178.083 367.577L0 265.135l95.625-55.011L273.71 312.566z"/><path d="M188.524 287.777s6.843 2.432 12.063 1.565c5.22-.867 30.4-1.358 30.4-1.358l-3.961-2.277-8.818-6.133-21.867 1.475-8.44 3.015.623 3.713z" fill="#10122E" fill-rule="nonzero" opacity=".4"/><path d="M215.079 270.582a.324.324 0 00-.286-.233c-1.753 0-13.128-.375-17.426-1.85-4.662-1.604-9.61-1.294-9.856-1.035-.247.259-8.012 3.545-8.48 4.878-.467 1.332-1.156 5.291-.13 6.805.57.824 1.078 1.689 1.52 2.588l.818.077c.477.963 1.02 1.892 1.623 2.782.259.314.473.663.636 1.035.494 1.06 1.299 2.795 1.714 2.833 1.164.232 2.346.358 3.532.376.494-.13.948-1.656.74-2.316a.284.284 0 01.221-.388 34.029 34.029 0 018.272-.182c5.051.466 12.206-2.833 12.856-3.13a.143.143 0 01.104 0l7.129-.647a.325.325 0 00.285-.414l-3.272-11.179z" fill="#F6EDE1"/><path d="M266.476 207.743c-1.714-2.704-2.507-.711-4.805 1.527a35.364 35.364 0 00-9.09 13.559c-3.675 10.725-2.363 37.52-1.13 41.4 0 0-34.203 5.59-36.58 5.486-2.376-.103 2.935 16.677 2.935 16.677s54.63-1.772 56.032-2.755c1.403-.984 1.637-14.995 1.507-23.107-.04-6.987.09-38.71-8.87-52.787z" fill="url(#w)" fill-rule="nonzero"/><path d="M217.87 286.366s54.63-1.772 56.033-2.755c1.403-.984 1.636-14.995 1.507-23.107-.091-5.693 0-27.972-4.896-43.588 3.83 13.223 1.805 60.006.078 62.386-1.727 2.38-53.708 3.765-53.708 3.765.584 1.941.987 3.3.987 3.3z" fill="#10122E" fill-rule="nonzero" opacity=".6"/><path d="M119.96 258.511s19.595-15.163 22.322-16.677a19.277 19.277 0 003.96-2.587l-6.492-3.765-11.064 4.528-13.92 13.753-21.44 15.137v3.52s17.687-7.556 19.66-8.85c1.975-1.294 6.974-5.059 6.974-5.059z" fill="#211C58" fill-rule="nonzero" opacity=".3"/><path d="M108.312 272.277a39.237 39.237 0 016.843-4.942c2.688-1.294 6.948-4.515 7.48-7.038.533-2.523 4.96-8.074 4.96-8.074l-7.115 4.063-10.311 5.925-17.154 9.924a2.943 2.943 0 003.22.453c2.17-.725 6.247-3.325 8.143-3.545 1.895-.22 5.038-.815 5.038-.815l-1.104 4.05z" fill="#2D2E2D" fill-rule="nonzero" opacity=".63"/><path d="M110.533 242.83s-.195 1.372-2.597 2.718c-2.403 1.345-8.454 4.334-9.44 5.175-.988.84-5.377 4.696-5.494 5.175-.117.478-1.454 4.851-1.441 5.11.013.259.428 2.277.428 2.277l-1.298 6.405s-1.714 2.497.143 3.17a2.391 2.391 0 002.96-1.54 30.85 30.85 0 004.883-2.937c2.065-1.592 10.388-8.242 11.765-7.828 1.376.414.117 2.782-.572 3.196-.688.414-5.064 4.697-3.22 7.66 1.844 2.962 3.039-1.683 4.26-2.588 1.22-.906 3.895-4.67 5.453-5.175 1.558-.505 4.532-6.47 4.922-9.135a10.457 10.457 0 012.986-5.265c.689-.867-1.48-7.517-1.48-7.517l-8.207-2.588-2.883 1.863-1.168 1.825z" fill="#F6EDE1"/><path d="M184.628 197.95s-.299-12.201 1.792-21.555c-.578.444-1.125.929-1.636 1.449a50.112 50.112 0 01-11.077 9.056c-7.363 3.96-29.49 16.198-29.49 16.198l-4.103 3.17c-12.986 10.143-27.465 32.19-29.581 36.563 1.025-1.294 3.636-3.571 8.635-.919 6.895 3.661 3.61 9.147 3.61 9.147 10.038-7.155 33.892-33.56 33.892-33.56 5.896-1.23 23.582-7.763 25.79-8.63a28.798 28.798 0 002.168-10.92z" fill="url(#x)" fill-rule="nonzero"/><path d="M78.12 286.535l71.538 41.142a2.931 2.931 0 002.597.104l42.683-24.582c.676-.401.598-1.074-.181-1.527l-71.538-41.142a2.931 2.931 0 00-2.597-.117L77.94 284.995c-.714.401-.597 1.048.182 1.54z" fill="#10122E" fill-rule="nonzero" opacity=".6"/><path fill="#0F1026" fill-rule="nonzero" opacity=".5" d="M52.708 269.884l22.322 10.26 11.44-17.053-28.295-5.123z"/><path d="M63.434 238.936H39.827l2.194 25.462a4.762 4.762 0 002.818 3.881 15.048 15.048 0 0013.583 0 4.788 4.788 0 002.818-3.881l2.194-25.462z" fill="url(#y)" fill-rule="nonzero"/><path d="M63.434 238.936H39.827l.363 4.18a8.793 8.793 0 002.182 1.966 19.88 19.88 0 0017.037 1.41l-.792 18.618c-.02.815-.318 1.6-.844 2.225a8.763 8.763 0 01-5.065 2.587 13.465 13.465 0 005.714-1.578 4.788 4.788 0 002.818-3.881l1.7-20.494.494-5.033z" fill="#10113C" fill-rule="nonzero" opacity=".4"/><path d="M59.967 243.736a18.487 18.487 0 01-16.686 0c-4.61-2.652-4.61-6.947 0-9.6a18.487 18.487 0 0116.686 0c4.61 2.653 4.61 6.948 0 9.6z" fill="#10113C" fill-rule="nonzero" opacity=".4"/><path d="M58.811 240.67a15.894 15.894 0 01-14.375 0c-3.96-2.277-3.96-5.977 0-8.267a15.973 15.973 0 0114.375 0c3.974 2.29 3.974 5.99 0 8.267z" fill="#10113C" fill-rule="nonzero" opacity=".4"/><path d="M64.122 238.613l-.22-2.277c-.104-1.734-1.299-3.442-3.584-4.761a19.243 19.243 0 00-17.349 0c-2.35 1.358-3.545 3.118-3.597 4.89l-.22 2.031v.156c-.13 1.927 1.09 3.881 3.648 5.369a19.646 19.646 0 0017.7 0c2.558-1.488 3.74-3.467 3.622-5.408z" fill="url(#z)" fill-rule="nonzero"/><path d="M58.811 240.67a15.894 15.894 0 01-14.375 0c-3.96-2.277-3.96-5.977 0-8.267a15.973 15.973 0 0114.375 0c3.974 2.29 3.974 5.99 0 8.267z" fill="url(#A)" fill-rule="nonzero"/><ellipse fill="url(#B)" fill-rule="nonzero" cx="51.15" cy="236.543" rx="10.168" ry="5.848"/><path d="M45.644 233.282a15.894 15.894 0 0114.375 0l.143.091a7.36 7.36 0 00-1.299-.97 15.973 15.973 0 00-14.375 0c-3.895 2.25-3.96 5.886-.142 8.176-2.598-2.264-2.182-5.317 1.298-7.297z" fill="#10113C" fill-rule="nonzero" opacity=".4"/><path d="M44.436 233.425a15.894 15.894 0 0114.375 0 5.373 5.373 0 012.948 3.622c.247-1.656-.74-3.376-2.948-4.644a15.973 15.973 0 00-14.375 0c-2.207 1.293-3.181 2.988-2.934 4.644a5.347 5.347 0 012.934-3.622z" fill="url(#C)" fill-rule="nonzero"/><path d="M60.344 231.613a19.256 19.256 0 00-17.414-.155c-4.844 2.717-4.882 7.207-.09 10.014a19.334 19.334 0 0017.413.155c4.87-2.73 4.908-7.206.09-10.014zm-1.572 9.057c-1.433.788-3 1.306-4.622 1.527l-.182-.608a.584.584 0 00-.559-.414H49.76a.597.597 0 00-.558.414l-.182.608a13.422 13.422 0 01-4.623-1.527c-3.96-2.277-3.96-5.977 0-8.267a15.973 15.973 0 0114.375 0c4.013 2.29 4.013 5.99.04 8.267h-.04z" fill="url(#D)" fill-rule="nonzero"/><path d="M58.811 231.976a15.894 15.894 0 00-14.375 0c-2.077 1.19-3.064 2.781-2.96 4.347a5.178 5.178 0 012.96-3.882 15.973 15.973 0 0114.375 0 5.178 5.178 0 012.974 3.882c.104-1.566-.883-3.157-2.974-4.347z" fill="#FFF" fill-rule="nonzero"/><path d="M60.344 241.187a19.295 19.295 0 01-17.414-.142c-2.285-1.294-3.467-3.053-3.558-4.787-.09 1.876 1.09 3.765 3.558 5.175a19.334 19.334 0 0017.414.156c2.532-1.437 3.752-3.338 3.636-5.24-.13 1.824-1.35 3.519-3.636 4.838z" fill="#FFF" fill-rule="nonzero"/><rect fill="#28296F" fill-rule="nonzero" x="50.267" y="241.912" width="2.727" height="1" rx=".21"/><path d="M52.721 241.925H50.54a.272.272 0 00-.273.272.09.09 0 000 .064.273.273 0 01.26-.194h2.181a.286.286 0 01.26.194.554.554 0 000-.064.272.272 0 00-.247-.272z" fill="url(#E)" fill-rule="nonzero"/><path d="M52.397 242.326s6.61-2.212 3.895-9.755c-2.714-7.543-7.882-9.859-5.778-15.9a12.148 12.148 0 00-.221 11.501c3.077 6.624 3.74 5.86 3.714 9.056a5.716 5.716 0 01-3.104 5.176l1.494-.078zM52.994 217.718s-.688-4.515 3.57-9.056c0 0-3.765 8.37-2.596 12.498a21.351 21.351 0 01-.974-3.442z" fill="#FFF" fill-rule="nonzero" opacity=".5"/><path d="M344.726 406.365s1.948 3.881 1.416 6.469c-.533 2.588-6.727 11.372-8.545 16.263-1.818 4.89-11.141 12.2-16.362 12.2-5.22 0-10.011-2.16-7.518-7.944a39.272 39.272 0 016.687-10.596c2.065-2.652 6.104-10.26 6.7-13.39.598-3.131 17.622-3.002 17.622-3.002z" fill="url(#F)" fill-rule="nonzero"/><path d="M319.132 382.52s.857 5.176.09 7c-.765 1.824-2.415 3.519-7.05 4.852-4.636 1.332-8.934 1.798-16.609 6.352-7.674 4.554-18.18 6.47-21.335 1.488-3.156-4.981 7.791-12.472 11.778-14.426 3.986-1.953 10.245-2.962 13.596-5.964 3.35-3.002 3.895-2.29 3.895-2.29l15.635 2.989z" fill="url(#G)" fill-rule="nonzero"/><path d="M347.168 292.292s-3.792 34.014-2.598 45.93c1.195 11.915 8.818 34.142 6.298 49.06-2.519 14.917-5.518 21.166-5.518 21.166s-10.298 10.493-18.18 1.113c0 0 3.298-6.055 2.857-21.736-.221-7.97-.39-12.55-.48-15.124a11.767 11.767 0 00-1.598-5.473 139.69 139.69 0 01-11.09-23.47s1.766 22.06 1.637 31.983a23.747 23.747 0 00.415 4.606c.307 1.385.356 2.815.143 4.218-.545 2.587-9.726 12.239-17.219 4.49 0 0-2.896-1.954-2.285-8.022.415-4.011-.61-12.822-1.494-19.925a46.208 46.208 0 00-4.921-15.68c-2.09-3.96-4.039-12.071-5.285-15.797-2.468-7.427-11.622-43.032-11.791-51.13-.169-8.1 9.882-13.87 9.882-13.87s23.01 11.204 22.556 12.433c-.455 1.23 28.828 13.468 28.828 13.468l9.843 1.76z" fill="url(#H)" fill-rule="nonzero"/><path d="M285.902 264.63s23.01 11.205 22.556 12.434c-.455 1.23 28.828 13.468 28.828 13.468l9.882 1.76s-3.792 34.014-2.598 45.93c1.195 11.915 8.818 34.142 6.298 49.06-2.519 14.917-5.518 21.166-5.518 21.166a20.77 20.77 0 01-4.195 3.131c1.364-4.399 5.818-19.885 5.675-33.418-.156-15.798-7.064-41.272-7.415-49.475-.062-4.308-3.414-7.855-7.726-8.177-6.675-.284-16.492-1.384-23.205-5.175 2.13 8.837 8.388 28.464 8.388 28.464s1.896 23.585 1.61 32.952a11.32 11.32 0 00.273 2.808c.43 1.646.535 3.36.312 5.046a10.706 10.706 0 01-3.48 4.411c-.221-9.703-2.117-34.233-2.831-39.874-.78-6.3-7.467-31.556-7.467-31.556-3.506-2.73-5.194-9.211-5.895-12.459-2.974-6.378-3.415-12.407-8.973-12.524-.455 0-7.337 8.462-11.92 1.786a128.795 128.795 0 01-2.43-15.849c-.168-8.1 9.83-13.908 9.83-13.908z" fill="#10122E" fill-rule="nonzero" opacity=".6"/><path d="M277.202 279.678l1.298 4.32s2 .285 4.688-2.78a4.464 4.464 0 00.13-5.965l-5.116 1.138-1 3.287z" fill="#E2B1A6" fill-rule="nonzero"/><path d="M295.005 162.214s-1.416-.09-4.662 1.631c-3.246 1.72-7.337 6.288-9.661 17.207-2.325 10.92-12.025 39.538-12.778 44.83-.727 5.059 1.052 38.943 4.246 53.343.1.522.421.975.882 1.243a1.85 1.85 0 001.52.154c2.74-.931 7.792-2.82 10.649-5.02 4.064-3.118 3.337-27.596 3.337-27.596l-2.766-31.426 4.48-25.734s6.402-20.3 5.467-21.619c-.935-1.32-.714-7.013-.714-7.013z" fill="url(#I)" fill-rule="nonzero"/><path d="M365.503 193.499s4.467 8.5-1.415 19.807c-5.883 11.308-20.206 34.7-20.206 34.7s4.61 32.551 3.974 40.521c-.637 7.97-6.623 17.324-8.142 20.312-1.52 2.99-13.96 10.532-28.348 3.351-14.387-7.18-15.582-16.935-16.998-27.557-1.415-10.622-.973-9.975-.973-9.975s-6.675 20.972-10.7 17.039c-1.728-1.682-1.857-6.831-1.39-12.265a262.013 262.013 0 00.818-34.48v-1.06c0-3.662-.675-37.042.312-46.02.987-8.98-.39-23.133 4.337-28.955a24.071 24.071 0 018.31-6.702l6.688-.337s38.957-3.182 42.32 1.773a42.897 42.897 0 014.57 8.138s11.688 12.278 16.882 21.71h-.039z" fill="url(#J)" fill-rule="nonzero"/><path d="M334.598 158.075a5.465 5.465 0 012.272 2.717 49.742 49.742 0 003.623 8.254s-17.232 16.237-23.673 24.582a52.085 52.085 0 00-8.453 15.215l-8.921-10.441 2.766-3.08 1.506-6.843 2.597-7.763 1.896-7.685 21.361-12.097 5.026-2.86z" fill="#F1F6FC" fill-rule="nonzero"/><path d="M317.457 180.16a13.623 13.623 0 014.661 5.537 22.976 22.976 0 00-4.337-2.588 21.786 21.786 0 00-2.947 3.364c-.468.958 0 9.73 0 9.73l-1.195 1.81-1.415.156s-.156-6.288-.325-6.598c-.25-1.9-.363-3.816-.338-5.732.104-.4 4.675-4.696 4.675-4.696l1.584-1.074-.363.09z" fill="#C4CBD5" fill-rule="nonzero"/><path d="M308.47 178.245a7.4 7.4 0 013.624-.686 19.505 19.505 0 015.83 2.963c.572.75-.169 1.734-2.337 3.39-2.169 1.656-2.429 2.717-2.429 2.717s1.299 7.128.533 11.437c0 0-4.597 8.099-5.558 12.006-.96 3.907-5.064-12.589-5.064-12.589a67.238 67.238 0 012.077-6.624c.663-1.294 3.182-8.461 2.52-9.703-.663-1.242.805-2.911.805-2.911z" fill="#6D489F" fill-rule="nonzero"/><path d="M347.323 172.85l-2.934 6.093-5.195-.271.624 5.356s-21.27 14.102-29.386 28.826l.506 1.565s9.518-15.694 30.113-28.657l.689-.414-1.052-5.175 4.597.853 2.038-8.176z" fill="#10122E" fill-rule="nonzero" opacity=".6"/><path d="M312.262 174.493a4.503 4.503 0 003.675 2.872c2.74.22 17.557-5.511 19.751-14.154 0 0-.909-4.14-.987-4.89a3.775 3.775 0 001.234-2.135 37.245 37.245 0 011.753-5.11 6.732 6.732 0 00.701-4.037s4.415-24.09-8.843-28.218c-13.258-4.127-22.906-.13-27.27 13.52 0 0-1.051 3.688-1.895 6.405a9.115 9.115 0 00-.078 5.304c.287.873.431 1.786.428 2.704a36.095 36.095 0 00-.272 10.156s-1.052 2.588.7 3.506c1.754.919 1.377 8.54 1.377 8.54l4.922 5.032s1.039 1.113 4.804.505z" fill="#F6EDE1"/><path d="M338.454 148.358s9.506-21.464-5.791-30.158c-11.999-6.831-26.322-2.95-30.66 12.511 0 0-1.674 3.416 3.702 5.33 5.376 1.915 12.271 4.011 15.414 3.947 3.142-.065 4.726 1.681 4.778 5.809a7.544 7.544 0 00.559 3.622c.239.388.352.84.324 1.294v.79c.007.528.336 1 .831 1.19.754.232 1.61 0 1.624-.169a8.704 8.704 0 013.895-6.21c2.26-1.526 4.987-2.29 5.324 2.044z" fill="#AB8483" fill-rule="nonzero"/><path d="M305.146 190.86c.663-1.295 3.182-8.462 2.52-9.704-.663-1.242.805-2.911.805-2.911a7.4 7.4 0 013.623-.686c.168.035.333.082.493.142v.078s-1.857 3.286-2.26 4.088c-.402.803-2.142 9.16-3.077 11.036a79.693 79.693 0 00-2.7 8.397l-.56-.31c-.545-1.993-.921-3.507-.921-3.507a67.238 67.238 0 012.077-6.624z" fill="#10122E" fill-rule="nonzero" opacity=".6"/><path d="M306.536 169.408s2.337 3.48 2.52 5.175a2.954 2.954 0 01-1.611-.608l-1.948-2.005 1.039-2.562z" fill="#E2B1A6" fill-rule="nonzero"/><path d="M290.927 201.442s-2.675-4.1-2.597-7.581a50 50 0 011.039-7.569s-1.974 0-1.857-2.833c.117-2.834.948-5.628 1.935-6.353a2.721 2.721 0 012-.543s.727-2.368 2.818-2.005a3.881 3.881 0 011.857-2.704 2.032 2.032 0 012.921.62s.727-2.587 1.429-2.962a5.951 5.951 0 012-.557s3.415-.452 4.012.453c.597.906 2.285 10.687 2.143 11.179-.143.491-.935 5.524-1.455 7.115-.52 1.592-4.428 5.68-5.051 7.62-.623 1.941-6.857 8.242-6.921 8.242-.065 0-4.273-2.122-4.273-2.122z" fill="#F6EDE1" fill-rule="nonzero"/><path d="M293.343 274.658s.181-33.962 5.843-49.009l-2.948 4.852a192.459 192.459 0 00-3.7 46.576l.805-2.42z" fill="#10122E" fill-rule="nonzero" opacity=".6"/><path d="M294.239 221.354s25.4 22.719 25.503 23.003c.104.285 37.126-22.81 37.126-22.81l1.13 2.588c-6.493 11.205-14.168 23.832-14.168 23.832s.546 3.881 1.299 9.406c0 0-18.284 19.406-29.685 16.961-9.83-2.147-20.335-34.686-22.997-43.432a7.13 7.13 0 01.078-4.296l1.714-5.252z" fill="#10122E" fill-rule="nonzero" opacity=".6"/><path d="M289.408 198.066c3.649-2.161 10.233-2.77 10.233-2.77l-7.688 6.65-1.026-.517a20.464 20.464 0 01-1.675-3.325l.156-.038z" fill="#E2B1A6" fill-rule="nonzero"/><path d="M336.312 207.407c3.895-4.89 9.167-8.746 14.284-12.071 4.649-3.002 9.713-5.292 12.479-3.377 5.947 4.101 4.7 11.644 1.909 19.226-2.792 7.581-28.426 50.457-46.359 49.487 0 0-12.985-13.365-18.88-23.819-4.987-8.772-13.142-23.948-15.583-28.463a1.91 1.91 0 01.402-2.316c3.506-3.17 14.284-12.55 17.453-10.971 0 0 7.31 18.385 14.635 27.454l5.74 5.447c2.6-4.736 5.456-9.327 8.557-13.753 1.428-1.824 3.467-4.438 5.363-6.844z" fill="url(#K)" fill-rule="nonzero"/><path d="M315.911 177.365a4.503 4.503 0 01-3.674-2.872s15.232-6.068 16.88-15.332c0 0 .13 9.756-3.895 14.905-4.09 2.2-8.025 3.403-9.31 3.299z" fill="#FF8617"/><path d="M329.209 152.511c0 .182-.87.401-1.624.169a1.294 1.294 0 01-.83-1.19v-.79a2.206 2.206 0 00-.325-1.294 7.544 7.544 0 01-.559-3.622 7.43 7.43 0 00-1.026-4.153s8.57.647 15.583.517c-.26.996-.415 1.98-.701 2.872a29.975 29.975 0 01-1.299 3.351c-.337-4.334-3.064-3.57-5.389-2.057a8.703 8.703 0 00-3.83 6.197z" fill="#946E6D" fill-rule="nonzero"/><path d="M316.82 343.759v.246a.825.825 0 010-.246z" fill="#1F272E" fill-rule="nonzero"/><path d="M330.13 412.174a11.934 11.934 0 01-3-2.587s3.3-6.055 2.858-21.736c-.221-7.957-.39-12.537-.48-15.111a11.78 11.78 0 00-1.611-5.499 142.616 142.616 0 01-10.531-21.994v-.207c2.597 4.515 14.284 18.397 15.764 29.032 1.455 10.454-1.857 31.556-3 38.102z" fill="#10122E" fill-rule="nonzero" opacity=".6"/><path d="M317.327 345.065a.685.685 0 01-.078-.129l-.429-1.177c.052-.298.234.233.507 1.306z" fill="#1F272E" fill-rule="nonzero"/><path d="M289.317 236.569a2.586 2.586 0 001.753 3.04c1.169.142 2.26-.996 2.441-2.588a2.586 2.586 0 00-1.766-3.04c-1.155-.09-2.246 1.048-2.428 2.588zM287.85 255.147c0 1.566.896 2.86 2.064 2.873 1.17.013 2.156-1.294 2.182-2.82.026-1.528-.896-2.86-2.065-2.873-1.168-.013-2.155 1.255-2.181 2.82zM286.291 204.535s23.27 50.095 33.867 52.087c10.596 1.993 39.177-34.841 39.177-34.841v.13c-9.155 15.15-27.114 39.42-40.632 38.71 0 0-12.985-13.366-18.88-23.82-4.987-8.771-13.142-23.947-15.583-28.463a1.91 1.91 0 01.402-2.316l1.65-1.487z" fill="#10122E" fill-rule="nonzero" opacity=".6"/><path d="M322.456 228.004a53.649 53.649 0 014.026 7.659l-3.493-8.617-.533.958z" fill="#10122E" fill-rule="nonzero" opacity=".6"/><path fill="#0F1026" fill-rule="nonzero" opacity=".5" d="M234.804 322.825l11.7 5.395 21.387-12.304-27.62-5.006z"/><path d="M245.53 291.878h-23.608l2.195 25.462a4.737 4.737 0 002.818 3.881 15.048 15.048 0 0013.583 0 4.736 4.736 0 002.804-3.881l2.208-25.462z" fill="url(#L)" fill-rule="nonzero"/><path d="M245.53 291.878h-23.608l.364 4.192a9.078 9.078 0 002.181 1.966 19.92 19.92 0 0017.037 1.41l-.792 18.618c-.02.816-.317 1.6-.844 2.225a8.763 8.763 0 01-5.064 2.588c2-.09 3.953-.629 5.714-1.578a4.736 4.736 0 002.804-3.882l1.766-20.416.442-5.123z" fill="#10113C" fill-rule="nonzero" opacity=".4"/><path d="M242.063 296.678a18.487 18.487 0 01-16.687 0c-4.61-2.652-4.61-6.948 0-9.6a18.487 18.487 0 0116.687 0c4.61 2.652 4.61 6.948 0 9.6z" fill="#10113C" fill-rule="nonzero" opacity=".4"/><path d="M240.907 293.625a15.973 15.973 0 01-14.375 0c-3.973-2.29-3.973-5.99 0-8.268a15.894 15.894 0 0114.375 0c3.974 2.277 3.974 5.978 0 8.268z" fill="#10113C" fill-rule="nonzero" opacity=".4"/><path d="M246.218 291.567l-.22-2.277c-.104-1.72-1.3-3.428-3.585-4.748a19.243 19.243 0 00-17.348 0c-2.35 1.294-3.545 3.105-3.597 4.878l-.22 2.031v.155c-.13 1.94 1.09 3.882 3.648 5.37a19.542 19.542 0 0017.7 0c2.557-1.488 3.778-3.468 3.622-5.409z" fill="url(#M)" fill-rule="nonzero"/><path d="M240.907 293.625a15.973 15.973 0 01-14.375 0c-3.973-2.29-3.973-5.99 0-8.268a15.894 15.894 0 0114.375 0c3.974 2.277 3.974 5.978 0 8.268z" fill="url(#N)" fill-rule="nonzero"/><ellipse fill="url(#O)" fill-rule="nonzero" cx="233.246" cy="289.484" rx="10.168" ry="5.848"/><path d="M227.74 286.224a15.973 15.973 0 0114.375 0l.143.09a7.997 7.997 0 00-1.299-.957 15.894 15.894 0 00-14.375 0c-3.896 2.251-3.96 5.887-.143 8.177-2.597-2.316-2.155-5.317 1.299-7.31z" fill="#10113C" fill-rule="nonzero" opacity=".4"/><path d="M226.558 286.366a15.973 15.973 0 0114.375 0 5.308 5.308 0 012.935 3.636c.26-1.669-.727-3.377-2.935-4.645a15.894 15.894 0 00-14.375 0c-2.207 1.294-3.181 2.976-2.935 4.645a5.347 5.347 0 012.935-3.636z" fill="url(#P)" fill-rule="nonzero"/><path d="M242.478 284.555a19.36 19.36 0 00-17.426-.155c-4.83 2.73-4.87 7.22-.078 10.027a19.295 19.295 0 0017.413.142c4.831-2.717 4.87-7.232.091-10.014zm-1.57 9.057c-1.432.79-3 1.304-4.624 1.513l-.182-.595a.584.584 0 00-.558-.414h-3.649a.584.584 0 00-.558.414l-.182.595a13.136 13.136 0 01-4.623-1.513c-3.973-2.29-3.973-5.99 0-8.268a15.894 15.894 0 0114.375 0c3.974 2.29 3.974 5.99 0 8.28v-.012z" fill="url(#Q)" fill-rule="nonzero"/><path d="M240.907 284.917a15.973 15.973 0 00-14.375 0c-2.078 1.204-3.064 2.782-2.96 4.36a5.178 5.178 0 012.96-3.88 15.894 15.894 0 0114.375 0 5.178 5.178 0 012.974 3.88c.104-1.578-.896-3.156-2.974-4.36z" fill="#FFF" fill-rule="nonzero"/><path d="M242.387 294.142a19.295 19.295 0 01-17.413-.155c-2.286-1.294-3.467-3.053-3.558-4.774-.091 1.863 1.09 3.765 3.558 5.175a19.295 19.295 0 0017.413.142c2.533-1.423 3.74-3.338 3.636-5.175-.077 1.734-1.285 3.467-3.636 4.787z" fill="#FFF" fill-rule="nonzero"/><rect fill="#28296F" fill-rule="nonzero" x="232.35" y="294.867" width="2.727" height="1" rx=".21"/><path d="M234.817 294.867h-2.182a.285.285 0 00-.285.271.18.18 0 000 .078.26.26 0 01.26-.207h2.181c.122.006.226.09.26.207v-.078a.285.285 0 00-.234-.271z" fill="url(#R)" fill-rule="nonzero"/><path d="M74.913 281.204l3.896 2.057 39.54-22.744a2.853 2.853 0 012.598.103l68.2 39.228c.65-.363 3.623-1.786 3.623-1.786l-1.442 3.752a.829.829 0 01-.402.453l-41.619 23.883a2.853 2.853 0 01-2.597-.103l-69.784-40.108a1.296 1.296 0 01-.584-.62l-1.429-4.115z" fill="url(#S)" fill-rule="nonzero"/><path d="M75.524 281.851l71.524 41.143c.8.437 1.76.48 2.597.116l42.683-24.582c.676-.388.585-1.074-.194-1.527l-71.525-41.142a2.957 2.957 0 00-2.597-.104L75.33 280.337c-.701.389-.584 1.061.195 1.514z" fill="url(#T)" fill-rule="nonzero"/><path fill="#282567" fill-rule="nonzero" d="M100.365 276.275l48.436 27.855 2.285-1.32-48.423-27.855z"/><path fill="#10113C" fill-rule="nonzero" opacity=".4" d="M96.703 278.384l57.02 32.797 2.298-1.32L99 277.065zM93.041 280.493l57.02 32.797 2.285-1.32-57.006-32.797z"/><path fill="#282567" fill-rule="nonzero" d="M89.366 282.602l57.02 32.797 2.298-1.32-57.02-32.797z"/><path fill="#10113C" fill-rule="nonzero" opacity=".4" d="M163.462 303.444l-55.176-31.736-2.285 1.332 54.747 31.491 2.298 1.32 2.298-1.32zM146.009 302.526l11.401 6.56 2.299-1.32-11.48-6.612z"/><path d="M75.03 280.156l9.09-53.446-.727-.31 1.09-.622c.27-.145.6-.12.845.065l72.264 41.57c.617.397.974 1.093.935 1.824l-9.09 53.873a.673.673 0 01-.376.543l-1.078.621-.182-.996h.065l-71.94-41.297a2.016 2.016 0 01-.896-1.825z" fill="url(#U)" fill-rule="nonzero"/><path d="M157.138 268.874l1.181-.53c.131.278.185.587.156.893l-9.09 53.873a.673.673 0 01-.376.543l-1.078.621-.182-.996h.065l-3.636-2.083 12.96-52.32z" fill="url(#V)" fill-rule="nonzero"/><path d="M74.835 282.627l72.252 41.57c.558.323 1.039.13 1.143-.44l9.09-53.873a2.03 2.03 0 00-.949-1.825l-72.225-41.53c-.558-.324-1.039-.142-1.143.44l-9.09 53.873c-.03.715.32 1.394.922 1.785z" fill="url(#W)" fill-rule="nonzero"/></g></svg>