<svg aria-hidden="true" style="position:absolute;width:0;height:0" xmlns="http://www.w3.org/2000/svg" overflow="hidden"><defs><symbol id="icon-arrow-left" viewBox="0 0 92 92"><path d="M84 46c0 2.2-1.8 4-4 4H21.6l18.1 18.2c1.6 1.6 1.6 4.1 0 5.7-.7.7-1.7 1.1-2.8 1.1-1 0-2.1-.4-2.8-1.2l-24.9-25c-1.6-1.6-1.6-4.1 0-5.6l24.9-25c1.6-1.6 4.1-1.6 5.7 0 1.6 1.6 1.6 4.1 0 5.7L21.6 42H80c2.2 0 4 1.8 4 4z"/></symbol><symbol id="icon-arrow-right" viewBox="0 0 92 92"><path d="M82.8 48.8l-24.9 25c-.8.8-1.8 1.2-2.8 1.2-1 0-2-.4-2.8-1.2-1.6-1.6-1.6-4.1 0-5.7L70.4 50H12c-2.2 0-4-1.8-4-4s1.8-4 4-4h58.4L52.2 23.8c-1.6-1.6-1.6-4.1 0-5.7 1.6-1.6 4.1-1.6 5.7 0l24.9 25c1.6 1.6 1.6 4.2 0 5.7z"/></symbol><symbol id="icon-check" viewBox="0 0 92 92"><path d="M34.4 72c-1.2 0-2.3-.4-3.2-1.3L11.3 50.8c-1.8-1.8-1.8-4.6 0-6.4 1.8-1.8 4.6-1.8 6.4 0l16.8 16.7 39.9-39.8c1.8-1.8 4.6-1.8 6.4 0 1.8 1.8 1.8 4.6 0 6.4l-43.1 43c-1 .9-2.1 1.3-3.3 1.3z"/></symbol><symbol id="icon-chevron-down" viewBox="0 0 92 92"><path d="M46 63c-1.1 0-2.1-.4-2.9-1.2l-25-26c-1.5-1.6-1.5-4.1.1-5.7 1.6-1.5 4.1-1.5 5.7.1l22.1 23 22.1-23c1.5-1.6 4.1-1.6 5.7-.1 1.6 1.5 1.6 4.1.1 5.7l-25 26c-.8.8-1.8 1.2-2.9 1.2z"/></symbol><symbol id="icon-close" viewBox="0 0 92 92"><path d="M70.7 64.3c1.8 1.8 1.8 4.6 0 6.4-.9.9-2 1.3-3.2 1.3-1.2 0-2.3-.4-3.2-1.3L46 52.4 27.7 70.7c-.9.9-2 1.3-3.2 1.3s-2.3-.4-3.2-1.3c-1.8-1.8-1.8-4.6 0-6.4L39.6 46 21.3 27.7c-1.8-1.8-1.8-4.6 0-6.4 1.8-1.8 4.6-1.8 6.4 0L46 39.6l18.3-18.3c1.8-1.8 4.6-1.8 6.4 0 1.8 1.8 1.8 4.6 0 6.4L52.4 46l18.3 18.3z"/></symbol><symbol id="icon-mail" viewBox="0 0 24 24"><path fill="#FF8617" d="M3 7.921l8.427 5.899c.34.235.795.246 1.147 0L21 7.921V18c0 .272-.11.521-.295.705S20.272 19 20 19H4c-.272 0-.521-.11-.705-.295S3 18.272 3 18zM1 6.012V18c0 .828.34 1.579.88 2.12S3.172 21 4 21h16c.828 0 1.579-.34 2.12-.88S23 18.828 23 18V6.012v-.03a2.995 2.995 0 00-.88-2.102A2.998 2.998 0 0020 3H4c-.828 0-1.579.34-2.12.88A2.995 2.995 0 001 5.983V6zm19.894-.458L12 11.779 3.106 5.554a.999.999 0 01.188-.259A.994.994 0 014 5h16a1.016 1.016 0 01.893.554z"/></symbol><symbol id="icon-phone" viewBox="0 0 24 24"><path fill="#FF8617" transform="rotate(270 12 12)" d="M23 16.92a3.006 3.006 0 00-2.598-3.023c-.8-.098-1.695-.314-2.586-.646a3.045 3.045 0 00-1.344-.174 2.987 2.987 0 00-1.819.855l-.72.72a14.84 14.84 0 01-4.583-4.589l.726-.726c.322-.33.563-.726.707-1.156a2.992 2.992 0 00-.039-2.011 11.591 11.591 0 01-.644-2.595 3.011 3.011 0 00-.963-1.805A2.986 2.986 0 007.11 1H4.114a2.998 2.998 0 00-2.989 3.277c.3 3.076 1.365 6.243 3.216 9.102 1.502 2.413 3.648 4.623 6.298 6.306 2.568 1.697 5.684 2.862 9.086 3.231a2.994 2.994 0 002.406-.874c.54-.544.873-1.297.87-2.121zm-2 0v3a.997.997 0 01-.996 1.008l-.088-.004c-3.06-.333-5.873-1.388-8.174-2.909-2.428-1.543-4.359-3.538-5.702-5.694-1.697-2.62-2.655-5.481-2.924-8.238-.024-.268.064-.526.229-.724s.403-.33.678-.355L7.11 3a.995.995 0 01.687.256c.17.154.288.366.323.608.142 1.072.408 2.117.757 3.025.081.216.08.447.01.658a1.049 1.049 0 01-.242.395L7.383 9.203a1.001 1.001 0 00-.162 1.201c1.584 2.785 3.839 4.957 6.381 6.378.397.222.882.144 1.195-.166l1.27-1.27a.984.984 0 01.598-.279c.152-.015.31.005.459.06 1.022.381 2.07.636 3.034.754a.976.976 0 01.615.355c.147.181.231.412.226.682z"/></symbol><symbol id="icon-web" viewBox="0 0 92 92"><path d="M46 0C20.6 0 0 20.6 0 46s20.6 46 46 46 46-20.6 46-46S71.4 0 46 0zm3.7 83.8c-.2 0-.4 0-.7.1V62.2c5.2-.1 9.9-.2 14.2-.5-3.8 11.7-10.9 19.5-13.5 22.1zm-7.4 0c-2.7-2.7-9.7-10.5-13.5-22.1 4.2.3 9 .5 14.2.5v21.7c-.2 0-.4-.1-.7-.1zM8 46c0-2.5.3-5 .7-7.4 2.2-.4 6.4-1 12.3-1.6-.5 2.9-.8 5.9-.8 9.1 0 3.2.3 6.2.7 9-5.8-.6-10.1-1.2-12.3-1.6-.3-2.5-.6-5-.6-7.5zm18.3 0c0-3.4.4-6.6 1-9.6 4.6-.3 9.8-.6 15.7-.6v20.4c-5.8-.1-11.1-.3-15.8-.7-.5-2.9-.9-6.1-.9-9.5zM49.6 8.2c2.7 2.7 9.6 10.7 13.5 22.1-4.2-.3-8.9-.5-14.1-.5V8.1c.2 0 .4.1.6.1zM43 8.1v21.7c-5.2.1-9.9.2-14.1.5 3.8-11.4 10.8-19.4 13.4-22.1.3 0 .5-.1.7-.1zm6 48.1V35.8c5.8.1 11.1.3 15.7.6.6 3 1 6.2 1 9.6 0 3.4-.3 6.6-.9 9.6-4.6.3-9.9.5-15.8.6zM70.9 37c5.9.6 10.1 1.2 12.3 1.6.5 2.4.8 4.9.8 7.4s-.3 5-.7 7.4c-2.2.4-6.4 1-12.3 1.6.5-2.9.7-5.9.7-9.1 0-3-.3-6.1-.8-8.9zm10.5-4.8c-2.8-.4-6.8-.9-11.9-1.4-2.4-8.6-6.6-15.5-10.1-20.4 10.1 3.8 18.1 11.8 22 21.8zM32.6 10.4c-3.6 4.8-7.7 11.7-10.1 20.3-5 .4-9 1-11.9 1.4 3.9-9.9 12-17.9 22-21.7zm-22 49.4c2.8.4 6.8.9 11.8 1.4 2.4 8.6 6.4 15.5 10 20.3-10-3.9-17.9-11.8-21.8-21.7zm49 21.7c3.6-4.8 7.6-11.6 10-20.2 5-.4 9-1 11.8-1.4-3.9 9.8-11.8 17.7-21.8 21.6z"/></symbol></defs></svg>