<svg aria-hidden="true" style="position: absolute; width: 0; height: 0; overflow: hidden;" version="1.1" xmlns="http://www.w3.org/2000/svg" xmlns:xlink="http://www.w3.org/1999/xlink">
	<defs>
  	<symbol id="icon-arrow-left" viewBox="0 0 92 92">
			<path d="M84,46c0,2.2-1.8,4-4,4H21.6l18.1,18.2c1.6,1.6,1.6,4.1,0,5.7C39,74.6,38,75,36.9,75c-1,0-2.1-0.4-2.8-1.2
        l-24.9-25c-1.6-1.6-1.6-4.1,0-5.6l24.9-25c1.6-1.6,4.1-1.6,5.7,0c1.6,1.6,1.6,4.1,0,5.7L21.6,42H80C82.2,42,84,43.8,84,46z"></path>
		</symbol>
		<symbol id="icon-arrow-right" viewBox="0 0 92 92">
			<path d="M82.8,48.8l-24.9,25c-0.8,0.8-1.8,1.2-2.8,1.2c-1,0-2-0.4-2.8-1.2c-1.6-1.6-1.6-4.1,0-5.7L70.4,50H12
        c-2.2,0-4-1.8-4-4c0-2.2,1.8-4,4-4h58.4L52.2,23.8c-1.6-1.6-1.6-4.1,0-5.7c1.6-1.6,4.1-1.6,5.7,0l24.9,25
        C84.4,44.7,84.4,47.3,82.8,48.8z"></path>
		</symbol>
    <symbol id="icon-check" viewBox="0 0 92 92">
			<path d="M34.4,72c-1.2,0-2.3-0.4-3.2-1.3L11.3,50.8c-1.8-1.8-1.8-4.6,0-6.4c1.8-1.8,4.6-1.8,6.4,0l16.8,16.7
        l39.9-39.8c1.8-1.8,4.6-1.8,6.4,0c1.8,1.8,1.8,4.6,0,6.4l-43.1,43C36.7,71.6,35.6,72,34.4,72z"></path>
		</symbol>
		<symbol id="icon-chevron-down" viewBox="0 0 92 92">
			<path d="M46,63c-1.1,0-2.1-0.4-2.9-1.2l-25-26c-1.5-1.6-1.5-4.1,0.1-5.7c1.6-1.5,4.1-1.5,5.7,0.1l22.1,23l22.1-23
        c1.5-1.6,4.1-1.6,5.7-0.1c1.6,1.5,1.6,4.1,0.1,5.7l-25,26C48.1,62.6,47.1,63,46,63z"></path>
		</symbol>
		<symbol id="icon-close" viewBox="0 0 92 92">
			<path d="M70.7,64.3c1.8,1.8,1.8,4.6,0,6.4c-0.9,0.9-2,1.3-3.2,1.3c-1.2,0-2.3-0.4-3.2-1.3L46,52.4L27.7,70.7
        c-0.9,0.9-2,1.3-3.2,1.3s-2.3-0.4-3.2-1.3c-1.8-1.8-1.8-4.6,0-6.4L39.6,46L21.3,27.7c-1.8-1.8-1.8-4.6,0-6.4c1.8-1.8,4.6-1.8,6.4,0
        L46,39.6l18.3-18.3c1.8-1.8,4.6-1.8,6.4,0c1.8,1.8,1.8,4.6,0,6.4L52.4,46L70.7,64.3z"></path>
		</symbol>
		<symbol id="icon-mail" viewBox="0 0 24 24">
			<path fill="#FFFFFF" d="M3 7.921l8.427 5.899c0.34 0.235 0.795 0.246 1.147 0l8.426-5.899v10.079c0 0.272-0.11 0.521-0.295 0.705s-0.433 0.295-0.705 0.295h-16c-0.272 0-0.521-0.11-0.705-0.295s-0.295-0.433-0.295-0.705zM1 6.012v11.988c0 0.828 0.34 1.579 0.88 2.12s1.292 0.88 2.12 0.88h16c0.828 0 1.579-0.34 2.12-0.88s0.88-1.292 0.88-2.12v-11.988c0-0.010 0-0.020 0-0.030-0.005-0.821-0.343-1.565-0.88-2.102-0.541-0.54-1.292-0.88-2.12-0.88h-16c-0.828 0-1.579 0.34-2.12 0.88-0.537 0.537-0.875 1.281-0.88 2.103 0 0.005 0 0.011 0 0.017zM20.894 5.554l-8.894 6.225-8.894-6.225c0.048-0.096 0.112-0.183 0.188-0.259 0.185-0.185 0.434-0.295 0.706-0.295h16c0.272 0 0.521 0.11 0.705 0.295 0.076 0.076 0.14 0.164 0.188 0.259z"></path>
		</symbol>
		<symbol id="icon-phone" viewBox="0 0 24 24">
			<path fill="#FFFFFF" transform="rotate(270 12 12)" d="M23 16.92c0.016-0.714-0.236-1.404-0.673-1.943-0.46-0.566-1.129-0.967-1.925-1.080-0.8-0.098-1.695-0.314-2.586-0.646-0.433-0.159-0.893-0.218-1.344-0.174-0.663 0.064-1.307 0.349-1.819 0.855l-0.72 0.72c-1.77-1.117-3.36-2.667-4.583-4.589l0.726-0.726c0.322-0.33 0.563-0.726 0.707-1.156 0.212-0.632 0.214-1.336-0.039-2.011-0.289-0.753-0.518-1.644-0.644-2.595-0.104-0.715-0.455-1.347-0.963-1.805-0.539-0.485-1.256-0.778-2.027-0.77h-2.996c-0.088 0-0.182 0.004-0.273 0.012-0.824 0.075-1.542 0.478-2.033 1.066s-0.758 1.367-0.683 2.199c0.3 3.076 1.365 6.243 3.216 9.102 1.502 2.413 3.648 4.623 6.298 6.306 2.568 1.697 5.684 2.862 9.086 3.231 0.092 0.009 0.191 0.013 0.288 0.013 0.828-0.003 1.578-0.343 2.118-0.887s0.873-1.297 0.87-2.121zM21 16.92v3c0.001 0.28-0.109 0.53-0.29 0.712s-0.429 0.295-0.706 0.296l-0.088-0.004c-3.060-0.333-5.873-1.388-8.174-2.909-2.428-1.543-4.359-3.538-5.702-5.694-1.697-2.62-2.655-5.481-2.924-8.238-0.024-0.268 0.064-0.526 0.229-0.724s0.403-0.33 0.678-0.355l3.087-0.004c0.271-0.003 0.507 0.094 0.687 0.256 0.17 0.154 0.288 0.366 0.323 0.608 0.142 1.072 0.408 2.117 0.757 3.025 0.081 0.216 0.080 0.447 0.010 0.658-0.049 0.145-0.131 0.281-0.242 0.395l-1.262 1.261c-0.324 0.324-0.379 0.814-0.162 1.201 1.584 2.785 3.839 4.957 6.381 6.378 0.397 0.222 0.882 0.144 1.195-0.166l1.27-1.27c0.166-0.164 0.377-0.257 0.598-0.279 0.152-0.015 0.31 0.005 0.459 0.060 1.022 0.381 2.070 0.636 3.034 0.754 0.241 0.034 0.462 0.166 0.615 0.355 0.147 0.181 0.231 0.412 0.226 0.682z"></path>
		</symbol>
		<symbol id="icon-web" viewBox="0 0 92 92">
			<path d="M46,0C20.6,0,0,20.6,0,46s20.6,46,46,46s46-20.6,46-46S71.4,0,46,0z M49.7,83.8c-0.2,0-0.4,0-0.7,0.1V62.2
        c5.2-0.1,9.9-0.2,14.2-0.5C59.4,73.4,52.3,81.2,49.7,83.8z M42.3,83.8c-2.7-2.7-9.7-10.5-13.5-22.1c4.2,0.3,9,0.5,14.2,0.5v21.7
        C42.8,83.9,42.6,83.8,42.3,83.8z M8,46c0-2.5,0.3-5,0.7-7.4c2.2-0.4,6.4-1,12.3-1.6c-0.5,2.9-0.8,5.9-0.8,9.1c0,3.2,0.3,6.2,0.7,9
        c-5.8-0.6-10.1-1.2-12.3-1.6C8.3,51,8,48.5,8,46z M26.3,46c0-3.4,0.4-6.6,1-9.6c4.6-0.3,9.8-0.6,15.7-0.6v20.4
        c-5.8-0.1-11.1-0.3-15.8-0.7C26.7,52.6,26.3,49.4,26.3,46z M49.6,8.2c2.7,2.7,9.6,10.7,13.5,22.1c-4.2-0.3-8.9-0.5-14.1-0.5V8.1
        C49.2,8.1,49.4,8.2,49.6,8.2z M43,8.1v21.7c-5.2,0.1-9.9,0.2-14.1,0.5c3.8-11.4,10.8-19.4,13.4-22.1C42.6,8.2,42.8,8.1,43,8.1z
        M49,56.2V35.8c5.8,0.1,11.1,0.3,15.7,0.6c0.6,3,1,6.2,1,9.6c0,3.4-0.3,6.6-0.9,9.6C60.2,55.9,54.9,56.1,49,56.2z M70.9,37
        c5.9,0.6,10.1,1.2,12.3,1.6C83.7,41,84,43.5,84,46c0,2.5-0.3,5-0.7,7.4c-2.2,0.4-6.4,1-12.3,1.6c0.5-2.9,0.7-5.9,0.7-9.1
        C71.7,42.9,71.4,39.8,70.9,37z M81.4,32.2c-2.8-0.4-6.8-0.9-11.9-1.4c-2.4-8.6-6.6-15.5-10.1-20.4C69.5,14.2,77.5,22.2,81.4,32.2z
        M32.6,10.4c-3.6,4.8-7.7,11.7-10.1,20.3c-5,0.4-9,1-11.9,1.4C14.5,22.2,22.6,14.2,32.6,10.4z M10.6,59.8c2.8,0.4,6.8,0.9,11.8,1.4
        c2.4,8.6,6.4,15.5,10,20.3C22.4,77.6,14.5,69.7,10.6,59.8z M59.6,81.5c3.6-4.8,7.6-11.6,10-20.2c5-0.4,9-1,11.8-1.4
        C77.5,69.7,69.6,77.6,59.6,81.5z"></path>
		</symbol>
	</defs>
</svg>