<?xml version="1.0" encoding="utf-8" ?>
<svg xmlns="http://www.w3.org/2000/svg" xmlns:xlink="http://www.w3.org/1999/xlink" width="195" height="40">
	<defs>
		<clipPath id="clip_0">
			<rect x="-120" y="-31" width="1440" height="6794" clip-rule="evenodd"/>
		</clipPath>
	</defs>
	<g clip-path="url(#clip_0)">
		<path fill="rgb(255,255,255)" stroke="none" transform="translate(0 13)" d="M4.83105 17.7262C1.83595 15.983 0.00513991 12.8699 1.08048e-05 9.51142C-0.0051183 6.15298 1.81617 3.03471 4.80594 1.28309C6.26741 0.430316 7.94855 -0.0138022 9.6595 0.000898553C10.7624 -0.0138654 11.8598 0.153408 12.9036 0.495396C13.9355 0.859377 14.8911 1.39736 15.7253 2.08391C15.9069 2.21041 16.0099 2.41601 15.9993 2.63092C15.9995 2.75212 15.9647 2.87102 15.8988 2.97445C15.8329 3.07248 15.7373 3.14883 15.6248 3.19325C15.5907 3.30714 15.5077 3.40178 15.3966 3.45363C15.2852 3.51661 15.1583 3.54986 15.029 3.5499C14.801 3.55623 14.5794 3.47783 14.4103 3.3311C13.799 2.79731 13.0826 2.38594 12.3032 2.12111C11.4488 1.85318 10.5537 1.72449 9.65493 1.74039C8.29272 1.74218 6.95893 2.11392 5.80816 2.81253C4.62471 3.51193 3.64903 4.49151 2.97501 5.65699C2.27801 6.82762 1.91502 8.15356 1.92257 9.50138C1.90923 10.863 2.26815 12.2043 2.9636 13.3917C3.62893 14.5538 4.60122 15.5279 5.78304 16.2165C6.94944 16.9053 8.29401 17.2669 9.66406 17.2602C11.4409 17.2646 13.1638 16.675 14.5359 15.5929C14.6913 15.4742 14.8829 15.4074 15.0815 15.4025C15.3285 15.4024 15.565 15.4982 15.7371 15.6681C15.9092 15.8379 16.0021 16.0674 15.9947 16.304C15.9938 16.5482 15.8958 16.7829 15.7207 16.9604C14.1683 18.3214 12.1464 19.0011 9.65493 18.9997C7.95463 19.0139 6.28395 18.5729 4.83105 17.7262L4.83105 17.7262Z"/>
	</g>
	<defs>
		<clipPath id="clip_1">
			<rect x="-120" y="-31" width="1440" height="6794" clip-rule="evenodd"/>
		</clipPath>
	</defs>
	<g clip-path="url(#clip_1)">
		<path fill="rgb(255,255,255)" stroke="none" transform="translate(33 14)" d="M11.7367 18.7507C11.9104 18.6088 12.0077 18.3932 11.9995 18.1684C11.9886 17.9335 11.9147 17.706 11.7857 17.5099L7.82177 11.1585C10.0853 10.4092 11.5958 8.26009 11.543 5.86419C11.5627 4.79603 11.2917 3.74278 10.7591 2.81838C10.2428 1.93804 9.49337 1.21929 8.59452 0.742302C7.62617 0.236643 6.5477 -0.0181454 5.45675 0.00100506L0.938269 0.00100506C0.686219 -0.00792181 0.441867 0.0891705 0.263953 0.268943C0.086039 0.448715 -0.00934718 0.694908 0.000723843 0.948342L0.000723843 18.0407C-0.00504995 18.4282 0.224991 18.78 0.581067 18.9282C0.937144 19.0763 1.34709 18.9909 1.61526 18.7126C1.79248 18.5352 1.88915 18.2921 1.8825 18.0407L1.8825 11.546L5.86874 11.546L10.2157 18.4886C10.2973 18.6363 10.4135 18.7616 10.5542 18.8537C10.6993 18.9385 10.8653 18.9805 11.033 18.9746C11.2865 18.9854 11.5356 18.9061 11.7367 18.7507ZM7.64139 9.21906C6.96282 9.55706 6.21391 9.7275 5.45675 9.71624L1.89363 9.71624L1.89363 1.82401L5.45675 1.82401C6.21969 1.8106 6.9743 1.98514 7.65475 2.33239C8.2809 2.65868 8.8033 3.15533 9.16239 3.76572C9.52976 4.39929 9.71768 5.12191 9.70577 5.85523C9.71766 6.55749 9.52908 7.24845 9.16239 7.84621C8.79182 8.43684 8.26519 8.91218 7.64139 9.21906Z" fill-rule="evenodd"/>
	</g>
	<defs>
		<clipPath id="clip_2">
			<rect x="-120" y="-31" width="1440" height="6794" clip-rule="evenodd"/>
		</clipPath>
	</defs>
	<g clip-path="url(#clip_2)">
		<path fill="rgb(255,255,255)" stroke="none" transform="translate(62 14)" d="M0.295309 18.7082C0.101181 18.5337 -0.00603176 18.2893 0.000262331 18.0354L0.000262331 0.942302C-0.00603176 0.688476 0.101181 0.444004 0.295309 0.269521C0.482934 0.0919527 0.738663 -0.00523533 1.00342 0.000408502C1.27037 -0.00714927 1.52874 0.0904414 1.71736 0.270076C1.90598 0.449711 2.00809 0.695419 1.9995 0.94903L1.9995 18.0466C2.00599 18.2983 1.90362 18.5415 1.71625 18.7194C1.53261 18.9039 1.2753 19.0057 1.00814 18.9998C0.737534 19.0041 0.477957 18.898 0.295309 18.7082Z"/>
	</g>
	<defs>
		<clipPath id="clip_3">
			<rect x="-120" y="-31" width="1440" height="6794" clip-rule="evenodd"/>
		</clipPath>
	</defs>
	<g clip-path="url(#clip_3)">
		<path fill="rgb(255,255,255)" stroke="none" transform="translate(81 14)" d="M14.9997 18.0749C15.006 18.3173 14.9181 18.5527 14.7543 18.732C14.5648 18.9153 14.3073 19.0114 14.0436 18.9974C13.7799 18.9833 13.5341 18.8603 13.3653 18.658L7.53035 10.6083L1.5828 18.7074C1.4139 18.9018 1.16536 19.0091 0.907459 18.9989C0.661094 19.0111 0.421196 18.9181 0.247871 18.7432C0.0840812 18.5783 -0.00530965 18.354 0.000244171 18.122C0.000868569 17.8849 0.0799997 17.6547 0.225359 17.4671L6.25845 9.29399L0.614809 1.48652C0.497861 1.31364 0.431598 1.1117 0.423461 0.90337C0.417839 0.669301 0.504282 0.442315 0.664334 0.270877C0.826574 0.0921004 1.05964 -0.00636312 1.30141 0.00173159C1.58773 -0.0166272 1.86364 0.111938 2.03304 0.34265L7.57537 7.96845L13.1898 0.34265C13.3645 0.117297 13.638 -0.00975534 13.9236 0.00173159C14.1668 -0.00476979 14.4 0.0982093 14.5585 0.282092C14.8531 0.621113 14.8827 1.11503 14.6305 1.48652L8.86754 9.26932L14.8016 17.4671C14.9319 17.6429 15.0015 17.8562 14.9997 18.0749L14.9997 18.0749Z"/>
	</g>
	<defs>
		<clipPath id="clip_4">
			<rect x="-120" y="-31" width="1440" height="6794" clip-rule="evenodd"/>
		</clipPath>
	</defs>
	<g clip-path="url(#clip_4)">
		<path fill="rgb(255,255,255)" stroke="none" transform="translate(111 14)" d="M14.7601 0.245594C14.9224 0.414034 15.009 0.642826 14.9993 0.877983C15.0054 1.10522 14.9189 1.325 14.7601 1.4857C14.5932 1.64918 14.3677 1.73665 14.1357 1.7279L8.42034 1.7279L8.42034 18.0467C8.4254 18.2981 8.32951 18.5409 8.15461 18.7194C7.98232 18.9039 7.74093 19.0057 7.4903 18.9998C6.97399 18.9973 6.55604 18.574 6.55361 18.0512L6.55361 1.7279L0.864868 1.7279C0.632032 1.73754 0.405493 1.64998 0.238198 1.4857C0.0809098 1.32418 -0.00464029 1.10476 0.00125871 0.877983C-0.0116436 0.642067 0.0751142 0.411722 0.23988 0.244435C0.404647 0.0771471 0.631879 -0.0113025 0.864868 0.0011595L14.1512 0.0011595C14.3782 -0.00273687 14.5974 0.0852432 14.7601 0.245594L14.7601 0.245594Z"/>
	</g>
	<defs>
		<clipPath id="clip_5">
			<rect x="-120" y="-31" width="1440" height="6794" clip-rule="evenodd"/>
		</clipPath>
	</defs>
	<g clip-path="url(#clip_5)">
		<path fill="rgb(255,255,255)" stroke="none" transform="translate(180 14)" d="M0.261257 18.7192C0.089 18.5394 -0.00501724 18.2972 0.000206615 18.0467L0.000206615 0.948759C-2.90895e-05 0.54944 0.246692 0.192772 0.617241 0.056751C0.987791 -0.07927 1.40274 0.0345145 1.655 0.34132L13.1235 15.6058L13.1235 0.948759C13.1176 0.695061 13.2181 0.450712 13.4 0.276317C13.5759 0.0988382 13.8156 0.00169918 14.0637 0.00734016C14.3143 -0.000845956 14.5571 0.0964162 14.7343 0.276033C14.9116 0.455649 15.0076 0.701599 14.9995 0.955483L14.9995 18.0445C15.0046 18.2958 14.9088 18.5385 14.7341 18.7169C14.5619 18.9013 14.3208 19.0031 14.0704 18.9971C13.7998 19.0205 13.5365 18.9011 13.3735 18.6811L1.8718 3.40317L1.8718 18.0355C1.87669 18.2864 1.78182 18.5287 1.60854 18.708C1.43642 18.8923 1.19525 18.9941 0.944854 18.9881C0.690184 18.9975 0.442943 18.9002 0.261257 18.7192Z"/>
	</g>
	<defs>
		<clipPath id="clip_6">
			<rect x="-120" y="-31" width="1440" height="6794" clip-rule="evenodd"/>
		</clipPath>
		<linearGradient id="gradient_0" gradientUnits="userSpaceOnUse" x1="-3.2519515" y1="6" x2="13.524085" y2="12">
			<stop offset="0" stop-color="rgb(255,134,23)"/>
			<stop offset="1" stop-color="rgb(158,48,201)"/>
		</linearGradient>
	</defs>
	<g clip-path="url(#clip_6)">
		<path fill="url(#gradient_0)" stroke="none" transform="translate(151 0)" d="M13.3513 2.45777C14.5257 3.23987 15.1822 4.18702 15.6793 5.46177C15.8101 6.04902 15.8595 6.61083 15.6793 7.18623C15.4543 7.89984 15.3209 8.79286 14.9566 9.45296C14.589 10.1248 14.1231 10.7859 13.8149 11.4858C13.7372 11.6608 13.6847 11.8423 13.6025 12C10.2847 8.11138 3.82021 8.54345 0 9.01873C0.0411021 8.68604 0.148424 8.28853 0.175826 8.13299C0.310549 7.4352 0.458973 6.73957 0.646216 6.05474C0.833459 5.36991 1.33368 4.51377 1.51875 3.81887C1.88124 2.45777 1.88124 2.64051 2.95067 1.51475C3.0991 1.39809 3.26533 1.34951 3.42061 1.23502C6.60374 -1.07655 9.94443 0.159165 13.3513 2.45777Z"/>
	</g>
	<defs>
		<clipPath id="clip_7">
			<rect x="-120" y="-31" width="1440" height="6794" clip-rule="evenodd"/>
		</clipPath>
		<linearGradient id="gradient_1" gradientUnits="userSpaceOnUse" x1="15.000001" y1="2.7356484" x2="-1.2480975" y2="14.556789">
			<stop offset="0" stop-color="rgb(255,134,23)"/>
			<stop offset="0.50656128" stop-color="rgb(215,37,131)"/>
			<stop offset="1" stop-color="rgb(158,48,201)"/>
		</linearGradient>
	</defs>
	<g clip-path="url(#clip_7)">
		<path fill="url(#gradient_1)" stroke="none" transform="translate(152 7)" d="M3.75178 30.2217C2.95857 29.378 2.29785 28.4069 1.79433 27.3449C1.26557 26.2916 0.821066 25.1938 0.465438 24.0629C0.247944 23.3191 0.178345 22.5295 0 21.7743C0.952626 19.6824 2.67736 17.3228 5.43736 14.7435C8.95207 11.4707 10.829 7.91418 13.1062 3.75797C13.5036 3.05659 13.8588 2.32965 14.1698 1.58146C14.376 1.06836 14.5454 0.539728 14.6765 0C15.4921 4.07381 14.483 10.7887 14.6896 12.9263C15.3421 19.7145 9.77855 22.4586 9.40881 28.107C9.25656 30.4277 7.70365 31.5697 6.05287 31.9245C5.91136 31.9683 5.76527 31.9937 5.61788 32C5.61788 32 3.8975 30.3705 3.75178 30.2217Z"/>
	</g>
	<defs>
		<clipPath id="clip_8">
			<rect x="-120" y="-31" width="1440" height="6794" clip-rule="evenodd"/>
		</clipPath>
		<linearGradient id="gradient_2" gradientUnits="userSpaceOnUse" x1="3.260855" y1="39.932568" x2="22.486382" y2="1.9803629">
			<stop offset="0" stop-color="rgb(255,134,23)"/>
			<stop offset="0.50656128" stop-color="rgb(215,37,131)"/>
			<stop offset="1" stop-color="rgb(97,48,201)"/>
		</linearGradient>
	</defs>
	<g clip-path="url(#clip_8)">
		<path fill="url(#gradient_2)" stroke="none" transform="translate(138 3)" d="M14.4597 1.09703C13.9605 2.82961 13.6044 4.59884 13.395 6.38753C11.9778 12.6995 12.4611 20.6054 14.5624 26.8075C14.5624 26.7937 15.7648 30.7536 16.3671 31.9193C16.9204 33.028 17.6502 34.043 18.5291 34.9264C18.9961 35.3707 19.2482 35.5534 19.7852 36C19.7852 36 18.4684 36.4288 17.8964 36.422C16.1804 36.5273 14.1608 36.8594 12.4821 36.8594C10.7147 37.0037 8.36599 37.1411 6.68497 36.7059C3.36731 35.8471 1.44348 32.8835 0.180385 24.4622C-0.288797 21.267 0.161626 18.0068 1.48084 15.0493C1.47969 15.0584 1.47969 15.0676 1.48084 15.0768C1.60224 14.818 1.73999 14.566 1.88475 14.3187C1.91743 14.2431 1.95245 14.1675 1.98981 14.0897C2.02716 14.0118 1.98981 13.9797 1.98981 13.9271C2.7312 12.4661 3.60727 11.0747 4.60705 9.77024C4.60705 9.79314 4.60705 9.81833 4.60705 9.84352C4.77282 9.5893 4.95726 9.33738 5.15805 9.08545C5.15949 9.08176 5.15949 9.07768 5.15805 9.074C5.81178 8.25409 6.51687 7.45708 7.25932 6.68297C8.87496 4.47516 12.4238 1.83221 14.7468 0C14.6394 0.364151 14.5577 0.746624 14.4597 1.09703Z"/>
	</g>

</svg>