<svg xmlns="http://www.w3.org/2000/svg" width="195" height="40"><defs><clipPath id="a"><path clip-rule="evenodd" d="M-120-31h1440v6794H-120z"/></clipPath></defs><g clip-path="url(#a)"><path fill="#FFF" d="M4.831 30.726C1.836 28.983.005 25.87 0 22.511c-.005-3.358 1.816-6.476 4.806-8.228a9.478 9.478 0 014.853-1.282 9.995 9.995 0 013.245.494 9.315 9.315 0 012.821 1.589.63.63 0 01.274.547c0 .121-.034.24-.1.343a.59.59 0 01-.274.22.423.423 0 01-.228.26.748.748 0 01-.368.096.906.906 0 01-.619-.219 6.268 6.268 0 00-2.107-1.21 8.36 8.36 0 00-2.648-.38 7.438 7.438 0 00-3.847 1.072 7.917 7.917 0 00-2.833 2.844 7.427 7.427 0 00-1.052 3.844 7.545 7.545 0 001.04 3.89 7.716 7.716 0 002.82 2.826 7.567 7.567 0 003.881 1.043 7.843 7.843 0 004.872-1.667.938.938 0 01.546-.19c.246 0 .483.095.655.265.172.17.265.4.258.636a.94.94 0 01-.274.656c-1.553 1.361-3.575 2.041-6.066 2.04a9.433 9.433 0 01-4.824-1.274z"/></g><defs><clipPath id="b"><path clip-rule="evenodd" d="M-120-31h1440v6794H-120z"/></clipPath></defs><g clip-path="url(#b)"><path fill="#FFF" d="M44.737 32.75a.718.718 0 00.262-.582 1.309 1.309 0 00-.213-.658l-3.964-6.352a5.445 5.445 0 003.721-5.294 5.884 5.884 0 00-.784-3.046 5.498 5.498 0 00-2.164-2.076 6.53 6.53 0 00-3.138-.741h-4.519a.904.904 0 00-.674.268.914.914 0 00-.263.68V32.04a.945.945 0 00.58.887.936.936 0 001.034-.215.917.917 0 00.268-.672v-6.495h3.986l4.347 6.943c.081.147.198.273.338.365a.887.887 0 00.479.12c.254.011.503-.068.704-.223zm-4.096-9.53a4.741 4.741 0 01-2.184.496h-3.563v-7.892h3.563a4.655 4.655 0 012.198.508 3.773 3.773 0 011.507 1.434c.368.633.556 1.356.544 2.09a3.689 3.689 0 01-.544 1.99 3.75 3.75 0 01-1.52 1.373z" fill-rule="evenodd"/></g><defs><clipPath id="c"><path clip-rule="evenodd" d="M-120-31h1440v6794H-120z"/></clipPath></defs><g clip-path="url(#c)"><path fill="#FFF" d="M62.295 32.708a.875.875 0 01-.295-.673V14.942a.875.875 0 01.295-.672 1 1 0 01.708-.27.995.995 0 01.714.27c.189.18.291.425.283.679v17.098a.896.896 0 01-.284.672.97.97 0 01-.708.28.968.968 0 01-.713-.29z"/></g><defs><clipPath id="d"><path clip-rule="evenodd" d="M-120-31h1440v6794H-120z"/></clipPath></defs><g clip-path="url(#d)"><path fill="#FFF" d="M96 32.075a.938.938 0 01-.246.657.95.95 0 01-1.389-.074l-5.835-8.05-5.947 8.1a.85.85 0 01-.676.29.868.868 0 01-.66-.255.853.853 0 01-.247-.621c0-.237.08-.467.225-.655l6.033-8.173-5.643-7.807a1.119 1.119 0 01-.192-.584.895.895 0 01.241-.632.823.823 0 01.637-.27.84.84 0 01.732.342l5.542 7.625 5.615-7.625a.884.884 0 01.734-.341.81.81 0 01.634.28.989.989 0 01.072 1.205l-5.762 7.782 5.934 8.198c.13.176.2.39.198.608z"/></g><defs><clipPath id="e"><path clip-rule="evenodd" d="M-120-31h1440v6794H-120z"/></clipPath></defs><g clip-path="url(#e)"><path fill="#FFF" d="M125.76 14.246a.86.86 0 01.24.632.833.833 0 01-.24.608.847.847 0 01-.624.242h-5.716v16.319a.935.935 0 01-.265.672.88.88 0 01-.665.28.947.947 0 01-.936-.948V15.728h-5.69a.844.844 0 01-.626-.242.84.84 0 01-.237-.608.838.838 0 01.239-.634.816.816 0 01.625-.243h13.286a.847.847 0 01.61.245z"/></g><defs><clipPath id="f"><path clip-rule="evenodd" d="M-120-31h1440v6794H-120z"/></clipPath></defs><g clip-path="url(#f)"><path fill="#FFF" d="M180.261 32.72a.944.944 0 01-.26-.673V14.949c-.001-.4.246-.756.616-.892a.928.928 0 011.038.284l11.469 15.265V14.949a.903.903 0 01.276-.673.905.905 0 01.664-.269.9.9 0 01.67.269c.178.18.274.426.266.68v17.088a.934.934 0 01-.266.673.88.88 0 01-.664.28.783.783 0 01-.696-.316l-11.502-15.278v14.633a.941.941 0 01-.263.672.88.88 0 01-.664.28.92.92 0 01-.684-.269z"/></g><defs><linearGradient id="h" gradientUnits="userSpaceOnUse" x1="-3.252" y1="6" x2="13.524" y2="12"><stop offset="0" stop-color="#FF8617"/><stop offset="1" stop-color="#9E30C9"/></linearGradient><clipPath id="g"><path clip-rule="evenodd" d="M-120-31h1440v6794H-120z"/></clipPath></defs><g clip-path="url(#g)"><path fill="url(#h)" transform="translate(151)" d="M13.351 2.458c1.175.782 1.831 1.729 2.328 3.004.131.587.18 1.149 0 1.724-.225.714-.358 1.607-.722 2.267-.368.672-.834 1.333-1.142 2.033-.078.175-.13.356-.213.514C10.285 8.111 3.82 8.543 0 9.019c.041-.333.148-.73.176-.886.135-.698.283-1.393.47-2.078.187-.685.688-1.541.873-2.236.362-1.361.362-1.178 1.432-2.304.148-.117.314-.165.47-.28C6.604-1.077 9.944.159 13.35 2.458z"/></g><defs><linearGradient id="j" gradientUnits="userSpaceOnUse" x1="15" y1="2.736" x2="-1.248" y2="14.557"><stop offset="0" stop-color="#FF8617"/><stop offset=".507" stop-color="#D72583"/><stop offset="1" stop-color="#9E30C9"/></linearGradient><clipPath id="i"><path clip-rule="evenodd" d="M-120-31h1440v6794H-120z"/></clipPath></defs><g clip-path="url(#i)"><path fill="url(#j)" transform="translate(152 7)" d="M3.752 30.222a11.207 11.207 0 01-1.958-2.877 22.077 22.077 0 01-1.329-3.282C.248 23.319.178 22.529 0 21.774c.953-2.092 2.677-4.451 5.437-7.03 3.515-3.273 5.392-6.83 7.67-10.986.397-.701.752-1.428 1.063-2.177.206-.513.375-1.041.507-1.581.815 4.074-.194 10.789.013 12.926.652 6.789-4.911 9.533-5.281 15.181-.152 2.32-1.705 3.463-3.356 3.817-.142.044-.288.07-.435.076 0 0-1.72-1.63-1.866-1.778z"/></g><defs><linearGradient id="l" gradientUnits="userSpaceOnUse" x1="3.261" y1="39.933" x2="22.486" y2="1.98"><stop offset="0" stop-color="#FF8617"/><stop offset=".507" stop-color="#D72583"/><stop offset="1" stop-color="#6130C9"/></linearGradient><clipPath id="k"><path clip-rule="evenodd" d="M-120-31h1440v6794H-120z"/></clipPath></defs><g clip-path="url(#k)"><path fill="url(#l)" transform="translate(138 3)" d="M14.46 1.097a32.943 32.943 0 00-1.065 5.29c-1.417 6.313-.934 14.218 1.167 20.42 0-.013 1.203 3.947 1.805 5.112a11.624 11.624 0 002.162 3.007c.467.445.72.627 1.256 1.074 0 0-1.317.429-1.889.422-1.716.105-3.735.437-5.414.437-1.767.145-4.116.282-5.797-.153-3.318-.859-5.242-3.823-6.505-12.244a17.021 17.021 0 011.3-9.413.11.11 0 000 .028c.122-.259.26-.511.405-.758.032-.076.067-.152.105-.23.037-.077 0-.11 0-.162A26.684 26.684 0 014.607 9.77v.074a9.87 9.87 0 01.551-.759.016.016 0 000-.011A34.88 34.88 0 017.26 6.683C8.875 4.475 12.424 1.833 14.747 0c-.108.364-.19.747-.287 1.097z"/></g></svg>