<?xml version="1.0" encoding="UTF-8"?>
<svg width="617px" height="403px" viewBox="0 0 617 403" version="1.1" xmlns="http://www.w3.org/2000/svg" xmlns:xlink="http://www.w3.org/1999/xlink">
    <!-- Generator: Sketch 56.2 (81672) - https://sketch.com -->
    <title>Shape_12@1x</title>
    <desc>Created with Sketch.</desc>
    <g id="Web" stroke="none" stroke-width="1" fill="none" fill-rule="evenodd">
        <g id="Home_Page" transform="translate(-748.000000, -4547.000000)" fill="#FFFFFF" fill-rule="nonzero">
            <g id="CONCLUSION" transform="translate(0.000000, 4043.000000)">
                <g id="BKG">
                    <g id="BKG7" transform="translate(-380.000000, -314.000000)">
                        <path d="M819.31847,1613 L816.126638,1613 C745.729005,1611.8459 701.841312,1591.51602 695.723633,1557.24818 C690.876777,1530.11208 710.500634,1496.22895 750.900955,1461.84274 C795.675269,1423.81669 864.211,1386.26411 949.119648,1353.26874 C1021.02454,1325.33365 1072.4485,1275.17477 1122.15833,1226.67306 C1160.57853,1189.20926 1200.26956,1150.47299 1249.24054,1122.24198 C1273.32705,1108.33362 1298.18197,1098.56817 1322.23893,1089.12824 C1360.30448,1074.18415 1396.2717,1060.09823 1429.4904,1030.92027 C1460.22656,1003.90253 1483.98798,970.936758 1506.95144,939.184264 C1524.41786,914.948204 1542.41624,889.913153 1563.48825,867.541405 C1615.91705,811.552851 1673.81334,808.800771 1707.91866,830.847004 C1738.27062,850.466671 1760.40656,896.364265 1731.56186,966.320365 C1718.32166,998.457558 1694.2056,1021.89463 1670.85794,1044.5623 C1649.96326,1064.833 1628.38884,1085.81391 1614.70533,1112.9796 L1614.05514,1112.65409 L1614.70533,1112.9796 C1599.27814,1143.37085 1591.41678,1177.34276 1583.79185,1210.19017 C1571.97025,1261.17763 1559.73489,1313.76308 1518.92081,1352.73608 C1473.25988,1396.14793 1395.59196,1417.60231 1281.42485,1418.28294 C1172.78434,1418.93397 1095.23464,1472.93984 1019.96059,1525.14058 C954.853125,1570.29837 893.439908,1613 819.31847,1613 Z M1662.16906,819.542761 C1632.37863,819.542761 1597.41624,833.510307 1564.64085,868.488357 C1543.68707,890.80092 1525.65912,915.835972 1508.25182,939.983255 C1485.22925,971.942894 1461.43828,1005.08622 1430.55434,1032.10396 C1397.15832,1061.42989 1361.07289,1075.57499 1322.85956,1090.57826 C1298.86171,1099.9886 1274.03635,1109.72445 1250.06805,1123.57363 C1201.3335,1151.71587 1161.67203,1190.39295 1123.34049,1227.79757 C1073.51244,1276.38805 1021.99982,1326.6653 949.79939,1354.68917 C865.068066,1387.62536 796.650551,1425.08916 752.024007,1463.02643 C711.978334,1497.05753 692.561355,1530.4376 697.319549,1557.04104 C703.23035,1590.53948 746.674733,1610.3071 816.303962,1611.57957 L819.46624,1611.57957 C893.114814,1611.57957 954.350707,1569.0259 1019.16263,1523.98649 C1094.46623,1471.63778 1172.34103,1417.45435 1281.42485,1416.86251 C1395.20776,1416.18189 1472.58014,1394.87546 1517.85687,1351.75954 C1558.3754,1313.2896 1570.55165,1260.73375 1582.31415,1209.98303 C1589.96863,1177.04684 1597.85955,1142.98615 1613.34585,1112.32857 C1627.23623,1084.95573 1648.81065,1063.88604 1669.88265,1043.52657 C1693.1121,1020.97727 1717.16906,997.628975 1730.26148,965.787705 C1758.78109,896.660188 1737.02935,851.413624 1707.20936,832.119471 C1693.72245,823.663351 1678.07997,819.295463 1662.16906,819.542761 Z" id="Shape_12"></path>
                    </g>
                </g>
            </g>
        </g>
    </g>
</svg>