<?xml version="1.0" encoding="UTF-8"?>
<svg width="810px" height="486px" viewBox="0 0 810 486" version="1.1" xmlns="http://www.w3.org/2000/svg" xmlns:xlink="http://www.w3.org/1999/xlink">
    <!-- Generator: Sketch 56.2 (81672) - https://sketch.com -->
    <title>Shape_11@1x</title>
    <desc>Created with Sketch.</desc>
    <g id="Web" stroke="none" stroke-width="1" fill="none" fill-rule="evenodd">
        <g id="Home_Page" transform="translate(0.000000, -4043.000000)" fill="#FFFFFF" fill-rule="nonzero">
            <g id="CONCLUSION" transform="translate(0.000000, 4043.000000)">
                <g id="BKG">
                    <g id="BKG7" transform="translate(-380.000000, -314.000000)">
                        <path d="M254.763278,837 C252.791045,837 250.868118,837 248.994497,837 C209.796367,835.669915 177.579941,820.300041 160.569431,794.791961 C135.660129,757.460901 144.121008,696.010962 219.292668,643.221355 L219.706837,643.812504 L219.292668,643.221355 C244.290721,625.66423 268.667521,610.383028 292.245566,595.604303 C370.730578,546.420705 438.535947,503.976206 486.668293,405.136092 C502.495463,372.415995 515.245949,332.542994 528.647272,290.453185 C564.620802,177.336822 605.150189,49.2939472 725.910014,9.6574062 C843.090237,-28.7672793 998.847336,53.7275647 1093.95827,146.685746 C1166.88159,217.948759 1201.52386,289.773364 1186.58419,338.809174 C1176.99914,370.435646 1147.71148,390.948516 1099.66789,399.815751 C1053.25138,408.682986 1009.31989,405.136092 966.956329,401.7961 C892.997592,395.88461 823.269295,390.534712 751.706822,449.531383 C700.172374,492.005439 653.134618,544.115224 607.664786,594.717579 C544.237774,665.123426 478.621583,737.923426 397.621974,789.087373 C347.714619,820.506943 298.36935,837 254.763278,837 Z M789.455361,1.46354029 C768.024645,1.29863834 746.703576,4.54137699 726.2946,11.0761638 C606.333529,50.4466877 565.804141,178.134873 530.06728,290.778317 C516.636373,333.045471 503.974637,372.977586 487.99955,405.727241 C439.66012,504.922045 371.706833,547.603003 293.014737,596.845716 C269.347941,611.624441 245.119059,626.876085 220.15059,644.403653 C145.777684,696.602111 137.316805,757.076654 161.782355,793.87568 C194.975036,843.591311 286.328867,857.483313 396.704886,787.786845 C477.526993,736.770686 543.054434,664.059358 606.422279,593.712626 C651.921694,543.198943 699.018618,490.941371 750.612232,448.4082 C822.648042,389.027282 892.613007,394.49541 966.926745,400.318228 C1009.31989,403.65822 1053.16263,407.086884 1099.40163,398.485666 C1146.73523,389.618431 1175.72705,369.430692 1185.19377,338.365812 C1199.74885,290.600972 1164.48532,217.534955 1092.95243,147.749814 C1014.46742,71.0482307 894.624685,1.46354029 789.455361,1.46354029 Z" id="Shape_11"></path>
                    </g>
                </g>
            </g>
        </g>
    </g>
</svg>