<?xml version="1.0" encoding="utf-8" ?>
<svg xmlns="http://www.w3.org/2000/svg" xmlns:xlink="http://www.w3.org/1999/xlink" width="231" height="173">
	<defs>
		<clipPath id="clip_0">
			<rect x="-607" y="-2621" width="1440" height="6794" clip-rule="evenodd"/>
		</clipPath>
	</defs>
	<g clip-path="url(#clip_0)">
		<path fill="rgb(0,0,0)" stroke="none" transform="translate(63.0459 34.8016)" d="M0 0L19.6703 0L19.6703 23.2012L0 23.2012L0 0Z"/>
	</g>
	<defs>
		<clipPath id="clip_1">
			<rect x="-607" y="-2621" width="1440" height="6794" clip-rule="evenodd"/>
		</clipPath>
	</defs>
	<g clip-path="url(#clip_1)">
		<path fill="rgb(0,0,0)" stroke="none" transform="translate(151.358 36.3955)" d="M0 0L19.5087 0L19.5087 23.4468L0 23.4468L0 0Z"/>
	</g>
	<defs>
		<clipPath id="clip_2">
			<rect x="-607" y="-2621" width="1440" height="6794" clip-rule="evenodd"/>
		</clipPath>
		<linearGradient id="gradient_0" gradientUnits="userSpaceOnUse" x1="-3.8504512" y1="40.729679" x2="140.61176" y2="40.729679">
			<stop offset="0" stop-color="rgb(255,134,23)"/>
			<stop offset="1" stop-color="rgb(177,29,243)"/>
		</linearGradient>
	</defs>
	<g clip-path="url(#clip_2)">
		<path fill="url(#gradient_0)" stroke="none" transform="translate(45.393 62.2936)" d="M70.5645 81.4479L70.5724 81.4525L70.5724 81.4442L98.0764 68.555L98.0764 65.1181C98.1056 65.1181 98.0764 56.4601 98.0764 56.4601C102.206 54.8976 113.108 57.7782 113.108 61.2631L113.214 61.2631L140.612 46.0835L140.612 0L70.5562 40.383L0.533024 0L0 40.3924L70.54 81.4336L70.54 81.4594L70.5645 81.4479Z" fill-rule="evenodd"/>
	</g>
	<defs>
		<clipPath id="clip_3">
			<rect x="-607" y="-2621" width="1440" height="6794" clip-rule="evenodd"/>
		</clipPath>
	</defs>
	<g clip-path="url(#clip_3)">
		<path fill="rgb(255,255,255)" stroke="none" transform="translate(45.926 21.9011)" d="M140.079 40.3924L70.0394 80.7848L0 40.3924L32.8247 21.4621C32.5513 21.4706 32.2759 21.4749 31.9986 21.4749C23.7564 21.4749 17.1198 17.6641 17.1198 12.9006C17.1198 8.13703 23.7564 4.32621 31.9986 4.32621C40.2409 4.43206 46.8775 8.24288 46.8775 12.9006C46.8775 13.0582 46.8702 13.2147 46.8558 13.3702L70.0394 0L95.1981 14.5093L95.1981 14.4944C95.1981 9.69844 101.914 5.86169 110.016 5.86169C118.225 5.86169 124.834 9.69844 124.834 14.4944C124.834 19.2661 118.291 23.0882 110.141 23.1268L140.079 40.3924Z" fill-rule="evenodd"/>
	</g>
	<defs>
		<clipPath id="clip_4">
			<path d="M115.965 102.686L186.005 62.2935L156.067 45.0279C164.217 44.9893 170.76 41.1672 170.76 36.3955C170.76 31.5996 164.151 27.7628 155.942 27.7628C147.84 27.7628 141.124 31.5996 141.124 36.3955L141.124 36.4104L115.965 21.9011L92.7819 35.2713C92.7962 35.1159 92.8035 34.9593 92.8035 34.8017C92.8035 30.144 86.1669 26.3332 77.9247 26.2273C69.6824 26.2273 63.0459 30.0381 63.0459 34.8017C63.0459 39.5652 69.6824 43.376 77.9247 43.376C78.2019 43.376 78.4773 43.3717 78.7507 43.3632L45.926 62.2935L115.965 102.686Z" clip-rule="evenodd"/>
		</clipPath>
	</defs>
	<g clip-path="url(#clip_4)">
		<path fill="none" stroke="rgb(0,0,0)" stroke-width="2" stroke-miterlimit="4" transform="translate(45.926 21.9011)" d="M140.079 40.3924L70.0394 80.7848L0 40.3924L32.8247 21.4621C32.5513 21.4706 32.2759 21.4749 31.9986 21.4749C23.7564 21.4749 17.1198 17.6641 17.1198 12.9006C17.1198 8.13703 23.7564 4.32621 31.9986 4.32621C40.2409 4.43206 46.8775 8.24288 46.8775 12.9006C46.8775 13.0582 46.8702 13.2147 46.8558 13.3702L70.0394 0L95.1981 14.5093L95.1981 14.4944C95.1981 9.69844 101.914 5.86169 110.016 5.86169C118.225 5.86169 124.834 9.69844 124.834 14.4944C124.834 19.2661 118.291 23.0882 110.141 23.1268L140.079 40.3924Z" fill-rule="evenodd"/>
	</g>
	<defs>
		<clipPath id="clip_5">
			<rect x="-607" y="-2621" width="1440" height="6794" clip-rule="evenodd"/>
		</clipPath>
	</defs>
	<g clip-path="url(#clip_5)">
		<path fill="rgb(0,0,0)" stroke="none" transform="translate(128.865 69.6473)" d="M0 8.63268C0 13.4286 6.6095 17.2654 14.8181 17.2654C23.0266 17.2654 29.6361 13.4286 29.6361 8.63268C29.6361 3.83675 23.0266 0 14.8181 0C6.6095 0.106576 0 3.94332 0 8.63268Z"/>
	</g>
	<defs>
		<clipPath id="clip_6">
			<rect x="-607" y="-2621" width="1440" height="6794" clip-rule="evenodd"/>
		</clipPath>
	</defs>
	<g clip-path="url(#clip_6)">
		<path fill="rgb(0,0,0)" stroke="none" transform="translate(143.469 78.1733)" d="M0 40.5802C-6.33869e-14 40.5802 0.106605 49.2382 3.79155e-14 49.2382L3.79155e-14 8.73925L15.2445 0L15.0313 45.3833C15.0313 41.817 3.38265 39.2425 0 40.5802Z"/>
	</g>

</svg>