<?xml version="1.0" encoding="UTF-8"?>
<svg width="687px" height="600px" viewBox="0 0 687 600" version="1.1" xmlns="http://www.w3.org/2000/svg" xmlns:xlink="http://www.w3.org/1999/xlink">
    <!-- Generator: Sketch 56.2 (81672) - https://sketch.com -->
    <title>Shape_5@1x</title>
    <desc>Created with Sketch.</desc>
    <defs>
        <linearGradient x1="33.1920168%" y1="32.9880264%" x2="75.7368415%" y2="68.4144955%" id="linearGradient-1">
            <stop stop-color="#03010F" offset="0%"></stop>
            <stop stop-color="#403B3B" offset="100%"></stop>
        </linearGradient>
    </defs>
    <g id="Web" stroke="none" stroke-width="1" fill="none" fill-rule="evenodd">
        <g id="Home_Page" transform="translate(0.000000, -4043.000000)" fill="url(#linearGradient-1)" fill-rule="nonzero">
            <g id="CONCLUSION" transform="translate(0.000000, 4043.000000)">
                <g id="BKG">
                    <g id="BKG7" transform="translate(-380.000000, -314.000000)">
                        <path d="M13.7968951,538.690053 C54.8040706,407.108162 149.895746,363.424985 271.852151,339.320862 C376.293226,318.617935 495.231787,320.629076 581.240344,259.466714 C667.2489,198.304352 715.563992,112.801262 819.62044,94.0799002 C959.062589,68.8519044 1045.3966,164.529004 1063.44449,273.3081 C1088.47484,424.143713 977.643041,528.456891 847.461531,549.011941 C739.440465,566.017917 624.673629,581.69299 546.742244,671.514119 C474.964893,754.325829 450.141646,905.368471 329.842097,936.718619 C193.388205,972.238927 -62.063421,782.097327 13.7968951,538.690053 Z" id="Shape_5"></path>
                    </g>
                </g>
            </g>
        </g>
    </g>
</svg>